<ttFont>
        <CharString name=".notdef">
          -419 endchar
        </CharString>
        <CharString name="A">
          73 21 -21 111 144.5 212.5 179 hstem
          2 615 vstem
          617 hmoveto
          -177 647 rlineto
          -242 hlineto
          -196 -647 rlineto
          196 hlineto
          17 108 82 4 98 -2 1 -3 18 -107 rlineto
          -49 256 rmoveto
          -56 -1 -56 1 56 212 rlineto
          12 hlineto
          endchar
        </CharString>
        <CharString name="AE">
          286 0 154 339 154 -14 14 hstemhm
          -20 860 -477 190 -168.5 186 hintmask 11010000
          840 146 rmoveto
          -11 14 rlineto
          hintmask 11000100
          -165 -6 rlineto
          -91 hlineto
          -5 75 190 55 -18 138 -14 11 rlineto
          hintmask 11001000
          -169 -54 -8 114 rlineto
          76 hlineto
          149 -6 rlineto
          hintmask 10110000
          13 146 rlineto
          hintmask 11000100
          -11 14 rlineto
          -520 hlineto
          -276 -647 rlineto
          196 hlineto
          34 119 1 2 171 52 5 -66 5 -107 rlineto
          436 hlineto
          hintmask 11001000
          -459 322 rmoveto
          -91 -28 67 174 rlineto
          12 hlineto
          endchar
        </CharString>
        <CharString name="AEacute">
          286 0 154 339 154 -14 14 hstemhm
          -20 860 -477 190 -168.5 186 hintmask 11010000
          408 716 rmoveto
          17 -4 77 20 75 22 86 27 rlinecurve
          6 16 -49 117 -17 4 -71 -42 -71 -39 -83 -42 rlinecurve
          462 -649 rmoveto
          -11 14 rlineto
          hintmask 11000100
          -165 -6 rlineto
          -91 hlineto
          -5 75 190 55 -18 138 -14 11 rlineto
          hintmask 11001000
          -169 -54 -8 114 rlineto
          76 hlineto
          149 -6 rlineto
          hintmask 10110000
          13 146 rlineto
          hintmask 11000100
          -11 14 rlineto
          -520 hlineto
          -276 -647 rlineto
          196 hlineto
          34 119 1 2 171 52 5 -66 5 -107 rlineto
          436 hlineto
          hintmask 11001000
          -459 322 rmoveto
          -91 -28 67 174 rlineto
          12 hlineto
          endchar
        </CharString>
        <CharString name="Aacute">
          73 21 -21 111 144.5 212.5 179 hstem
          2 615 vstem
          216 716 rmoveto
          17 -4 77 20 75 22 86 27 rlinecurve
          6 16 -49 117 -17 4 -71 -42 -71 -39 -83 -42 rlinecurve
          431 -795 rmoveto
          -177 647 rlineto
          -242 hlineto
          -196 -647 rlineto
          196 hlineto
          17 108 82 4 98 -2 1 -3 18 -107 rlineto
          -49 256 rmoveto
          -56 -1 -56 1 56 212 rlineto
          12 hlineto
          endchar
        </CharString>
        <CharString name="Abreve">
          73 21 -21 111 144.5 212.5 179 69 134 hstem
          2 615 vstem
          312 716 rmoveto
          87 64 44 80 30 hvcurveto
          -40 60 rlineto
          -27 hlineto
          -32 -21 -39 -18 -47 hhcurveto
          -52 -41 18 32 -22 hvcurveto
          -27 hlineto
          -40 -60 rlineto
          -80 28 62 -44 85 hhcurveto
          305 -716 rmoveto
          -177 647 rlineto
          -242 hlineto
          -196 -647 rlineto
          196 hlineto
          17 108 82 4 98 -2 1 -3 18 -107 rlineto
          -49 256 rmoveto
          -56 -1 -56 1 56 212 rlineto
          12 hlineto
          endchar
        </CharString>
        <CharString name="Abreveacute">
          73 21 -21 111 144.5 212.5 179 49 134 hstem
          2 615 vstem
          313 861 rmoveto
          15 5 44 38 43 40 42 41 rlinecurve
          -3 14 -89 57 -13 -4 -31 -50 -33 -48 -33 -48 rlinecurve
          57 -210 rmoveto
          87 64 44 80 30 hvcurveto
          -40 60 rlineto
          -27 hlineto
          -32 -21 -39 -18 -47 hhcurveto
          -52 -41 18 32 -22 hvcurveto
          -27 hlineto
          -40 -60 rlineto
          -80 28 62 -44 85 hhcurveto
          305 -696 rmoveto
          -177 647 rlineto
          -242 hlineto
          -196 -647 rlineto
          196 hlineto
          17 108 82 4 98 -2 1 -3 18 -107 rlineto
          -49 256 rmoveto
          -56 -1 -56 1 56 212 rlineto
          12 hlineto
          endchar
        </CharString>
        <CharString name="Abrevedotbelow">
          73 -231 199 53 -21 111 144.5 212.5 179 69 134 hstem
          210 195 vstem
          312 716 rmoveto
          87 64 44 80 30 hvcurveto
          -40 60 rlineto
          -27 hlineto
          -32 -21 -39 -18 -47 hhcurveto
          -52 -41 18 32 -22 hvcurveto
          -27 hlineto
          -40 -60 rlineto
          -80 28 62 -44 85 hhcurveto
          305 -716 rmoveto
          -177 647 rlineto
          -242 hlineto
          -196 -647 rlineto
          196 hlineto
          17 108 82 4 98 -2 1 -3 18 -107 rlineto
          -49 256 rmoveto
          -56 -1 -56 1 56 212 rlineto
          12 hlineto
          -9 -500 rmoveto
          -63 -39 -40 -64 -61 33 -34 61 62 39 40 64 60 -34 35 -59 hvcurveto
          endchar
        </CharString>
        <CharString name="Abrevegrave">
          73 21 -21 111 144.5 212.5 179 49 134 hstem
          2 615 vstem
          321 861 rmoveto
          58 45 -33 48 -33 48 -31 50 rlinecurve
          -13 4 -89 -57 -3 -14 42 -41 43 -40 44 -38 rlinecurve
          6 -170 rmoveto
          87 64 44 80 30 hvcurveto
          -40 60 rlineto
          -27 hlineto
          -32 -21 -39 -18 -47 hhcurveto
          -52 -41 18 32 -22 hvcurveto
          -27 hlineto
          -40 -60 rlineto
          -80 28 62 -44 85 hhcurveto
          305 -696 rmoveto
          -177 647 rlineto
          -242 hlineto
          -196 -647 rlineto
          196 hlineto
          17 108 82 4 98 -2 1 -3 18 -107 rlineto
          -49 256 rmoveto
          -56 -1 -56 1 56 212 rlineto
          12 hlineto
          endchar
        </CharString>
        <CharString name="Abrevehookabove">
          73 21 -21 111 144.5 212.5 179 49 134 205 82 hstemhm
          307 98 hintmask 00000000
          hintmask 11111100
          277 1035 rmoveto
          17 13 -7 -17 -21 -20 -31 -34 -24 hvcurveto
          54 -80 64 39 -27 43 rlineto
          47 42 14 21 29 vvcurveto
          53 -44 35 -56 -46 -47 -24 -37 -34 vhcurveto
          29 -47 rlineto
          16 21 28 10 21 hhcurveto
          35 -339 rmoveto
          87 64 44 80 30 hvcurveto
          -40 60 rlineto
          -27 hlineto
          -32 -21 -39 -18 -47 hhcurveto
          -52 -41 18 32 -22 hvcurveto
          -27 hlineto
          -40 -60 rlineto
          -80 28 62 -44 85 hhcurveto
          305 -696 rmoveto
          -177 647 rlineto
          -242 hlineto
          -196 -647 rlineto
          196 hlineto
          17 108 82 4 98 -2 1 -3 18 -107 rlineto
          -49 256 rmoveto
          -56 -1 -56 1 56 212 rlineto
          12 hlineto
          endchar
        </CharString>
        <CharString name="Abrevetilde">
          73 21 -21 111 144.5 212.5 179 49 125 hstem
          2 615 vstem
          192 889 rmoveto
          15 hlineto
          26 21 18 27 23 hhcurveto
          24 68 -25 -6 47 hvcurveto
          15 5 74 103 rlineto
          15 vlineto
          -52 50 rlineto
          -15 hlineto
          -27 -21 -18 -26 -23 hhcurveto
          -24 -68 24 7 -48 hvcurveto
          -14 -6 -74 -102 rlineto
          -15 vlineto
          183 -118 rmoveto
          -48 -38 16 30 -21 hvcurveto
          -25 hlineto
          -37 -56 rlineto
          -74 26 58 -41 79 hhcurveto
          81 59 41 74 28 hvcurveto
          -37 56 rlineto
          -25 hlineto
          -30 -20 -36 -16 -44 hhcurveto
          294 -821 rmoveto
          -177 647 rlineto
          -242 hlineto
          -196 -647 rlineto
          196 hlineto
          17 108 82 4 98 -2 1 -3 18 -107 rlineto
          -49 256 rmoveto
          -56 -1 -56 1 56 212 rlineto
          12 hlineto
          endchar
        </CharString>
        <CharString name="Acaron">
          73 21 -21 111 144.5 212.5 179 hstem
          2 615 vstem
          332 712 rmoveto
          45 41 51 39 57 39 -34 76 rcurveline
          -18 hlineto
          -39 -20 -40 -20 -39 -20 -118 60 rcurveline
          -18 hlineto
          -34 -76 57 -39 51 -39 45 -41 rlinecurve
          319 -712 rmoveto
          -177 647 rlineto
          -242 hlineto
          -196 -647 rlineto
          196 hlineto
          17 108 82 4 98 -2 1 -3 18 -107 rlineto
          -49 256 rmoveto
          -56 -1 -56 1 56 212 rlineto
          12 hlineto
          endchar
        </CharString>
        <CharString name="Acircumflex">
          73 21 -21 111 144.5 212.5 179 hstem
          2 615 vstem
          179 721 rmoveto
          18 hlineto
          39 20 40 20 39 20 118 -60 rcurveline
          18 hlineto
          34 76 -57 39 -51 39 -45 41 rlinecurve
          -34 hlineto
          -45 -41 -51 -39 -57 -39 rrcurveto
          472 -797 rmoveto
          -177 647 rlineto
          -242 hlineto
          -196 -647 rlineto
          196 hlineto
          17 108 82 4 98 -2 1 -3 18 -107 rlineto
          -49 256 rmoveto
          -56 -1 -56 1 56 212 rlineto
          12 hlineto
          endchar
        </CharString>
        <CharString name="Acircumflexacute">
          73 21 -21 111 144.5 212.5 179 hstem
          2 615 vstem
          437 849 rmoveto
          11 hlineto
          110 149 -5 13 -98 41 -12 -7 -70 -149 rlineto
          -195 -195 rmoveto
          18 hlineto
          39 20 40 20 39 20 118 -60 rcurveline
          18 hlineto
          34 76 -57 39 -51 39 -45 41 rlinecurve
          -34 hlineto
          -45 -41 -51 -39 -57 -39 rrcurveto
          473 -777 rmoveto
          -177 647 rlineto
          -242 hlineto
          -196 -647 rlineto
          196 hlineto
          17 108 82 4 98 -2 1 -3 18 -107 rlineto
          -49 256 rmoveto
          -56 -1 -56 1 56 212 rlineto
          12 hlineto
          endchar
        </CharString>
        <CharString name="Acircumflexdotbelow">
          73 -231 199 53 -21 111 144.5 212.5 179 hstem
          210 195 vstem
          179 721 rmoveto
          18 hlineto
          39 20 40 20 39 20 118 -60 rcurveline
          18 hlineto
          34 76 -57 39 -51 39 -45 41 rlinecurve
          -34 hlineto
          -45 -41 -51 -39 -57 -39 rrcurveto
          472 -797 rmoveto
          -177 647 rlineto
          -242 hlineto
          -196 -647 rlineto
          196 hlineto
          17 108 82 4 98 -2 1 -3 18 -107 rlineto
          -49 256 rmoveto
          -56 -1 -56 1 56 212 rlineto
          12 hlineto
          -9 -500 rmoveto
          -63 -39 -40 -64 -61 33 -34 61 62 39 40 64 60 -34 35 -59 hvcurveto
          endchar
        </CharString>
        <CharString name="Acircumflexgrave">
          73 21 -21 111 144.5 212.5 179 hstem
          2 615 vstem
          430 849 rmoveto
          11 hlineto
          64 47 -70 149 -12 7 -98 -41 -5 -13 rlineto
          -142 -297 rmoveto
          18 hlineto
          39 20 40 20 39 20 118 -60 rcurveline
          18 hlineto
          34 76 -57 39 -51 39 -45 41 rlinecurve
          -34 hlineto
          -45 -41 -51 -39 -57 -39 rrcurveto
          473 -777 rmoveto
          -177 647 rlineto
          -242 hlineto
          -196 -647 rlineto
          196 hlineto
          17 108 82 4 98 -2 1 -3 18 -107 rlineto
          -49 256 rmoveto
          -56 -1 -56 1 56 212 rlineto
          12 hlineto
          endchar
        </CharString>
        <CharString name="Acircumflexhookabove">
          73 21 -21 111 144.5 212.5 179 376 78 hstemhm
          428 94 hintmask 00000000
          hintmask 11111000
          400 1023 rmoveto
          16 12 -7 -16 -20 -19 -30 -32 -22 hvcurveto
          51 -77 61 38 -26 41 rlineto
          45 40 14 20 27 vvcurveto
          51 -42 33 -54 -43 -45 -23 -35 -33 vhcurveto
          28 -45 rlineto
          15 20 27 10 20 hhcurveto
          -222 -322 rmoveto
          18 hlineto
          39 20 40 20 39 20 118 -60 rcurveline
          18 hlineto
          34 76 -57 39 -51 39 -45 41 rlinecurve
          -34 hlineto
          -45 -41 -51 -39 -57 -39 rrcurveto
          473 -777 rmoveto
          -177 647 rlineto
          -242 hlineto
          -196 -647 rlineto
          196 hlineto
          17 108 82 4 98 -2 1 -3 18 -107 rlineto
          -49 256 rmoveto
          -56 -1 -56 1 56 212 rlineto
          12 hlineto
          endchar
        </CharString>
        <CharString name="Acircumflextilde">
          73 21 -21 111 144.5 212.5 179 hstem
          2 615 vstem
          192 889 rmoveto
          15 hlineto
          26 21 18 27 23 hhcurveto
          24 68 -25 -6 47 hvcurveto
          15 5 74 103 rlineto
          15 vlineto
          -52 50 rlineto
          -15 hlineto
          -27 -21 -18 -26 -23 hhcurveto
          -24 -68 24 7 -48 hvcurveto
          -14 -6 -74 -102 rlineto
          -15 vlineto
          157 -43 rmoveto
          -45 -41 -51 -39 -57 -39 34 -76 rcurveline
          18 hlineto
          39 20 40 20 39 20 118 -60 rcurveline
          18 hlineto
          34 76 -57 39 -51 39 -45 41 rlinecurve
          286 -896 rmoveto
          -177 647 rlineto
          -242 hlineto
          -196 -647 rlineto
          196 hlineto
          17 108 82 4 98 -2 1 -3 18 -107 rlineto
          -49 256 rmoveto
          -56 -1 -56 1 56 212 rlineto
          12 hlineto
          endchar
        </CharString>
        <CharString name="Adieresis">
          73 21 -21 111 144.5 212.5 179 72 173 hstemhm
          134 170 23 170 hintmask 11111000
          216 719 rmoveto
          54 34 35 56 52 -30 30 -51 -55 -34 -34 -56 -53 29 -30 53 hvcurveto
          hintmask 11111100
          193 hmoveto
          54 34 35 56 52 -30 30 -51 -55 -34 -34 -56 -53 29 -30 53 hvcurveto
          208 -719 rmoveto
          -177 647 rlineto
          -242 hlineto
          -196 -647 rlineto
          196 hlineto
          17 108 82 4 98 -2 1 -3 18 -107 rlineto
          -49 256 rmoveto
          -56 -1 -56 1 56 212 rlineto
          12 hlineto
          endchar
        </CharString>
        <CharString name="Adotbelow">
          73 -231 199 53 -21 111 144.5 212.5 179 hstem
          210 195 vstem
          617 hmoveto
          -177 647 rlineto
          -242 hlineto
          -196 -647 rlineto
          196 hlineto
          17 108 82 4 98 -2 1 -3 18 -107 rlineto
          -49 256 rmoveto
          -56 -1 -56 1 56 212 rlineto
          12 hlineto
          -9 -500 rmoveto
          -63 -39 -40 -64 -61 33 -34 61 62 39 40 64 60 -34 35 -59 hvcurveto
          endchar
        </CharString>
        <CharString name="Agrave">
          73 21 -21 111 144.5 212.5 179 hstem
          2 615 vstem
          434 716 rmoveto
          30 79 -83 42 -71 39 -71 42 rlinecurve
          -17 -4 -49 -117 6 -16 86 -27 75 -22 77 -20 rlinecurve
          200 -712 rmoveto
          -177 647 rlineto
          -242 hlineto
          -196 -647 rlineto
          196 hlineto
          17 108 82 4 98 -2 1 -3 18 -107 rlineto
          -49 256 rmoveto
          -56 -1 -56 1 56 212 rlineto
          12 hlineto
          endchar
        </CharString>
        <CharString name="Ahookabove">
          73 21 -21 111 144.5 212.5 179 219 82 hstemhm
          303 98 hintmask 00000000
          hintmask 11111000
          273 866 rmoveto
          17 13 -7 -17 -21 -20 -31 -34 -24 hvcurveto
          54 -80 64 39 -27 43 rlineto
          47 42 14 21 29 vvcurveto
          53 -44 35 -56 -46 -47 -24 -37 -34 vhcurveto
          29 -47 rlineto
          16 21 28 10 21 hhcurveto
          344 -866 rmoveto
          -177 647 rlineto
          -242 hlineto
          -196 -647 rlineto
          196 hlineto
          17 108 82 4 98 -2 1 -3 18 -107 rlineto
          -49 256 rmoveto
          -56 -1 -56 1 56 212 rlineto
          12 hlineto
          endchar
        </CharString>
        <CharString name="Amacron">
          73 21 -21 111 144.5 212.5 179 99 120 hstem
          2 615 vstem
          179 746 rmoveto
          276 hlineto
          9 107 -12 13 rlineto
          -276 hlineto
          -9 -107 rlineto
          450 -759 rmoveto
          -177 647 rlineto
          -242 hlineto
          -196 -647 rlineto
          196 hlineto
          17 108 82 4 98 -2 1 -3 18 -107 rlineto
          -49 256 rmoveto
          -56 -1 -56 1 56 212 rlineto
          12 hlineto
          endchar
        </CharString>
        <CharString name="Aogonek">
          73 -197 98 120 -21 111 144.5 212.5 179 hstemhm
          2 631 -215 96 hintmask 00000000
          hintmask 11111000
          621 -79 rmoveto
          -10 hlineto
          hintmask 11110100
          -13 -21 -22 -7 -18 hhcurveto
          -25 -11 14 18 15 8 21 25 31 hvcurveto
          70 hlineto
          -177 647 rlineto
          -242 hlineto
          -196 -647 rlineto
          196 hlineto
          17 108 82 4 98 -2 1 -3 18 -107 rlineto
          48 hlineto
          -32 -37 -12 -28 -32 vvcurveto
          -58 39 -42 65 37 32 14 32 42 vhcurveto
          -268 407 rmoveto
          -56 -1 -56 1 56 212 rlineto
          12 hlineto
          endchar
        </CharString>
        <CharString name="Aring">
          73 21 -21 111 144.5 212.5 179 66 76 64 78 hstem
          205 75 70 75 vstem
          311 713 rmoveto
          75 39 41 73 69 -35 35 -71 -75 -39 -38 -73 -71 36 -36 70 hvcurveto
          3 140 rmoveto
          26 10 -9 -24 -23 -9 -8 -25 -26 -10 9 25 22 9 8 25 hvcurveto
          303 -853 rmoveto
          -177 647 rlineto
          -242 hlineto
          -196 -647 rlineto
          196 hlineto
          17 108 82 4 98 -2 1 -3 18 -107 rlineto
          -49 256 rmoveto
          -56 -1 -56 1 56 212 rlineto
          12 hlineto
          endchar
        </CharString>
        <CharString name="Aringacute">
          73 0 246.5 -139.5 139.5 400.5 -20 84 78 hstemhm
          210 75 70 75 hintmask 10111100
          218 807 rmoveto
          17 -6 79 9 77 11 89 15 rlinecurve
          8 15 -32 123 -16 6 -77 -32 -75 -29 -88 -30 rlinecurve
          417 -889 rmoveto
          -193 642 rlineto
          4 13 2 14 16 vvcurveto
          69 -35 35 -71 -75 -39 -38 -73 -14 1 -12 3 -11 vhcurveto
          -212 -641 rlineto
          196 hlineto
          hintmask 01111100
          17 104 82 4 98 -2 1 -3 rlineto
          hintmask 10111100
          18 -103 rlineto
          -95 711 rmoveto
          26 10 -9 -24 -23 -9 -8 -25 -26 -10 9 25 22 9 8 25 hvcurveto
          46 -464 rmoveto
          -56 -1 -56 1 56 203 rlineto
          12 hlineto
          endchar
        </CharString>
        <CharString name="Atilde">
          73 21 -21 111 144.5 212.5 179 hstem
          2 615 vstem
          175 702 rmoveto
          16 hlineto
          29 23 20 29 26 hhcurveto
          26 75 -27 -7 52 hvcurveto
          16 6 81 113 rlineto
          16 vlineto
          -57 55 rlineto
          -16 hlineto
          -29 -23 -20 -29 -26 hhcurveto
          -26 -75 27 7 -52 hvcurveto
          -16 -6 -81 -113 rlineto
          -16 vlineto
          499 -757 rmoveto
          -177 647 rlineto
          -242 hlineto
          -196 -647 rlineto
          196 hlineto
          17 108 82 4 98 -2 1 -3 18 -107 rlineto
          -49 256 rmoveto
          -56 -1 -56 1 56 212 rlineto
          12 hlineto
          endchar
        </CharString>
        <CharString name="B">
          75 -7 132 -104 -21 255 126.5 133.5 133 hstemhm
          65 187 127 204 -182 203 hintmask 10111010
          484 333 rmoveto
          hintmask 01111100
          64 30 35 53 66 vvcurveto
          109 -90 57 -144 vhcurveto
          -289 -1 10 -457 -10 -190 rlineto
          hintmask 10111010
          -4 71 94 -3 50 hhcurveto
          214 115 57 137 75 -35 47 -85 24 hvcurveto
          hintmask 10111100
          -105 120 rmoveto
          -40 -17 -21 -37 -12 vhcurveto
          -75 3 4 132 rlineto
          9 hlineto
          90 26 -15 -47 hvcurveto
          hintmask 10111010
          -66 -328 rmoveto
          -15 -24 2 2 -25 hvcurveto
          -3 81 1 44 97 2 rlineto
          40 -13 17 -17 -31 vvcurveto
          -46 -34 -24 -54 vhcurveto
          endchar
        </CharString>
        <CharString name="C">
          -40 -11 166 340 163 hstem
          17 212 vstem
          352 658 rmoveto
          -214 -121 -125 -215 -213 107 -116 217 44 48 4 15 47 hvcurveto
          16 158 -16 10 rlineto
          -13 -36 -51 -8 -36 hhcurveto
          -88 -40 57 129 111 35 43 80 38 50 -12 -19 35 hvcurveto
          13 8 34 159 rlineto
          17 -48 -54 10 -60 hhcurveto
          endchar
        </CharString>
        <CharString name="C.ss01">
          -107 0 65 383 65 hstem
          27 187 vstem
          294 366 rmoveto
          28 40 -8 -12 26 hvcurveto
          12 7 20 95 rlineto
          127 65 -647 -65 207 hlineto
          -52 -44 -28 -67 -86 vvcurveto
          -81 22 -63 45 -42 vhcurveto
          -194 -65 647 65 -142 hlineto
          8 84 -14 9 rlineto
          -6 -27 -40 -4 -25 hhcurveto
          -65 -28 36 88 71 23 23 57 hvcurveto
          endchar
        </CharString>
        <CharString name="Cacute">
          -40 -11 166 340 163 hstem
          17 212 vstem
          430 914 rmoveto
          -17 4 -71 -42 -71 -39 -83 -42 rlinecurve
          30 -79 17 -4 77 20 75 22 86 27 rlinecurve
          6 16 rlineto
          -127 -139 rmoveto
          -214 -121 -125 -215 -213 107 -116 217 44 48 4 15 47 hvcurveto
          16 158 -16 10 rlineto
          -13 -36 -51 -8 -36 hhcurveto
          -88 -40 57 129 111 35 43 80 38 50 -12 -19 35 hvcurveto
          13 8 34 159 rlineto
          17 -48 -54 10 -60 hhcurveto
          endchar
        </CharString>
        <CharString name="Ccaron">
          -40 -11 166 340 163 hstem
          17 212 vstem
          453 907 rmoveto
          -18 hlineto
          -39 -20 -40 -20 -39 -20 -118 60 rcurveline
          -18 hlineto
          -34 -76 57 -39 51 -39 45 -41 rlinecurve
          34 hlineto
          45 41 51 39 57 39 rrcurveto
          -135 -173 rmoveto
          -214 -121 -125 -215 -213 107 -116 217 44 48 4 15 47 hvcurveto
          16 158 -16 10 rlineto
          -13 -36 -51 -8 -36 hhcurveto
          -88 -40 57 129 111 35 43 80 38 50 -12 -19 35 hvcurveto
          13 8 34 159 rlineto
          17 -48 -54 10 -60 hhcurveto
          endchar
        </CharString>
        <CharString name="Ccedilla">
          -40 -208 74 -29 -21 173 166 -145 -21 25 -21 502 163 hstemhm
          17 212 93 107 hintmask 00000000
          hintmask 01100110
          357 155 rmoveto
          -88 -40 57 129 111 35 43 80 38 50 -12 -19 35 hvcurveto
          13 8 34 159 rlineto
          17 -48 -54 10 -60 hhcurveto
          -214 -121 -125 -215 hvcurveto
          hintmask 10001111
          -190 85 -113 172 -22 vhcurveto
          -14 -71 50 -27 rlineto
          8 -4 4 -4 -7 vvcurveto
          -9 -5 -5 -11 -14 -25 10 18 -21 vhcurveto
          -8 -3 rlineto
          hintmask 01001110
          -11 -75 rlineto
          hintmask 10010111
          -15 27 30 -9 35 hhcurveto
          69 41 36 48 24 -10 21 -34 18 hvcurveto
          -34 19 6 31 39 1 43 5 41 13 rlinecurve
          hintmask 01100110
          16 158 -16 10 rlineto
          -13 -36 -51 -8 -36 hhcurveto
          endchar
        </CharString>
        <CharString name="Ccircumflex">
          -40 -11 166 340 163 hstem
          17 212 vstem
          181 721 rmoveto
          18 hlineto
          39 20 40 20 39 20 118 -60 rcurveline
          18 hlineto
          34 76 -57 39 -51 39 -45 41 rlinecurve
          -34 hlineto
          -45 -41 -51 -39 -57 -39 rrcurveto
          205 -139 rmoveto
          -214 -121 -125 -215 -213 107 -116 217 44 48 4 15 47 hvcurveto
          16 158 -16 10 rlineto
          -13 -36 -51 -8 -36 hhcurveto
          -88 -40 57 129 111 35 43 80 38 50 -12 -19 35 hvcurveto
          13 8 34 159 rlineto
          17 -48 -54 10 -60 hhcurveto
          endchar
        </CharString>
        <CharString name="Cdotaccent">
          -40 -11 166 340 163 46 199 hstemhm
          17 212 -10 195 hintmask 00000000
          hintmask 11101000
          321 903 rmoveto
          -63 -39 -40 -64 -61 33 -34 61 62 39 40 64 60 -34 35 -59 hvcurveto
          31 -245 rmoveto
          hintmask 11110000
          -214 -121 -125 -215 -213 107 -116 217 44 48 4 15 47 hvcurveto
          16 158 -16 10 rlineto
          -13 -36 -51 -8 -36 hhcurveto
          -88 -40 57 129 111 35 43 80 38 50 -12 -19 35 hvcurveto
          13 8 34 159 rlineto
          hintmask 11101000
          17 -48 -54 10 -60 hhcurveto
          endchar
        </CharString>
        <CharString name="D">
          111 -9 149 -119 -21 495 156 hstemhm
          65 191.5 181.5 210 hintmask 10111000
          60 647 rmoveto
          10 -457 rlineto
          hintmask 01111000
          -10 -190 rlineto
          hintmask 10111000
          -5 78 101 -4 65 hhcurveto
          221 123 128 231 194 -105 107 -191 hvcurveto
          -10 -511 rmoveto
          -21 -36 4 4 -30 hvcurveto
          -2 62 7 281 rlineto
          3 28 28 1 19 hhcurveto
          76 27 -49 -145 -120 -37 -41 -59 hvcurveto
          endchar
        </CharString>
        <CharString name="D.ss01">
          21 0 65 -65 133 233 147 -65 65 hstemhm
          68 169 124 186 hintmask 10011100
          675 448 rmoveto
          65 -775 -65 164 vlineto
          8 -296 -5 -87 rlineto
          -167 -65 775 65 -209 hlineto
          53 47 28 71 93 vvcurveto
          75 -22 58 -42 39 vhcurveto
          -249 -278 rmoveto
          hintmask 01101100
          6 194 rlineto
          2 21 15 0 16 hhcurveto
          53 16 -29 -105 -78 -25 -21 -38 -16 -24 4 4 -23 hvcurveto
          endchar
        </CharString>
        <CharString name="Dcaron">
          111 -9 149 -119 -21 495 156 hstemhm
          65 191.5 181.5 210 hintmask 10111000
          345 712 rmoveto
          45 41 51 39 57 39 -34 76 rcurveline
          -18 hlineto
          -39 -20 -40 -20 -39 -20 -118 60 rcurveline
          -18 hlineto
          -34 -76 57 -39 51 -39 45 -41 rlinecurve
          -251 -65 rmoveto
          10 -457 rlineto
          hintmask 01111000
          -10 -190 rlineto
          hintmask 10111000
          -5 78 101 -4 65 hhcurveto
          221 123 128 231 194 -105 107 -191 hvcurveto
          -10 -511 rmoveto
          -21 -36 4 4 -30 hvcurveto
          -2 62 7 281 rlineto
          3 28 28 1 19 hhcurveto
          76 27 -49 -145 -120 -37 -41 -59 hvcurveto
          endchar
        </CharString>
        <CharString name="Dcroat">
          111 -9 149 -119 -21 495 156 95 120 hstemhm
          65 191.5 181.5 210 hintmask 10111100
          192 746 rmoveto
          276 hlineto
          9 107 -12 13 rlineto
          -276 hlineto
          -9 -107 rlineto
          -120 -112 rmoveto
          10 -457 rlineto
          hintmask 01111100
          -10 -190 rlineto
          hintmask 10111100
          -5 78 101 -4 65 hhcurveto
          221 123 128 231 194 -105 107 -191 hvcurveto
          -10 -511 rmoveto
          -21 -36 4 4 -30 hvcurveto
          -2 62 7 281 rlineto
          3 28 28 1 19 hhcurveto
          76 27 -49 -145 -120 -37 -41 -59 hvcurveto
          endchar
        </CharString>
        <CharString name="Delta">
          73 0 145 323 179 hstem
          2 615 vstem
          617 hmoveto
          -177 647 rlineto
          -242 hlineto
          -196 -647 rlineto
          307 468 rmoveto
          12 hlineto
          67 -323 rlineto
          -164 hlineto
          endchar
        </CharString>
        <CharString name="E">
          -13 0 154 94 154 91 154 -14 14 hstemhm
          65 194 hintmask 11101000
          517 160 rmoveto
          -166 -6 rlineto
          -96 hlineto
          -2 56 1 38 rlineto
          90 hlineto
          116 -3 12 146 -11 14 -104 -3 rlineto
          -99 hlineto
          2 91 rlineto
          103 hlineto
          159 -6 rlineto
          hintmask 11011000
          13 146 rlineto
          hintmask 11101000
          -11 14 rlineto
          -464 hlineto
          10 -457 -10 -190 rlineto
          456 hlineto
          12 146 rlineto
          endchar
        </CharString>
        <CharString name="Eacute">
          -13 0 154 94 154 91 154 -14 14 hstemhm
          65 194 hintmask 11101000
          193 716 rmoveto
          17 -4 77 20 75 22 86 27 rlinecurve
          6 16 -49 117 -17 4 -71 -42 -71 -39 -83 -42 rlinecurve
          354 -635 rmoveto
          -166 -6 rlineto
          -96 hlineto
          -2 56 1 38 rlineto
          90 hlineto
          116 -3 12 146 -11 14 -104 -3 rlineto
          -99 hlineto
          2 91 rlineto
          103 hlineto
          159 -6 rlineto
          hintmask 11011000
          13 146 rlineto
          hintmask 11101000
          -11 14 rlineto
          -464 hlineto
          10 -457 -10 -190 rlineto
          456 hlineto
          12 146 rlineto
          endchar
        </CharString>
        <CharString name="Ebreve">
          -13 0 154 94 154 91 154 -14 14 69 134 hstemhm
          65 194 hintmask 11101100
          289 716 rmoveto
          87 64 44 80 30 hvcurveto
          -40 60 rlineto
          -27 hlineto
          -32 -21 -39 -18 -47 hhcurveto
          -52 -41 18 32 -22 hvcurveto
          -27 hlineto
          -40 -60 rlineto
          -80 28 62 -44 85 hhcurveto
          228 -556 rmoveto
          -166 -6 rlineto
          -96 hlineto
          -2 56 1 38 rlineto
          90 hlineto
          116 -3 12 146 -11 14 -104 -3 rlineto
          -99 hlineto
          2 91 rlineto
          103 hlineto
          159 -6 rlineto
          hintmask 11011100
          13 146 rlineto
          hintmask 11101100
          -11 14 rlineto
          -464 hlineto
          10 -457 -10 -190 rlineto
          456 hlineto
          12 146 rlineto
          endchar
        </CharString>
        <CharString name="Ecaron">
          -13 0 154 94 154 91 154 -14 14 hstemhm
          65 194 hintmask 11101000
          309 712 rmoveto
          45 41 51 39 57 39 -34 76 rcurveline
          -18 hlineto
          -39 -20 -40 -20 -39 -20 -118 60 rcurveline
          -18 hlineto
          -34 -76 57 -39 51 -39 45 -41 rlinecurve
          242 -552 rmoveto
          -166 -6 rlineto
          -96 hlineto
          -2 56 1 38 rlineto
          90 hlineto
          116 -3 12 146 -11 14 -104 -3 rlineto
          -99 hlineto
          2 91 rlineto
          103 hlineto
          159 -6 rlineto
          hintmask 11011000
          13 146 rlineto
          hintmask 11101000
          -11 14 rlineto
          -464 hlineto
          10 -457 -10 -190 rlineto
          456 hlineto
          12 146 rlineto
          endchar
        </CharString>
        <CharString name="Ecircumflex">
          -13 0 154 94 154 91 154 -14 14 hstemhm
          65 194 hintmask 11101000
          156 721 rmoveto
          18 hlineto
          39 20 40 20 39 20 118 -60 rcurveline
          18 hlineto
          34 76 -57 39 -51 39 -45 41 rlinecurve
          -34 hlineto
          -45 -41 -51 -39 -57 -39 rrcurveto
          395 -637 rmoveto
          -166 -6 rlineto
          -96 hlineto
          -2 56 1 38 rlineto
          90 hlineto
          116 -3 12 146 -11 14 -104 -3 rlineto
          -99 hlineto
          2 91 rlineto
          103 hlineto
          159 -6 rlineto
          hintmask 11011000
          13 146 rlineto
          hintmask 11101000
          -11 14 rlineto
          -464 hlineto
          10 -457 -10 -190 rlineto
          456 hlineto
          12 146 rlineto
          endchar
        </CharString>
        <CharString name="Ecircumflexacute">
          -13 0 154 94 154 91 154 -14 14 hstemhm
          65 194 hintmask 11101000
          414 849 rmoveto
          11 hlineto
          110 149 -5 13 -98 41 -12 -7 -70 -149 rlineto
          -195 -195 rmoveto
          18 hlineto
          39 20 40 20 39 20 118 -60 rcurveline
          18 hlineto
          34 76 -57 39 -51 39 -45 41 rlinecurve
          -34 hlineto
          -45 -41 -51 -39 -57 -39 rrcurveto
          139 -284 rmoveto
          103 hlineto
          159 -6 rlineto
          hintmask 11011000
          13 146 rlineto
          hintmask 11101000
          -11 14 rlineto
          -464 hlineto
          10 -457 -10 -190 rlineto
          456 hlineto
          12 146 -11 14 -166 -6 rlineto
          -96 hlineto
          -2 56 1 38 rlineto
          90 hlineto
          116 -3 12 146 -11 14 -104 -3 rlineto
          -99 hlineto
          endchar
        </CharString>
        <CharString name="Ecircumflexdotbelow">
          -13 -231 199 32 154 94 154 91 154 -14 14 hstemhm
          65 194 -47 195 hintmask 01110100
          156 721 rmoveto
          18 hlineto
          39 20 40 20 39 20 118 -60 rcurveline
          18 hlineto
          34 76 -57 39 -51 39 -45 41 rlinecurve
          -34 hlineto
          -45 -41 -51 -39 -57 -39 rrcurveto
          395 -637 rmoveto
          -166 -6 rlineto
          -96 hlineto
          -2 56 1 38 rlineto
          90 hlineto
          116 -3 12 146 -11 14 -104 -3 rlineto
          -99 hlineto
          2 91 rlineto
          103 hlineto
          159 -6 rlineto
          hintmask 01101100
          13 146 rlineto
          hintmask 01110100
          -11 14 rlineto
          -464 hlineto
          10 -457 -10 -190 rlineto
          456 hlineto
          12 146 rlineto
          hintmask 11110010
          -214 -178 rmoveto
          -63 -39 -40 -64 -61 33 -34 61 62 39 40 64 60 -34 35 -59 hvcurveto
          endchar
        </CharString>
        <CharString name="Ecircumflexgrave">
          -13 0 154 94 154 91 154 -14 14 hstemhm
          65 194 hintmask 11101000
          407 849 rmoveto
          11 hlineto
          64 47 -70 149 -12 7 -98 -41 -5 -13 rlineto
          -142 -297 rmoveto
          18 hlineto
          39 20 40 20 39 20 118 -60 rcurveline
          18 hlineto
          34 76 -57 39 -51 39 -45 41 rlinecurve
          -34 hlineto
          -45 -41 -51 -39 -57 -39 rrcurveto
          396 -617 rmoveto
          -166 -6 rlineto
          -96 hlineto
          -2 56 1 38 rlineto
          90 hlineto
          116 -3 12 146 -11 14 -104 -3 rlineto
          -99 hlineto
          2 91 rlineto
          103 hlineto
          159 -6 rlineto
          hintmask 11011000
          13 146 rlineto
          hintmask 11101000
          -11 14 rlineto
          -464 hlineto
          10 -457 -10 -190 rlineto
          456 hlineto
          12 146 rlineto
          endchar
        </CharString>
        <CharString name="Ecircumflexhookabove">
          -13 0 154 94 154 91 154 -14 14 376 78 hstemhm
          65 194 146 94 hintmask 11101110
          377 1023 rmoveto
          16 12 -7 -16 -20 -19 -30 -32 -22 hvcurveto
          51 -77 61 38 -26 41 rlineto
          45 40 14 20 27 vvcurveto
          51 -42 33 -54 -43 -45 -23 -35 -33 vhcurveto
          28 -45 rlineto
          15 20 27 10 20 hhcurveto
          -222 -322 rmoveto
          18 hlineto
          39 20 40 20 39 20 118 -60 rcurveline
          18 hlineto
          34 76 -57 39 -51 39 -45 41 rlinecurve
          -34 hlineto
          -45 -41 -51 -39 -57 -39 rrcurveto
          396 -617 rmoveto
          -166 -6 rlineto
          -96 hlineto
          -2 56 1 38 rlineto
          90 hlineto
          116 -3 12 146 -11 14 -104 -3 rlineto
          -99 hlineto
          2 91 rlineto
          103 hlineto
          159 -6 rlineto
          hintmask 11011110
          13 146 rlineto
          hintmask 11101110
          -11 14 rlineto
          -464 hlineto
          10 -457 -10 -190 rlineto
          456 hlineto
          12 146 rlineto
          endchar
        </CharString>
        <CharString name="Ecircumflextilde">
          -13 0 154 94 154 91 154 -14 14 hstemhm
          65 194 hintmask 11101000
          407 849 rmoveto
          11 hlineto
          64 47 -70 149 -12 7 -98 -41 -5 -13 rlineto
          -142 -297 rmoveto
          18 hlineto
          39 20 40 20 39 20 118 -60 rcurveline
          18 hlineto
          34 76 -57 39 -51 39 -45 41 rlinecurve
          -34 hlineto
          -45 -41 -51 -39 -57 -39 rrcurveto
          396 -617 rmoveto
          -166 -6 rlineto
          -96 hlineto
          -2 56 1 38 rlineto
          90 hlineto
          116 -3 12 146 -11 14 -104 -3 rlineto
          -99 hlineto
          2 91 rlineto
          103 hlineto
          159 -6 rlineto
          hintmask 11011000
          13 146 rlineto
          hintmask 11101000
          -11 14 rlineto
          -464 hlineto
          10 -457 -10 -190 rlineto
          456 hlineto
          12 146 rlineto
          endchar
        </CharString>
        <CharString name="Edieresis">
          -13 0 154 94 154 91 154 -14 14 72 173 hstemhm
          65 194 -148 170 23 170 hintmask 00000000
          hintmask 11101010
          193 719 rmoveto
          54 34 35 56 52 -30 30 -51 -55 -34 -34 -56 -53 29 -30 53 hvcurveto
          hintmask 11101101
          193 hmoveto
          54 34 35 56 52 -30 30 -51 -55 -34 -34 -56 -53 29 -30 53 hvcurveto
          131 -559 rmoveto
          -166 -6 rlineto
          -96 hlineto
          -2 56 1 38 rlineto
          90 hlineto
          116 -3 12 146 -11 14 -104 -3 rlineto
          -99 hlineto
          2 91 rlineto
          103 hlineto
          159 -6 rlineto
          hintmask 11010100
          13 146 rlineto
          hintmask 11100100
          -11 14 rlineto
          -464 hlineto
          10 -457 -10 -190 rlineto
          456 hlineto
          12 146 rlineto
          endchar
        </CharString>
        <CharString name="Edotaccent">
          -13 0 154 94 154 91 154 -14 14 57 199 hstemhm
          65 194 -65 195 hintmask 00000000
          hintmask 11101010
          288 704 rmoveto
          62 39 40 64 60 -34 35 -59 -63 -39 -40 -64 -61 33 -34 61 hvcurveto
          229 -544 rmoveto
          hintmask 11100100
          -166 -6 rlineto
          -96 hlineto
          -2 56 1 38 rlineto
          90 hlineto
          116 -3 12 146 -11 14 -104 -3 rlineto
          -99 hlineto
          2 91 rlineto
          103 hlineto
          159 -6 rlineto
          hintmask 11010100
          13 146 rlineto
          hintmask 11100100
          -11 14 rlineto
          -464 hlineto
          10 -457 -10 -190 rlineto
          456 hlineto
          12 146 rlineto
          endchar
        </CharString>
        <CharString name="Edotbelow">
          -13 -231 199 32 154 94 154 91 154 -14 14 hstemhm
          65 194 -47 195 hintmask 01110100
          517 160 rmoveto
          -166 -6 rlineto
          -96 hlineto
          -2 56 1 38 rlineto
          90 hlineto
          116 -3 12 146 -11 14 -104 -3 rlineto
          -99 hlineto
          2 91 rlineto
          103 hlineto
          159 -6 rlineto
          hintmask 01101100
          13 146 rlineto
          hintmask 01110100
          -11 14 rlineto
          -464 hlineto
          10 -457 -10 -190 rlineto
          456 hlineto
          12 146 rlineto
          hintmask 11110010
          -214 -178 rmoveto
          -63 -39 -40 -64 -61 33 -34 61 62 39 40 64 60 -34 35 -59 hvcurveto
          endchar
        </CharString>
        <CharString name="Egrave">
          -13 0 154 94 154 91 154 -14 14 hstemhm
          65 194 hintmask 11101000
          411 716 rmoveto
          30 79 -83 42 -71 39 -71 42 rlinecurve
          -17 -4 -49 -117 6 -16 86 -27 75 -22 77 -20 rlinecurve
          123 -552 rmoveto
          -166 -6 rlineto
          -96 hlineto
          -2 56 1 38 rlineto
          90 hlineto
          116 -3 12 146 -11 14 -104 -3 rlineto
          -99 hlineto
          2 91 rlineto
          103 hlineto
          159 -6 rlineto
          hintmask 11011000
          13 146 rlineto
          hintmask 11101000
          -11 14 rlineto
          -464 hlineto
          10 -457 -10 -190 rlineto
          456 hlineto
          12 146 rlineto
          endchar
        </CharString>
        <CharString name="Ehookabove">
          -13 0 154 94 154 91 154 -14 14 219 82 hstemhm
          65 194 21 98 hintmask 00000000
          hintmask 11101110
          250 866 rmoveto
          17 13 -7 -17 -21 -20 -31 -34 -24 hvcurveto
          54 -80 64 39 -27 43 rlineto
          47 42 14 21 29 vvcurveto
          53 -44 35 -56 -46 -47 -24 -37 -34 vhcurveto
          29 -47 rlineto
          16 21 28 10 21 hhcurveto
          267 -706 rmoveto
          hintmask 11100100
          -166 -6 rlineto
          -96 hlineto
          -2 56 1 38 rlineto
          90 hlineto
          116 -3 12 146 -11 14 -104 -3 rlineto
          -99 hlineto
          2 91 rlineto
          103 hlineto
          159 -6 rlineto
          hintmask 11010100
          13 146 rlineto
          hintmask 11100100
          -11 14 rlineto
          -464 hlineto
          10 -457 -10 -190 rlineto
          456 hlineto
          12 146 rlineto
          endchar
        </CharString>
        <CharString name="Emacron">
          -13 0 154 94 154 91 154 -14 14 99 120 hstemhm
          65 194 hintmask 11101100
          156 746 rmoveto
          276 hlineto
          9 107 -12 13 rlineto
          -276 hlineto
          -9 -107 rlineto
          373 -599 rmoveto
          -166 -6 rlineto
          -96 hlineto
          -2 56 1 38 rlineto
          90 hlineto
          116 -3 12 146 -11 14 -104 -3 rlineto
          -99 hlineto
          2 91 rlineto
          103 hlineto
          159 -6 rlineto
          hintmask 11011100
          13 146 rlineto
          hintmask 11101100
          -11 14 rlineto
          -464 hlineto
          10 -457 -10 -190 rlineto
          456 hlineto
          12 146 rlineto
          endchar
        </CharString>
        <CharString name="Eng">
          156 21 -21 647 -20 24 -20 hstemhm
          65 169.5 234.5 175.5 hintmask 10111000
          639 211 rmoveto
          11 440 -184 -11 6 -319 rlineto
          -12 hlineto
          hintmask 11011000
          -182 326 rlineto
          -218 hlineto
          10 -457 -10 -190 rlineto
          182 hlineto
          -8 234 1 112 rlineto
          12 hlineto
          200 -346 -14 -25 -25 -19 -40 -19 rlinecurve
          -16 vlineto
          52 -103 rlineto
          171 50 54 63 123 vvcurveto
          endchar
        </CharString>
        <CharString name="Eogonek">
          -13 -197 98 -77 -21 197 154 94 154 91 154 -14 14 hstemhm
          65 194 62 96 hintmask 00000000
          hintmask 10111011
          524 -79 rmoveto
          -10 hlineto
          -13 -21 -22 -7 -18 hhcurveto
          -25 -11 14 19 14 6 15 10 15 hvcurveto
          15 22 rlineto
          68 hlineto
          12 146 -11 14 -166 -6 rlineto
          -96 hlineto
          -2 56 1 38 rlineto
          90 hlineto
          116 -3 12 146 -11 14 -104 -3 rlineto
          -99 hlineto
          2 91 rlineto
          103 hlineto
          159 -6 rlineto
          hintmask 01110110
          13 146 rlineto
          hintmask 01111011
          -11 14 rlineto
          -464 hlineto
          10 -457 -10 -190 rlineto
          301 hlineto
          -7 -9 rlineto
          -23 -31 -10 -31 -29 vvcurveto
          -54 39 -43 65 37 32 14 32 42 vhcurveto
          endchar
        </CharString>
        <CharString name="Eth">
          141 -9 149 -119 -21 250 130 115 156 hstemhm
          93 195.5 -189 184 184.5 210 hintmask 00000000
          hintmask 10111010
          90 647 rmoveto
          6 -267 rlineto
          hintmask 01110110
          -70 hlineto
          -7 -117 9 -13 rlineto
          71 hlineto
          1 -60 -10 -190 rlineto
          hintmask 10110110
          -5 78 101 -4 65 hhcurveto
          221 123 128 231 194 -105 107 -191 hvcurveto
          -10 -511 rmoveto
          -21 -36 4 4 -30 hvcurveto
          -2 62 1 40 rlineto
          hintmask 10111010
          89 hlineto
          7 117 -9 13 rlineto
          -84 hlineto
          3 111 rlineto
          3 28 28 1 19 hhcurveto
          76 27 -49 -145 hvcurveto
          hintmask 10110110
          -120 -37 -41 -59 vhcurveto
          endchar
        </CharString>
        <CharString name="Etilde">
          -13 0 154 94 154 91 154 -14 14 hstemhm
          65 194 hintmask 11101000
          152 702 rmoveto
          16 hlineto
          29 23 20 29 26 hhcurveto
          26 75 -27 -7 52 hvcurveto
          16 6 81 113 rlineto
          16 vlineto
          -57 55 rlineto
          -16 hlineto
          -29 -23 -20 -29 -26 hhcurveto
          -26 -75 27 7 -52 hvcurveto
          -16 -6 -81 -113 rlineto
          -16 vlineto
          422 -597 rmoveto
          -166 -6 rlineto
          -96 hlineto
          -2 56 1 38 rlineto
          90 hlineto
          116 -3 12 146 -11 14 -104 -3 rlineto
          -99 hlineto
          2 91 rlineto
          103 hlineto
          159 -6 rlineto
          hintmask 11011000
          13 146 rlineto
          hintmask 11101000
          -11 14 rlineto
          -464 hlineto
          10 -457 -10 -190 rlineto
          456 hlineto
          12 146 rlineto
          endchar
        </CharString>
        <CharString name="Euro">
          -107 -9 147 -118 -21 164 82 24 82 23 148 hstemhm
          -4 455 hintmask 01010100
          2 269 rmoveto
          359 hlineto
          5 75 -7 7 rlineto
          -94 hlineto
          hintmask 01011100
          16 11 18 7 25 hhcurveto
          27 38 -9 -12 26 hvcurveto
          11 8 30 144 rlineto
          10 -37 -42 7 -46 hhcurveto
          hintmask 10010100
          -134 -90 -62 -109 -33 hvcurveto
          -68 hlineto
          -5 -72 rlineto
          334 -141 rmoveto
          hintmask 01110100
          -27 -20 8 17 -13 hvcurveto
          91 hlineto
          5 73 -7 9 rlineto
          -358 hlineto
          -5 -74 6 -8 rlineto
          60 hlineto
          hintmask 10010100
          -113 26 84 -59 147 hhcurveto
          31 35 0 8 36 hvcurveto
          14 143 -14 9 rlineto
          -7 -26 -41 -6 -24 hhcurveto
          endchar
        </CharString>
        <CharString name="F">
          -73 21 -21 223 154 116 154 -14 14 hstemhm
          65 193.5 hintmask 11101000
          260 493 rmoveto
          70 hlineto
          160 -6 rlineto
          hintmask 11011000
          13 146 rlineto
          hintmask 11101000
          -11 14 rlineto
          -432 hlineto
          10 -457 -10 -190 rlineto
          201 hlineto
          -8 210 rlineto
          13 58 vlineto
          129 -3 12 146 -11 14 -116 -3 rlineto
          -68 hlineto
          endchar
        </CharString>
        <CharString name="G">
          42 -12 151 359 160 hstem
          17 210 161 177 vstem
          382 658 rmoveto
          -234 -131 -121 -227 -204 105 -118 212 73 79 14 30 79 hvcurveto
          177 vlineto
          3 88 -183 -13 3 -109 rlineto
          -32 vlineto
          -2 -11 -9 -2 -16 hhcurveto
          -97 -28 38 143 143 29 35 88 60 44 -16 -31 62 hvcurveto
          16 hlineto
          43 177 rlineto
          19 -50 -67 11 -70 hhcurveto
          endchar
        </CharString>
        <CharString name="Gbreve">
          42 -12 151 359 160 58 134 hstem
          17 210 161 177 vstem
          466 900 rmoveto
          -27 hlineto
          -32 -21 -39 -18 -47 hhcurveto
          -52 -41 18 32 -22 hvcurveto
          -27 hlineto
          -40 -60 rlineto
          -80 28 62 -44 85 hhcurveto
          87 64 44 80 30 hvcurveto
          -124 -182 rmoveto
          -234 -131 -121 -227 -204 105 -118 212 73 79 14 30 79 hvcurveto
          177 vlineto
          3 88 -183 -13 3 -109 rlineto
          -32 vlineto
          -2 -11 -9 -2 -16 hhcurveto
          -97 -28 38 143 143 29 35 88 60 44 -16 -31 62 hvcurveto
          16 hlineto
          43 177 rlineto
          19 -50 -67 11 -70 hhcurveto
          endchar
        </CharString>
        <CharString name="Gcircumflex">
          42 -12 151 359 160 hstem
          17 210 161 177 vstem
          192 721 rmoveto
          18 hlineto
          39 20 40 20 39 20 118 -60 rcurveline
          18 hlineto
          34 76 -57 39 -51 39 -45 41 rlinecurve
          -34 hlineto
          -45 -41 -51 -39 -57 -39 rrcurveto
          224 -139 rmoveto
          -234 -131 -121 -227 -204 105 -118 212 73 79 14 30 79 hvcurveto
          177 vlineto
          3 88 -183 -13 3 -109 rlineto
          -32 vlineto
          -2 -11 -9 -2 -16 hhcurveto
          -97 -28 38 143 143 29 35 88 60 44 -16 -31 62 hvcurveto
          16 hlineto
          43 177 rlineto
          19 -50 -67 11 -70 hhcurveto
          endchar
        </CharString>
        <CharString name="Gcommaaccent">
          42 -68 -21 77 151 359 160 hstemhm
          17 210 28 136 -3 177 hintmask 11110100
          382 658 rmoveto
          -234 -131 -121 -227 -204 105 -118 212 73 79 14 30 79 hvcurveto
          177 vlineto
          3 88 -183 -13 3 -109 rlineto
          -32 vlineto
          -2 -11 -9 -2 -16 hhcurveto
          -97 -28 38 143 143 29 35 88 60 44 -16 -31 62 hvcurveto
          16 hlineto
          43 177 rlineto
          19 -50 -67 11 -70 hhcurveto
          hintmask 11111000
          -32 -683 rmoveto
          -44 -11 -40 -17 -39 -22 rrcurveto
          -14 vlineto
          19 -19 9 -20 -25 vvcurveto
          -36 -16 -29 -32 -28 vhcurveto
          2 -12 52 -46 rlineto
          89 62 41 59 67 vvcurveto
          36 -13 28 -28 27 vhcurveto
          endchar
        </CharString>
        <CharString name="Gdieresis">
          42 -12 151 359 160 61 173 hstemhm
          17 210 -80 170 23 170 -122 177 hintmask 00000000
          hintmask 11101010
          236 892 rmoveto
          -55 -34 -34 -56 -53 29 -30 53 54 34 35 56 52 -30 30 -51 hvcurveto
          hintmask 11110100
          193 hmoveto
          -55 -34 -34 -56 -53 29 -30 53 54 34 35 56 52 -30 30 -51 hvcurveto
          -47 -234 rmoveto
          -234 -131 -121 -227 -204 105 -118 212 hvcurveto
          hintmask 11110010
          73 79 14 30 79 hvcurveto
          177 vlineto
          3 88 -183 -13 3 -109 rlineto
          -32 vlineto
          -2 -11 -9 -2 -16 hhcurveto
          -97 -28 38 143 143 29 35 88 60 44 -16 -31 62 hvcurveto
          16 hlineto
          43 177 rlineto
          hintmask 11110100
          19 -50 -67 11 -70 hhcurveto
          endchar
        </CharString>
        <CharString name="Gdotaccent">
          42 -12 151 359 160 46 199 hstemhm
          17 210 3 195 -37 177 hintmask 00000000
          hintmask 11101000
          332 903 rmoveto
          -63 -39 -40 -64 -61 33 -34 61 62 39 40 64 60 -34 35 -59 hvcurveto
          50 -245 rmoveto
          hintmask 11110100
          -234 -131 -121 -227 -204 105 -118 212 73 79 14 30 79 hvcurveto
          177 vlineto
          3 88 -183 -13 3 -109 rlineto
          -32 vlineto
          -2 -11 -9 -2 -16 hhcurveto
          -97 -28 38 143 143 29 35 88 60 44 -16 -31 62 hvcurveto
          16 hlineto
          43 177 rlineto
          hintmask 11101000
          19 -50 -67 11 -70 hhcurveto
          endchar
        </CharString>
        <CharString name="Germandbls">
          157 -12 149 -137 26 475 158 hstemhm
          51 190.5 265.5 199 hintmask 01110000
          361 659 rmoveto
          -207 -103 -101 -154 hvcurveto
          5 -214 -10 -190 rlineto
          201 hlineto
          -8 210 5 194 rlineto
          68 -1 26 29 73 hhcurveto
          27 19 -4 -8 24 hvcurveto
          -106 -157 5 -24 rlineto
          hintmask 10111000
          156 -86 40 -34 -26 vvcurveto
          -15 -12 -10 -22 -37 -55 27 48 -55 vhcurveto
          -20 -12 rlineto
          hintmask 01110000
          -29 -174 rlineto
          hintmask 10111000
          -24 56 67 -14 62 hhcurveto
          130 114 61 136 93 -53 32 -112 82 hvcurveto
          117 171 -8 23 rlineto
          hintmask 01110000
          48 -106 -80 25 -103 hhcurveto
          endchar
        </CharString>
        <CharString name="Gtilde">
          42 -12 151 359 160 hstem
          17 210 161 177 vstem
          523 861 rmoveto
          -57 55 rlineto
          -16 hlineto
          -29 -23 -20 -29 -26 hhcurveto
          -26 -75 27 7 -52 hvcurveto
          -16 -6 -81 -113 rlineto
          -16 vlineto
          57 -55 rlineto
          16 hlineto
          29 23 20 29 26 hhcurveto
          26 75 -27 -7 52 hvcurveto
          16 6 81 113 rlineto
          -141 -187 rmoveto
          -234 -131 -121 -227 -204 105 -118 212 73 79 14 30 79 hvcurveto
          177 vlineto
          3 88 -183 -13 3 -109 rlineto
          -32 vlineto
          -2 -11 -9 -2 -16 hhcurveto
          -97 -28 38 143 143 29 35 88 60 44 -16 -31 62 hvcurveto
          16 hlineto
          43 177 rlineto
          19 -50 -67 11 -70 hhcurveto
          endchar
        </CharString>
        <CharString name="H">
          157 21 -21 241 160 246 -20 hstemhm
          65 196 187.5 196 -193.5 192 hintmask 11111000
          639 210 rmoveto
          11 437 rlineto
          -204 hlineto
          5 -245 -92 -2 -101 2 6 245 rlineto
          -204 hlineto
          10 -457 -10 -190 rlineto
          201 hlineto
          -8 210 1 29 rlineto
          hintmask 11110100
          93 3 108 -2 1 -50 -10 -190 rlineto
          hintmask 11111000
          201 hlineto
          endchar
        </CharString>
        <CharString name="Hbar">
          190 21 -21 241 160 71 10 -10 101 -101 175 hstemhm
          74 202 -196 192 188 202 -198 192 hintmask 1100101010000000
          659 472 rmoveto
          hintmask 1100101100000000
          70 hlineto
          hintmask 1101001100000000
          5 91 -8 10 rlineto
          -65 hlineto
          hintmask 1100101100000000
          2 74 rlineto
          -204 hlineto
          hintmask 1101010100000000
          2 -74 rlineto
          -186 hlineto
          hintmask 1100110010000000
          2 74 rlineto
          -204 hlineto
          hintmask 1101010010000000
          2 -74 rlineto
          hintmask 1101001010000000
          -59 hlineto
          hintmask 1110001010000000
          -6 -91 8 -10 rlineto
          hintmask 1100101010000000
          59 hlineto
          6 -282 -10 -190 rlineto
          201 hlineto
          -8 210 1 29 93 3 108 -2 1 -50 -10 -190 rlineto
          201 hlineto
          -8 210 rlineto
          -189 262 rmoveto
          1 -70 -92 -2 -101 2 2 70 rlineto
          endchar
        </CharString>
        <CharString name="Hcircumflex">
          157 21 -21 241 160 246 -20 hstemhm
          65 196 187.5 196 -193.5 192 hintmask 11111000
          219 721 rmoveto
          18 hlineto
          39 20 40 20 39 20 118 -60 rcurveline
          18 hlineto
          34 76 -57 39 -51 39 -45 41 rlinecurve
          -34 hlineto
          -45 -41 -51 -39 -57 -39 rrcurveto
          454 -587 rmoveto
          11 437 rlineto
          -204 hlineto
          5 -245 -92 -2 -101 2 6 245 rlineto
          -204 hlineto
          10 -457 -10 -190 rlineto
          201 hlineto
          -8 210 1 29 rlineto
          hintmask 11110100
          93 3 108 -2 1 -50 -10 -190 rlineto
          hintmask 11111000
          201 hlineto
          endchar
        </CharString>
        <CharString name="I">
          -227 21 -21 647 -20 hstem
          65 193.5 vstem
          253 210 rmoveto
          11 437 rlineto
          -204 hlineto
          10 -457 -10 -190 rlineto
          201 hlineto
          endchar
        </CharString>
        <CharString name="I.ss01">
          -251 0 65 383 65 hstem
          58.5 177 vstem
          231 168 rmoveto
          9 280 rlineto
          163 65 -503 -65 155 hlineto
          7 -299 -5 -84 rlineto
          -157 -65 503 65 -167 hlineto
          endchar
        </CharString>
        <CharString name="IJ">
          135 21 -21 504.5 142.5 -131 131 hstemhm
          65 193.5 178.5 188.5 hintmask 11011000
          264 647 rmoveto
          -204 hlineto
          10 -457 -10 -190 rlineto
          201 hlineto
          -8 210 rlineto
          367 3 rmoveto
          11 434 rlineto
          -289 hlineto
          hintmask 10111000
          -8 -131 rlineto
          hintmask 11011000
          11 -13 85 3 7 -313 rlineto
          -63 vlineto
          -58 -23 -32 -69 -33 vhcurveto
          -16 vlineto
          52 -103 rlineto
          171 50 54 63 123 vvcurveto
          endchar
        </CharString>
        <CharString name="Iacute">
          -227 21 -21 647 -20 hstem
          65 193.5 vstem
          275 914 rmoveto
          -17 4 -71 -42 -71 -39 -83 -42 rlinecurve
          30 -79 17 -4 77 20 75 22 86 27 rlinecurve
          6 16 rlineto
          -71 -587 rmoveto
          11 437 rlineto
          -204 hlineto
          10 -457 -10 -190 rlineto
          201 hlineto
          endchar
        </CharString>
        <CharString name="Iacute_J.loclNLD">
          135 21 -21 504.5 142.5 -131 131 hstemhm
          65 193.5 178.5 188.5 hintmask 11011000
          275 914 rmoveto
          -17 4 -71 -42 -71 -39 -83 -42 rlinecurve
          30 -79 17 -4 77 20 75 22 86 27 rlinecurve
          6 16 rlineto
          329 hmoveto
          -49 117 -17 4 -71 -42 -71 -39 -83 -42 rlinecurve
          30 -79 17 -4 77 20 75 22 86 27 rlinecurve
          -383 -134 rmoveto
          -204 hlineto
          10 -457 -10 -190 rlineto
          201 hlineto
          -8 210 rlineto
          378 437 rmoveto
          -289 hlineto
          hintmask 10111000
          -8 -131 rlineto
          hintmask 11011000
          11 -13 85 3 7 -313 rlineto
          -63 vlineto
          -58 -23 -32 -69 -33 vhcurveto
          -16 vlineto
          52 -103 rlineto
          171 50 54 63 123 vvcurveto
          -2 89 rlineto
          endchar
        </CharString>
        <CharString name="Ibreve">
          -227 21 -21 647 -20 89 134 hstem
          65 193.5 vstem
          300 900 rmoveto
          -27 hlineto
          -32 -21 -39 -18 -47 hhcurveto
          -52 -41 18 32 -22 hvcurveto
          -27 hlineto
          -40 -60 rlineto
          -80 28 62 -44 85 hhcurveto
          87 64 44 80 30 hvcurveto
          -87 -630 rmoveto
          11 437 rlineto
          -204 hlineto
          10 -457 -10 -190 rlineto
          201 hlineto
          endchar
        </CharString>
        <CharString name="Icaron">
          -227 21 -21 647 -20 hstem
          65 193.5 vstem
          298 907 rmoveto
          -18 hlineto
          -39 -20 -40 -20 -39 -20 -118 60 rcurveline
          -18 hlineto
          -34 -76 57 -39 51 -39 45 -41 rlinecurve
          34 hlineto
          45 41 51 39 57 39 rrcurveto
          -79 -621 rmoveto
          11 437 rlineto
          -204 hlineto
          10 -457 -10 -190 rlineto
          201 hlineto
          endchar
        </CharString>
        <CharString name="Icircumflex">
          -227 21 -21 647 -20 hstem
          65 193.5 vstem
          26 721 rmoveto
          18 hlineto
          39 20 40 20 39 20 118 -60 rcurveline
          18 hlineto
          34 76 -57 39 -51 39 -45 41 rlinecurve
          -34 hlineto
          -45 -41 -51 -39 -57 -39 rrcurveto
          261 -587 rmoveto
          11 437 rlineto
          -204 hlineto
          10 -457 -10 -190 rlineto
          201 hlineto
          endchar
        </CharString>
        <CharString name="Idieresis">
          -227 21 -21 647 -20 92 173 hstemhm
          -14 170 -91 193.5 -89.5 170 hintmask 00000000
          hintmask 11110000
          75 892 rmoveto
          -55 -34 -34 -56 -53 29 -30 53 54 34 35 56 52 -30 30 -51 hvcurveto
          hintmask 11100100
          183 hmoveto
          -55 -34 -34 -56 -53 29 -30 53 54 34 35 56 52 -30 30 -51 hvcurveto
          hintmask 11101000
          -5 -682 rmoveto
          11 437 rlineto
          -204 hlineto
          10 -457 -10 -190 rlineto
          201 hlineto
          endchar
        </CharString>
        <CharString name="Idotaccent">
          -227 21 -21 647 -20 77 199 hstem
          65 193.5 vstem
          166 903 rmoveto
          -63 -39 -40 -64 -61 33 -34 61 62 39 40 64 60 -34 35 -59 hvcurveto
          87 -693 rmoveto
          11 437 rlineto
          -204 hlineto
          10 -457 -10 -190 rlineto
          201 hlineto
          endchar
        </CharString>
        <CharString name="Idotbelow">
          -227 -231 199 53 -21 647 -20 hstemhm
          58 195 -188 193.5 hintmask 11101000
          253 210 rmoveto
          11 437 rlineto
          -204 hlineto
          10 -457 -10 -190 rlineto
          201 hlineto
          hintmask 11110000
          -101 -32 rmoveto
          -63 -39 -40 -64 -61 33 -34 61 62 39 40 64 60 -34 35 -59 hvcurveto
          endchar
        </CharString>
        <CharString name="Igrave">
          -227 21 -21 647 -20 hstem
          65 193.5 vstem
          68 914 rmoveto
          -49 -117 6 -16 86 -27 75 -22 77 -20 rlinecurve
          17 4 30 79 -83 42 -71 39 -71 42 rlinecurve
          168 -708 rmoveto
          11 437 rlineto
          -204 hlineto
          10 -457 -10 -190 rlineto
          201 hlineto
          endchar
        </CharString>
        <CharString name="Ihookabove">
          -227 21 -21 647 -20 239 82 hstemhm
          65 193.5 -108.5 98 hintmask 00000000
          hintmask 11101000
          148 948 rmoveto
          -46 -47 -24 -37 -34 hvcurveto
          29 -47 rlineto
          16 21 28 10 21 hhcurveto
          17 13 -7 -17 -21 -20 -31 -34 -24 hvcurveto
          54 -80 64 39 -27 43 rlineto
          47 42 14 21 29 vvcurveto
          53 -44 35 -56 vhcurveto
          hintmask 11110000
          105 -738 rmoveto
          11 437 rlineto
          -204 hlineto
          10 -457 -10 -190 rlineto
          201 hlineto
          endchar
        </CharString>
        <CharString name="Imacron">
          -227 21 -21 647 -20 119 120 hstem
          65 193.5 vstem
          290 853 rmoveto
          -12 13 rlineto
          -236 hlineto
          -9 -107 12 -13 rlineto
          236 hlineto
          -28 -536 rmoveto
          11 437 rlineto
          -204 hlineto
          10 -457 -10 -190 rlineto
          201 hlineto
          endchar
        </CharString>
        <CharString name="Iogonek">
          -227 -197 98 -77 -21 218 -21 647 -20 hstemhm
          29 96 -60 193.5 hintmask 01110100
          261 hmoveto
          -8 210 11 437 rlineto
          -204 hlineto
          10 -457 -10 -190 rlineto
          hintmask 01111000
          -23 -38 -8 -29 -31 vvcurveto
          -56 39 -43 65 37 38 14 35 42 vhcurveto
          hintmask 10111000
          -12 73 rlineto
          -10 hlineto
          -17 -21 -29 -7 -18 hhcurveto
          -25 -10 14 17 16 6 21 20 31 hvcurveto
          endchar
        </CharString>
        <CharString name="Itilde">
          -227 21 -21 647 -20 hstem
          65 193.5 vstem
          333 858 rmoveto
          -56 55 rlineto
          -16 hlineto
          -28 -18 -17 -28 -25 hhcurveto
          -21 -57 25 7 -45 hvcurveto
          -15 -6 -72 -111 rlineto
          -16 vlineto
          56 -55 rlineto
          16 hlineto
          28 18 17 28 25 hhcurveto
          21 57 -25 -7 45 hvcurveto
          15 6 72 111 rlineto
          -80 -632 rmoveto
          11 437 rlineto
          -204 hlineto
          10 -457 -10 -190 rlineto
          201 hlineto
          endchar
        </CharString>
        <CharString name="J">
          -192 504.5 142.5 -131 131 hstemhm
          110 188.5 hintmask 10100000
          293 213 rmoveto
          11 434 rlineto
          -289 hlineto
          hintmask 01100000
          -8 -131 rlineto
          hintmask 10100000
          11 -13 85 3 7 -313 rlineto
          -63 vlineto
          -58 -23 -32 -69 -33 vhcurveto
          -16 vlineto
          52 -103 rlineto
          171 50 54 63 123 vvcurveto
          endchar
        </CharString>
        <CharString name="Jcircumflex">
          -192 504.5 142.5 -131 131 hstemhm
          110 188.5 hintmask 10100000
          28 721 rmoveto
          18 hlineto
          39 20 40 20 39 20 118 -60 rcurveline
          18 hlineto
          34 76 -57 39 -51 39 -45 41 rlinecurve
          -34 hlineto
          -45 -41 -51 -39 -57 -39 rrcurveto
          310 -150 rmoveto
          -289 hlineto
          hintmask 01100000
          -8 -131 rlineto
          hintmask 10100000
          11 -13 85 3 7 -313 rlineto
          -63 vlineto
          -58 -23 -32 -69 -33 vhcurveto
          -16 vlineto
          52 -103 rlineto
          171 50 54 63 123 vvcurveto
          -2 89 rlineto
          endchar
        </CharString>
        <CharString name="K">
          74 9 -21 33 -21 647 -20 hstemhm
          65 195.5 hintmask 01110000
          627 647 rmoveto
          -212 hlineto
          -34 -70 -124 -200 7 270 rlineto
          -204 hlineto
          10 -457 -10 -190 rlineto
          201 hlineto
          -8 210 2 87 rlineto
          hintmask 10110000
          54 -101 56 -98 57 -98 22 -12 rcurveline
          67 6 66 11 67 15 3 22 rcurveline
          -74 97 -71 100 -65 102 rrcurveto
          endchar
        </CharString>
        <CharString name="Kcommaaccent">
          74 -68 -21 98 -21 33 -21 647 -20 hstemhm
          65 195.5 10.5 136 hintmask 10111000
          627 647 rmoveto
          -212 hlineto
          -34 -70 -124 -200 7 270 rlineto
          -204 hlineto
          10 -457 -10 -190 rlineto
          201 hlineto
          -8 210 2 87 rlineto
          hintmask 11011100
          54 -101 56 -98 57 -98 22 -12 rcurveline
          67 6 66 11 67 15 3 22 rcurveline
          -74 97 -71 100 -65 102 rrcurveto
          -71 -366 rmoveto
          -44 -11 -40 -17 -39 -22 rrcurveto
          -14 vlineto
          19 -19 9 -20 -25 vvcurveto
          -36 -16 -29 -32 -28 vhcurveto
          2 -12 52 -46 rlineto
          89 62 41 59 67 vvcurveto
          36 -13 28 -28 27 vhcurveto
          endchar
        </CharString>
        <CharString name="L">
          -102 0 164 -14 14 483 -20 hstemhm
          60 193.5 hintmask 00000000
          hintmask 01110000
          452 150 rmoveto
          hintmask 10110000
          -11 14 rlineto
          -191 hlineto
          -2 46 11 437 rlineto
          -204 hlineto
          10 -457 -10 -190 rlineto
          385 hlineto
          endchar
        </CharString>
        <CharString name="L.ss01">
          -122 0 65 76 12 295 65 hstem
          56.5 174 vstem
          235 448 rmoveto
          297 65 -632 -65 153 hlineto
          7 -297 -5 -86 rlineto
          -155 -65 632 65 -149 hlineto
          6 76 -10 12 rlineto
          -152 hlineto
          -1 17 rlineto
          endchar
        </CharString>
        <CharString name="Lacute">
          -102 0 164 -14 14 483 -20 hstemhm
          60 193.5 hintmask 10110000
          123 716 rmoveto
          17 -4 77 20 75 22 86 27 rlinecurve
          6 16 -49 117 -17 4 -71 -42 -71 -39 -83 -42 rlinecurve
          hintmask 01110000
          359 -645 rmoveto
          hintmask 10110000
          -11 14 rlineto
          -191 hlineto
          -2 46 11 437 rlineto
          -204 hlineto
          10 -457 -10 -190 rlineto
          385 hlineto
          endchar
        </CharString>
        <CharString name="Lcaron">
          -33 0 164 -14 14 426 -20 23 -20 74 -20 hstemhm
          60 193.5 hintmask 10011100
          441 164 rmoveto
          -191 hlineto
          -2 46 11 437 rlineto
          -204 hlineto
          10 -457 -10 -190 rlineto
          385 hlineto
          hintmask 01101100
          12 150 rlineto
          47 440 rmoveto
          -10 11 rlineto
          hintmask 10011100
          -139 -8 10 -238 13 -10 82 13 rlineto
          endchar
        </CharString>
        <CharString name="Lcommaaccent">
          -102 -68 -21 89 164 -14 14 483 -20 hstemhm
          60 193.5 -64.5 136 hintmask 00000000
          hintmask 10111000
          452 150 rmoveto
          hintmask 11011000
          -11 14 rlineto
          -191 hlineto
          -2 46 11 437 rlineto
          -204 hlineto
          10 -457 -10 -190 rlineto
          385 hlineto
          hintmask 11010100
          -156 -25 rmoveto
          -44 -11 -40 -17 -39 -22 rrcurveto
          -14 vlineto
          19 -19 9 -20 -25 vvcurveto
          -36 -16 -29 -32 -28 vhcurveto
          2 -12 52 -46 rlineto
          89 62 41 59 67 vvcurveto
          36 -13 28 -28 27 vhcurveto
          endchar
        </CharString>
        <CharString name="Ldot">
          -51 0 164 -14 14 138 199 146 -20 hstemhm
          60 193.5 45.5 195 hintmask 10111000
          441 164 rmoveto
          -191 hlineto
          -2 46 11 437 rlineto
          -204 hlineto
          10 -457 -10 -190 rlineto
          385 hlineto
          hintmask 01111100
          12 150 rlineto
          -51 351 rmoveto
          -63 -39 -40 -64 -61 33 -34 61 62 39 40 64 60 -34 35 -59 hvcurveto
          endchar
        </CharString>
        <CharString name="Lslash">
          -82 0 164 -14 14 316 -20 187 -20 hstemhm
          78.5 198 -191.5 184 hintmask 00000000
          hintmask 01110100
          472 150 rmoveto
          hintmask 10110100
          -11 14 rlineto
          -191 hlineto
          -2 46 2 84 124 63 rlineto
          hintmask 10111000
          -36 114 -17 9 -67 -34 5 201 rlineto
          -204 hlineto
          7 -298 rlineto
          hintmask 10110100
          -96 -48 35 -115 17 -9 47 24 rlineto
          -11 vlineto
          -10 -190 rlineto
          385 hlineto
          endchar
        </CharString>
        <CharString name="M">
          252 21 -21 359 288 0 -20 hstemhm
          26 748 hintmask 10110000
          774 hmoveto
          -52 647 rlineto
          -228 hlineto
          -23 -99 -63 -228 rlineto
          -12 hlineto
          -57 235 -19 92 rlineto
          -231 hlineto
          -63 -647 rlineto
          167 hlineto
          10 215 rlineto
          hintmask 11010000
          14 144 rlineto
          12 hlineto
          86 -298 rlineto
          151 hlineto
          104 298 rlineto
          12 hlineto
          11 -163 5 -196 rlineto
          endchar
        </CharString>
        <CharString name="M.ss01">
          137 0 65 383 65 hstemhm
          -100 294 -294 891 -307.5 307.5 hintmask 11010000
          603 448 rmoveto
          188 65 -891 -65 187 hlineto
          -39 -383 rlineto
          hintmask 11101000
          -148 -65 891 65 -156 hlineto
          -246 383 rmoveto
          -6 -21 -35 -109 rlineto
          -10 hlineto
          -30 115 -3 15 rlineto
          179 -383 rmoveto
          -292 hlineto
          4 127 5 66 rlineto
          10 hlineto
          56 -165 rlineto
          132 hlineto
          71 165 rlineto
          9 hlineto
          4 -80 rlineto
          endchar
        </CharString>
        <CharString name="N">
          156 21 -21 647 -20 24 -20 hstemhm
          65 169.5 234.5 175.5 hintmask 10111000
          639 211 rmoveto
          11 440 -184 -11 6 -339 rlineto
          -12 hlineto
          hintmask 11011000
          -182 346 rlineto
          -218 hlineto
          10 -457 -10 -190 rlineto
          182 hlineto
          -8 234 1 112 rlineto
          12 hlineto
          182 -346 rlineto
          218 hlineto
          endchar
        </CharString>
        <CharString name="Nacute">
          156 21 -21 647 -20 24 -20 hstemhm
          65 169.5 234.5 175.5 hintmask 10111000
          468 914 rmoveto
          -17 4 -71 -42 -71 -39 -83 -42 rlinecurve
          30 -79 17 -4 77 20 75 22 86 27 rlinecurve
          6 16 rlineto
          122 -586 rmoveto
          11 440 -184 -11 6 -339 rlineto
          -12 hlineto
          hintmask 11011000
          -182 346 rlineto
          -218 hlineto
          10 -457 -10 -190 rlineto
          182 hlineto
          -8 234 1 112 rlineto
          12 hlineto
          182 -346 rlineto
          218 hlineto
          endchar
        </CharString>
        <CharString name="Ncaron">
          156 21 -21 647 -20 24 -20 hstemhm
          65 169.5 234.5 175.5 hintmask 10111000
          491 907 rmoveto
          -18 hlineto
          -39 -20 -40 -20 -39 -20 -118 60 rcurveline
          -18 hlineto
          -34 -76 57 -39 51 -39 45 -41 rlinecurve
          34 hlineto
          45 41 51 39 57 39 rrcurveto
          114 -620 rmoveto
          11 440 -184 -11 6 -339 rlineto
          -12 hlineto
          hintmask 11011000
          -182 346 rlineto
          -218 hlineto
          10 -457 -10 -190 rlineto
          182 hlineto
          -8 234 1 112 rlineto
          12 hlineto
          182 -346 rlineto
          218 hlineto
          endchar
        </CharString>
        <CharString name="Ncommaaccent">
          156 -68 -21 110 -21 647 -20 24 -20 hstemhm
          65 169.5 77.5 136 21 175.5 hintmask 11011010
          639 211 rmoveto
          11 440 -184 -11 6 -339 rlineto
          -12 hlineto
          hintmask 11101010
          -182 346 rlineto
          -218 hlineto
          10 -457 -10 -190 rlineto
          182 hlineto
          -8 234 1 112 rlineto
          12 hlineto
          182 -346 rlineto
          218 hlineto
          hintmask 11011110
          -240 -25 rmoveto
          -44 -11 -40 -17 -39 -22 rrcurveto
          -14 vlineto
          19 -19 9 -20 -25 vvcurveto
          -36 -16 -29 -32 -28 vhcurveto
          2 -12 52 -46 rlineto
          89 62 41 59 67 vvcurveto
          36 -13 28 -28 27 vhcurveto
          endchar
        </CharString>
        <CharString name="Ntilde">
          156 21 -21 647 -20 24 -20 hstemhm
          65 169.5 234.5 175.5 hintmask 10111000
          550 861 rmoveto
          -57 55 rlineto
          -16 hlineto
          -29 -23 -20 -29 -26 hhcurveto
          -26 -75 27 7 -52 hvcurveto
          -16 -6 -81 -113 rlineto
          -16 vlineto
          57 -55 rlineto
          16 hlineto
          29 23 20 29 26 hhcurveto
          26 75 -27 -7 52 hvcurveto
          16 6 81 113 rlineto
          89 -634 rmoveto
          11 440 -184 -11 6 -339 rlineto
          -12 hlineto
          hintmask 11011000
          -182 346 rlineto
          -218 hlineto
          10 -457 -10 -190 rlineto
          182 hlineto
          -8 234 1 112 rlineto
          12 hlineto
          182 -346 rlineto
          218 hlineto
          endchar
        </CharString>
        <CharString name="O">
          99 -12 148 363 160 hstem
          17 210 199 210 vstem
          341 659 rmoveto
          -206 -118 -126 -221 -206 107 -118 188 206 118 128 224 203 -107 116 -188 hvcurveto
          -18 -160 rmoveto
          81 22 -41 -161 -128 -21 -33 -75 -81 -22 41 162 127 21 33 75 hvcurveto
          endchar
        </CharString>
        <CharString name="OE">
          335 -12 148 -136 154 94 154 91 154 -148 160 -26 14 hstemhm
          17 210 187.5 186.5 hintmask 00000000
          hintmask 10101011
          348 659 rmoveto
          -207 -124 -126 -220 -207 111 -118 194 hvcurveto
          hintmask 01110011
          84 80 15 -3 64 hvcurveto
          314 hlineto
          12 146 -11 14 -166 -6 rlineto
          -96 hlineto
          -2 56 rlineto
          38 91 vlineto
          116 -3 12 146 -11 14 -104 -3 rlineto
          -99 hlineto
          2 91 rlineto
          103 hlineto
          159 -6 rlineto
          hintmask 01100111
          13 146 rlineto
          hintmask 01110011
          -11 14 rlineto
          -322 hlineto
          hintmask 10101011
          -59 -64 12 -79 hhcurveto
          -17 -160 rmoveto
          39 21 -5 -11 10 hvcurveto
          7 -8 3 -15 1 -26 5 -229 rcurveline
          1 -28 -4 -17 -9 -9 rrcurveto
          -10 -10 -21 -5 -36 hhcurveto
          -85 -26 51 143 129 21 40 83 hvcurveto
          endchar
        </CharString>
        <CharString name="Oacute">
          99 -12 148 363 160 hstem
          17 210 199 210 vstem
          440 914 rmoveto
          -17 4 -71 -42 -71 -39 -83 -42 rlinecurve
          30 -79 17 -4 77 20 75 22 86 27 rlinecurve
          6 16 rlineto
          -148 -138 rmoveto
          -206 -118 -126 -221 -206 107 -118 188 206 118 128 224 203 -107 116 -188 hvcurveto
          -18 -160 rmoveto
          81 22 -41 -161 -128 -21 -33 -75 -81 -22 41 162 127 21 33 75 hvcurveto
          endchar
        </CharString>
        <CharString name="Obreve">
          99 -12 148 363 160 57 134 hstem
          17 210 199 210 vstem
          465 900 rmoveto
          -27 hlineto
          -32 -21 -39 -18 -47 hhcurveto
          -52 -41 18 32 -22 hvcurveto
          -27 hlineto
          -40 -60 rlineto
          -80 28 62 -44 85 hhcurveto
          87 64 44 80 30 hvcurveto
          -164 -181 rmoveto
          -206 -118 -126 -221 -206 107 -118 188 206 118 128 224 203 -107 116 -188 hvcurveto
          -18 -160 rmoveto
          81 22 -41 -161 -128 -21 -33 -75 -81 -22 41 162 127 21 33 75 hvcurveto
          endchar
        </CharString>
        <CharString name="Ocaron">
          99 -12 148 363 160 hstem
          17 210 199 210 vstem
          463 907 rmoveto
          -18 hlineto
          -39 -20 -40 -20 -39 -20 -118 60 rcurveline
          -18 hlineto
          -34 -76 57 -39 51 -39 45 -41 rlinecurve
          34 hlineto
          45 41 51 39 57 39 rrcurveto
          -156 -172 rmoveto
          -206 -118 -126 -221 -206 107 -118 188 206 118 128 224 203 -107 116 -188 hvcurveto
          -18 -160 rmoveto
          81 22 -41 -161 -128 -21 -33 -75 -81 -22 41 162 127 21 33 75 hvcurveto
          endchar
        </CharString>
        <CharString name="Ocircumflex">
          99 -12 148 363 160 hstem
          17 210 199 210 vstem
          191 721 rmoveto
          18 hlineto
          39 20 40 20 39 20 118 -60 rcurveline
          18 hlineto
          34 76 -57 39 -51 39 -45 41 rlinecurve
          -34 hlineto
          -45 -41 -51 -39 -57 -39 rrcurveto
          184 -138 rmoveto
          -206 -118 -126 -221 -206 107 -118 188 206 118 128 224 203 -107 116 -188 hvcurveto
          -18 -160 rmoveto
          81 22 -41 -161 -128 -21 -33 -75 -81 -22 41 162 127 21 33 75 hvcurveto
          endchar
        </CharString>
        <CharString name="Ocircumflexacute">
          99 -12 148 363 160 hstem
          17 210 199 210 vstem
          565 1011 rmoveto
          -98 41 -12 -7 -70 -149 64 -47 rlineto
          11 hlineto
          110 149 rlineto
          -380 -297 rmoveto
          18 hlineto
          39 20 40 20 39 20 118 -60 rcurveline
          18 hlineto
          34 76 -57 39 -51 39 -45 41 rlinecurve
          -34 hlineto
          -45 -41 -51 -39 -57 -39 rrcurveto
          185 -118 rmoveto
          -206 -118 -126 -221 -206 107 -118 188 206 118 128 224 203 -107 116 -188 hvcurveto
          -18 -160 rmoveto
          81 22 -41 -161 -128 -21 -33 -75 -81 -22 41 162 127 21 33 75 hvcurveto
          endchar
        </CharString>
        <CharString name="Ocircumflexdotbelow">
          99 -231 199 20 148 363 160 hstemhm
          17 210 7 195 -3 210 hintmask 01110100
          191 721 rmoveto
          18 hlineto
          39 20 40 20 39 20 118 -60 rcurveline
          18 hlineto
          34 76 -57 39 -51 39 -45 41 rlinecurve
          -34 hlineto
          -45 -41 -51 -39 -57 -39 rrcurveto
          184 -138 rmoveto
          -206 -118 -126 -221 -206 107 -118 188 206 118 128 224 203 -107 116 -188 hvcurveto
          -18 -160 rmoveto
          81 22 -41 -161 -128 -21 -33 -75 -81 -22 41 162 127 21 33 75 hvcurveto
          hintmask 11101000
          13 -531 rmoveto
          -63 -39 -40 -64 -61 33 -34 61 62 39 40 64 60 -34 35 -59 hvcurveto
          endchar
        </CharString>
        <CharString name="Ocircumflexgrave">
          99 -12 148 363 160 hstem
          17 210 199 210 vstem
          447 1045 rmoveto
          -12 7 -98 -41 -5 -13 110 -149 rlineto
          11 hlineto
          64 47 rlineto
          -327 -195 rmoveto
          18 hlineto
          39 20 40 20 39 20 118 -60 rcurveline
          18 hlineto
          34 76 -57 39 -51 39 -45 41 rlinecurve
          -34 hlineto
          -45 -41 -51 -39 -57 -39 rrcurveto
          185 -118 rmoveto
          -206 -118 -126 -221 -206 107 -118 188 206 118 128 224 203 -107 116 -188 hvcurveto
          -18 -160 rmoveto
          81 22 -41 -161 -128 -21 -33 -75 -81 -22 41 162 127 21 33 75 hvcurveto
          endchar
        </CharString>
        <CharString name="Ocircumflexhookabove">
          99 -12 148 363 160 364 78 hstemhm
          17 210 199 210 -196 94 hintmask 00000000
          hintmask 11110100
          438 1101 rmoveto
          -43 -45 -23 -35 -33 hvcurveto
          28 -45 rlineto
          15 20 27 10 20 hhcurveto
          16 12 -7 -16 -20 -19 -30 -32 -22 hvcurveto
          51 -77 61 38 -26 41 rlineto
          45 40 14 20 27 vvcurveto
          51 -42 33 -54 vhcurveto
          -248 -400 rmoveto
          18 hlineto
          39 20 40 20 39 20 118 -60 rcurveline
          18 hlineto
          34 76 -57 39 -51 39 -45 41 rlinecurve
          -34 hlineto
          -45 -41 -51 -39 -57 -39 rrcurveto
          hintmask 11111000
          185 -118 rmoveto
          -206 -118 -126 -221 -206 107 -118 188 206 118 128 224 203 -107 116 -188 hvcurveto
          -18 -160 rmoveto
          81 22 -41 -161 -128 -21 -33 -75 -81 -22 41 162 127 21 33 75 hvcurveto
          endchar
        </CharString>
        <CharString name="Ocircumflextilde">
          99 -12 148 363 160 hstem
          17 210 199 210 vstem
          509 1034 rmoveto
          -52 50 rlineto
          -15 hlineto
          -27 -21 -18 -26 -23 hhcurveto
          -24 -68 24 7 -48 hvcurveto
          -14 -6 -74 -102 rlineto
          -15 vlineto
          52 -50 rlineto
          15 hlineto
          26 21 18 27 23 hhcurveto
          24 68 -25 -6 47 hvcurveto
          15 5 74 103 rlineto
          -319 -318 rmoveto
          18 hlineto
          39 20 40 20 39 20 118 -60 rcurveline
          18 hlineto
          34 76 -57 39 -51 39 -45 41 rlinecurve
          -34 hlineto
          -45 -41 -51 -39 -57 -39 rrcurveto
          185 -118 rmoveto
          -206 -118 -126 -221 -206 107 -118 188 206 118 128 224 203 -107 116 -188 hvcurveto
          -18 -160 rmoveto
          81 22 -41 -161 -128 -21 -33 -75 -81 -22 41 162 127 21 33 75 hvcurveto
          endchar
        </CharString>
        <CharString name="Odieresis">
          99 -12 148 363 160 60 173 hstemhm
          17 210 -81 170 23 170 -83 210 hintmask 00000000
          hintmask 11101010
          235 892 rmoveto
          -55 -34 -34 -56 -53 29 -30 53 54 34 35 56 52 -30 30 -51 hvcurveto
          hintmask 11110100
          193 hmoveto
          -55 -34 -34 -56 -53 29 -30 53 54 34 35 56 52 -30 30 -51 hvcurveto
          hintmask 11110010
          -87 -233 rmoveto
          -206 -118 -126 -221 -206 107 -118 188 206 118 128 224 203 -107 116 -188 hvcurveto
          -18 -160 rmoveto
          81 22 -41 -161 -128 -21 -33 -75 -81 -22 41 162 127 21 33 75 hvcurveto
          endchar
        </CharString>
        <CharString name="Odotbelow">
          99 -231 199 20 148 363 160 hstemhm
          17 210 7 195 -3 210 hintmask 01110100
          341 659 rmoveto
          -206 -118 -126 -221 -206 107 -118 188 206 118 128 224 203 -107 116 -188 hvcurveto
          -18 -160 rmoveto
          81 22 -41 -161 -128 -21 -33 -75 -81 -22 41 162 127 21 33 75 hvcurveto
          hintmask 11101000
          13 -531 rmoveto
          -63 -39 -40 -64 -61 33 -34 61 62 39 40 64 60 -34 35 -59 hvcurveto
          endchar
        </CharString>
        <CharString name="Ograve">
          99 -12 148 363 160 hstem
          17 210 199 210 vstem
          234 914 rmoveto
          -49 -117 6 -16 86 -27 75 -22 77 -20 rlinecurve
          17 4 30 79 -83 42 -71 39 -71 42 rlinecurve
          90 -259 rmoveto
          -206 -118 -126 -221 -206 107 -118 188 206 118 128 224 203 -107 116 -188 hvcurveto
          -18 -160 rmoveto
          81 22 -41 -161 -128 -21 -33 -75 -81 -22 41 162 127 21 33 75 hvcurveto
          endchar
        </CharString>
        <CharString name="Ohm">
          211 0 148 -148 151 -138 -21 23 -21 24 -21 502 160 hstemhm
          72 210 70 9 120 210 hintmask 1000011110000000
          388 659 rmoveto
          -202 -114 -111 -170 hvcurveto
          hintmask 0100011110000000
          -75 22 -67 65 -83 vhcurveto
          -3 -5 rlineto
          hintmask 1000011110000000
          -26 -1 rlineto
          hintmask 0100011110000000
          -98 8 rlineto
          hintmask 0001011110000000
          -22 -149 10 -12 rlineto
          hintmask 1000011110000000
          110 6 rlineto
          186 hlineto
          hintmask 0000111110000000
          36 -3 9 7 rlineto
          108 vlineto
          -55 72 -24 65 104 vvcurveto
          107 25 39 71 75 28 -43 -113 -99 -21 -62 -58 -70 vhcurveto
          -108 vlineto
          9 -7 rlineto
          hintmask 1000011110000000
          36 3 rlineto
          152 hlineto
          hintmask 0010011110000000
          134 -8 rlineto
          hintmask 1000011110000000
          22 154 -10 12 -87 -10 rlineto
          -51 hlineto
          -3 5 rlineto
          61 82 26 72 82 vvcurveto
          166 -107 104 -196 vhcurveto
          endchar
        </CharString>
        <CharString name="Ohookabove">
          99 -12 148 363 160 207 82 hstemhm
          17 210 88 98 13 210 hintmask 00000000
          hintmask 11111100
          313 948 rmoveto
          -46 -47 -24 -37 -34 hvcurveto
          29 -47 rlineto
          16 21 28 10 21 hhcurveto
          17 13 -7 -17 -21 -20 -31 -34 -24 hvcurveto
          54 -80 64 39 -27 43 rlineto
          47 42 14 21 29 vvcurveto
          53 -44 35 -56 vhcurveto
          hintmask 11110100
          28 -289 rmoveto
          -206 -118 -126 -221 -206 107 -118 188 206 118 128 224 203 -107 116 -188 hvcurveto
          -18 -160 rmoveto
          81 22 -41 -161 -128 -21 -33 -75 -81 -22 41 162 127 21 33 75 hvcurveto
          endchar
        </CharString>
        <CharString name="Ohorn">
          107 -12 148 363 160 hstemhm
          17 210 199 210 -91 151 hintmask 00000000
          hintmask 11101000
          612 789 rmoveto
          -33 -35 -19 -18 -25 hvcurveto
          -3 -14 rlineto
          18 -16 11 -23 -23 vvcurveto
          -28 -15 -17 -31 vhcurveto
          -40 -52 28 -85 hhcurveto
          -180 -125 -126 -222 -204 106 -119 192 hvcurveto
          hintmask 11110000
          203 118 132 216 86 -19 69 -38 55 hvcurveto
          hintmask 11101000
          66 16 51 52 72 vvcurveto
          60 -35 43 -49 vhcurveto
          -291 -290 rmoveto
          hintmask 11110000
          82 23 -41 -150 -140 -20 -32 -73 -83 -23 42 150 hvcurveto
          hintmask 11101000
          137 19 34 75 vhcurveto
          endchar
        </CharString>
        <CharString name="Ohornacute">
          107 -12 148 363 160 hstemhm
          17 210 199 210 -91 151 hintmask 11110000
          440 914 rmoveto
          -17 4 -71 -42 -71 -39 -83 -42 rlinecurve
          30 -79 17 -4 77 20 75 22 86 27 rlinecurve
          6 16 rlineto
          hintmask 11101000
          123 -8 rmoveto
          -33 -35 -19 -18 -25 hvcurveto
          -3 -14 rlineto
          18 -16 11 -23 -23 vvcurveto
          -28 -15 -17 -31 vhcurveto
          -40 -52 28 -85 hhcurveto
          -180 -125 -126 -222 -204 106 -119 192 hvcurveto
          hintmask 11110000
          203 118 132 216 86 -19 69 -38 55 hvcurveto
          hintmask 11101000
          66 16 51 52 72 vvcurveto
          60 -35 43 -49 vhcurveto
          -291 -290 rmoveto
          hintmask 11110000
          82 23 -41 -150 -140 -20 -32 -73 -83 -23 42 150 hvcurveto
          hintmask 11101000
          137 19 34 75 vhcurveto
          endchar
        </CharString>
        <CharString name="Ohorndotbelow">
          107 -231 199 20 148 363 160 hstemhm
          17 210 7 195 -3 210 -91 151 hintmask 00000000
          hintmask 01110010
          612 789 rmoveto
          -33 -35 -19 -18 -25 hvcurveto
          -3 -14 rlineto
          18 -16 11 -23 -23 vvcurveto
          -28 -15 -17 -31 vhcurveto
          -40 -52 28 -85 hhcurveto
          -180 -125 -126 -222 -204 106 -119 192 hvcurveto
          hintmask 01110100
          203 118 132 216 86 -19 69 -38 55 hvcurveto
          hintmask 01110010
          66 16 51 52 72 vvcurveto
          60 -35 43 -49 vhcurveto
          -291 -290 rmoveto
          hintmask 01110100
          82 23 -41 -150 -140 -20 -32 -73 -83 -23 42 150 hvcurveto
          hintmask 01110010
          137 19 34 75 vhcurveto
          hintmask 11101000
          15 -531 rmoveto
          -63 -39 -40 -64 -61 33 -34 61 62 39 40 64 60 -34 35 -59 hvcurveto
          endchar
        </CharString>
        <CharString name="Ohorngrave">
          107 -12 148 363 160 hstemhm
          17 210 199 210 -91 151 hintmask 11110000
          234 914 rmoveto
          -49 -117 6 -16 86 -27 75 -22 77 -20 rlinecurve
          17 4 30 79 -83 42 -71 39 -71 42 rlinecurve
          hintmask 11101000
          361 -129 rmoveto
          -33 -35 -19 -18 -25 hvcurveto
          -3 -14 rlineto
          18 -16 11 -23 -23 vvcurveto
          -28 -15 -17 -31 vhcurveto
          -40 -52 28 -85 hhcurveto
          -180 -125 -126 -222 -204 106 -119 192 hvcurveto
          hintmask 11110000
          203 118 132 216 86 -19 69 -38 55 hvcurveto
          hintmask 11101000
          66 16 51 52 72 vvcurveto
          60 -35 43 -49 vhcurveto
          -291 -290 rmoveto
          hintmask 11110000
          82 23 -41 -150 -140 -20 -32 -73 -83 -23 42 150 hvcurveto
          hintmask 11101000
          137 19 34 75 vhcurveto
          endchar
        </CharString>
        <CharString name="Ohornhookabove">
          107 -12 148 363 160 207 82 hstemhm
          17 210 88 98 13 210 -91 151 hintmask 00000000
          hintmask 11111010
          313 948 rmoveto
          -46 -47 -24 -37 -34 hvcurveto
          29 -47 rlineto
          16 21 28 10 21 hhcurveto
          17 13 -7 -17 -21 -20 -31 -34 -24 hvcurveto
          54 -80 64 39 -27 43 rlineto
          47 42 14 21 29 vvcurveto
          53 -44 35 -56 vhcurveto
          299 -159 rmoveto
          -33 -35 -19 -18 -25 hvcurveto
          -3 -14 rlineto
          18 -16 11 -23 -23 vvcurveto
          -28 -15 -17 -31 vhcurveto
          -40 -52 28 -85 hhcurveto
          -180 -125 -126 -222 -204 106 -119 192 hvcurveto
          hintmask 11110100
          203 118 132 216 86 -19 69 -38 55 hvcurveto
          hintmask 11110010
          66 16 51 52 72 vvcurveto
          hintmask 11111010
          60 -35 43 -49 vhcurveto
          -291 -290 rmoveto
          hintmask 11110100
          82 23 -41 -150 -140 -20 -32 -73 -83 -23 42 150 hvcurveto
          hintmask 11111010
          137 19 34 75 vhcurveto
          endchar
        </CharString>
        <CharString name="Ohorntilde">
          107 -12 148 363 160 hstemhm
          17 210 199 210 -91 151 hintmask 11110000
          522 861 rmoveto
          -57 55 rlineto
          -16 hlineto
          -29 -23 -20 -29 -26 hhcurveto
          -26 -75 27 7 -52 hvcurveto
          -16 -6 -81 -113 rlineto
          -16 vlineto
          57 -55 rlineto
          16 hlineto
          29 23 20 29 26 hhcurveto
          26 75 -27 -7 52 hvcurveto
          16 6 81 113 rlineto
          hintmask 11101000
          90 -56 rmoveto
          -33 -35 -19 -18 -25 hvcurveto
          -3 -14 rlineto
          18 -16 11 -23 -23 vvcurveto
          -28 -15 -17 -31 vhcurveto
          -40 -52 28 -85 hhcurveto
          -180 -125 -126 -222 -204 106 -119 192 hvcurveto
          hintmask 11110000
          203 118 132 216 86 -19 69 -38 55 hvcurveto
          hintmask 11101000
          66 16 51 52 72 vvcurveto
          60 -35 43 -49 vhcurveto
          -291 -290 rmoveto
          hintmask 11110000
          82 23 -41 -150 -140 -20 -32 -73 -83 -23 42 150 hvcurveto
          hintmask 11101000
          137 19 34 75 vhcurveto
          endchar
        </CharString>
        <CharString name="Ohungarumlaut">
          99 -12 148 363 160 hstem
          17 210 199 210 vstem
          220 711 rmoveto
          16 5 45 39 44 41 42 42 rlinecurve
          -3 14 -90 58 -14 -4 -31 -51 -34 -49 -34 -49 rlinecurve
          228 -46 rmoveto
          15 5 45 39 44 41 43 42 rlinecurve
          -3 14 -91 58 -13 -4 -32 -51 -34 -49 -33 -49 rlinecurve
          11 -98 rmoveto
          -206 -118 -126 -221 -206 107 -118 188 206 118 128 224 203 -107 116 -188 hvcurveto
          -18 -160 rmoveto
          81 22 -41 -161 -128 -21 -33 -75 -81 -22 41 162 127 21 33 75 hvcurveto
          endchar
        </CharString>
        <CharString name="Omacron">
          99 -12 148 363 160 87 120 hstem
          17 210 199 210 vstem
          476 853 rmoveto
          -12 13 rlineto
          -276 hlineto
          -9 -107 12 -13 rlineto
          276 hlineto
          -126 -87 rmoveto
          -206 -118 -126 -221 -206 107 -118 188 206 118 128 224 203 -107 116 -188 hvcurveto
          -18 -160 rmoveto
          81 22 -41 -161 -128 -21 -33 -75 -81 -22 41 162 127 21 33 75 hvcurveto
          endchar
        </CharString>
        <CharString name="Omega">
          211 0 148 -148 151 -138 -21 23 -21 24 -21 502 160 hstemhm
          72 210 70 9 120 210 hintmask 1000011110000000
          388 659 rmoveto
          -202 -114 -111 -170 hvcurveto
          hintmask 0100011110000000
          -75 22 -67 65 -83 vhcurveto
          -3 -5 rlineto
          hintmask 1000011110000000
          -26 -1 rlineto
          hintmask 0100011110000000
          -98 8 rlineto
          hintmask 0001011110000000
          -22 -149 10 -12 rlineto
          hintmask 1000011110000000
          110 6 rlineto
          186 hlineto
          hintmask 0000111110000000
          36 -3 9 7 rlineto
          108 vlineto
          -55 72 -24 65 104 vvcurveto
          107 25 39 71 75 28 -43 -113 -99 -21 -62 -58 -70 vhcurveto
          -108 vlineto
          9 -7 rlineto
          hintmask 1000011110000000
          36 3 rlineto
          152 hlineto
          hintmask 0010011110000000
          134 -8 rlineto
          hintmask 1000011110000000
          22 154 -10 12 -87 -10 rlineto
          -51 hlineto
          -3 5 rlineto
          61 82 26 72 82 vvcurveto
          166 -107 104 -196 vhcurveto
          endchar
        </CharString>
        <CharString name="Oogonek">
          99 -197 98 -77 -21 185 148 363 160 hstemhm
          17 210 84 96 19 210 hintmask 01111010
          444 9 rmoveto
          124 45 68 115 171 vvcurveto
          203 -107 116 -188 -206 -118 -126 -221 -206 107 -118 188 vhcurveto
          hintmask 01111110
          10 11 0 1 10 hvcurveto
          -22 -30 -10 -31 -28 vvcurveto
          -54 39 -43 65 37 32 14 32 42 vhcurveto
          hintmask 10111110
          -12 72 rlineto
          -10 hlineto
          -13 -21 -22 -7 -18 hhcurveto
          -25 -11 14 19 14 6 15 10 15 hvcurveto
          -196 361 rmoveto
          127 21 33 75 vhcurveto
          hintmask 01111010
          81 22 -41 -161 -128 -21 -33 -75 hvcurveto
          hintmask 10111110
          -81 -22 41 162 hvcurveto
          endchar
        </CharString>
        <CharString name="Oslash">
          99 -12 148 -122 -21 506 160 -6 -20 hstemhm
          17 210 199 210 hintmask 10101100
          607 714 rmoveto
          -12 19 -120 46 rlineto
          hintmask 10011100
          -62 -126 rlineto
          hintmask 01101100
          4 -23 -24 2 -25 hhcurveto
          -206 -118 -126 -221 -117 35 -89 65 -55 hvcurveto
          -62 -126 8 -17 124 -47 64 132 rlineto
          hintmask 10101100
          -3 19 21 -2 21 hhcurveto
          206 118 128 224 111 -32 84 -59 55 hvcurveto
          -215 -454 rmoveto
          -81 -22 41 162 127 21 33 75 81 22 -41 -161 -128 -21 -33 -75 hvcurveto
          endchar
        </CharString>
        <CharString name="Oslashacute">
          99 -12 148 -122 -21 506 160 -6 -20 hstemhm
          17 210 199 210 hintmask 10101100
          228 719 rmoveto
          17 -4 77 20 75 22 86 27 rlinecurve
          6 16 -49 117 -17 4 -71 -42 -71 -39 -83 -42 rlinecurve
          409 -84 rmoveto
          -12 19 -120 46 rlineto
          hintmask 10011100
          -62 -126 rlineto
          hintmask 01101100
          4 -23 -24 2 -25 hhcurveto
          -206 -118 -126 -221 -117 35 -89 65 -55 hvcurveto
          -62 -126 8 -17 124 -47 64 132 rlineto
          hintmask 10101100
          -3 19 21 -2 21 hhcurveto
          206 118 128 224 111 -32 84 -59 55 hvcurveto
          -215 -454 rmoveto
          -81 -22 41 162 127 21 33 75 81 22 -41 -161 -128 -21 -33 -75 hvcurveto
          endchar
        </CharString>
        <CharString name="Otilde">
          99 -12 148 363 160 hstem
          17 210 199 210 vstem
          522 861 rmoveto
          -57 55 rlineto
          -16 hlineto
          -29 -23 -20 -29 -26 hhcurveto
          -26 -75 27 7 -52 hvcurveto
          -16 -6 -81 -113 rlineto
          -16 vlineto
          57 -55 rlineto
          16 hlineto
          29 23 20 29 26 hhcurveto
          26 75 -27 -7 52 hvcurveto
          16 6 81 113 rlineto
          -181 -186 rmoveto
          -206 -118 -126 -221 -206 107 -118 188 206 118 128 224 203 -107 116 -188 hvcurveto
          -18 -160 rmoveto
          81 22 -41 -161 -128 -21 -33 -75 -81 -22 41 162 127 21 33 75 hvcurveto
          endchar
        </CharString>
        <CharString name="P">
          39 21 -21 183 142 184 139 hstem
          65 193 125 210 vstem
          60 647 rmoveto
          10 -457 -10 -190 rlineto
          201 hlineto
          -7 183 rlineto
          49 hlineto
          174 116 104 155 132 -81 74 -145 hvcurveto
          -111 -321 rmoveto
          4 179 36 3 rlineto
          60 -3 27 -25 -59 vvcurveto
          -50 -16 -29 -36 -20 vhcurveto
          endchar
        </CharString>
        <CharString name="Q">
          107 -12 148 363 160 hstem
          17 210 199 210 vstem
          733 -60 rmoveto
          -80 27 -75 33 -75 39 rrcurveto
          86 57 47 103 141 vvcurveto
          203 -107 116 -188 -206 -118 -126 -221 -206 107 -118 188 vhcurveto
          16 hlineto
          91 -78 102 -66 110 -56 14 7 rcurveline
          41 36 30 42 25 49 rrcurveto
          -514 417 rmoveto
          127 21 33 75 81 22 -41 -161 -128 -21 -33 -75 -81 -22 41 162 vhcurveto
          endchar
        </CharString>
        <CharString name="R">
          77 9 -21 33 -21 193 144 172 139 hstemhm
          65 193 125 211 hintmask 01111100
          486 255 rmoveto
          68 48 40 69 76 vvcurveto
          129 -82 71 -145 vhcurveto
          -307 -1 10 -457 -10 -190 rlineto
          201 hlineto
          -7 193 rlineto
          67 hlineto
          hintmask 10111100
          27 -64 30 -63 29 -62 19 -16 rcurveline
          69 4 67 13 65 20 3 22 rcurveline
          hintmask 01111100
          -51 68 -48 70 -45 70 rrcurveto
          -103 173 rmoveto
          -48 -16 -28 -38 -17 vhcurveto
          -73 4 4 167 36 3 rlineto
          61 -3 26 -24 -54 vvcurveto
          endchar
        </CharString>
        <CharString name="Racute">
          77 9 -21 33 -21 193 144 172 139 hstemhm
          65 193 125 211 hintmask 01111100
          236 697 rmoveto
          17 -1 72 33 70 35 81 41 rlinecurve
          3 17 -69 107 -17 1 -63 -54 -63 -51 -75 -56 rlinecurve
          294 -514 rmoveto
          68 48 40 69 76 vvcurveto
          129 -82 71 -145 vhcurveto
          -307 -1 10 -457 -10 -190 rlineto
          201 hlineto
          -7 193 rlineto
          67 hlineto
          hintmask 10111100
          27 -64 30 -63 29 -62 19 -16 rcurveline
          69 4 67 13 65 20 3 22 rcurveline
          hintmask 01111100
          -51 68 -48 70 -45 70 rrcurveto
          -103 173 rmoveto
          -48 -16 -28 -38 -17 vhcurveto
          -73 4 4 167 36 3 rlineto
          61 -3 26 -24 -54 vvcurveto
          endchar
        </CharString>
        <CharString name="Rcaron">
          77 9 -21 33 -21 193 144 172 139 hstemhm
          65 193 125 211 hintmask 01111100
          333 701 rmoveto
          56 55 58 54 49 41 -47 72 rcurveline
          -18 hlineto
          -44 -28 -42 -28 -29 -22 -29 22 -42 28 -44 28 rrcurveto
          -18 hlineto
          -47 -72 57 -49 59 -54 47 -47 rlinecurve
          187 -446 rmoveto
          68 48 40 69 76 vvcurveto
          129 -82 71 -145 vhcurveto
          -307 -1 10 -457 -10 -190 rlineto
          201 hlineto
          -7 193 rlineto
          67 hlineto
          hintmask 10111100
          27 -64 30 -63 29 -62 19 -16 rcurveline
          69 4 67 13 65 20 3 22 rcurveline
          hintmask 01111100
          -51 68 -48 70 -45 70 rrcurveto
          -103 173 rmoveto
          -48 -16 -28 -38 -17 vhcurveto
          -73 4 4 167 36 3 rlineto
          61 -3 26 -24 -54 vvcurveto
          endchar
        </CharString>
        <CharString name="Rcommaaccent">
          77 -68 -21 98 -21 33 -21 193 144 172 139 hstemhm
          65 193 15 136 -26 211 hintmask 10111101
          486 255 rmoveto
          68 48 40 69 76 vvcurveto
          129 -82 71 -145 vhcurveto
          -307 -1 10 -457 -10 -190 rlineto
          201 hlineto
          -7 193 rlineto
          67 hlineto
          hintmask 11011101
          27 -64 30 -63 29 -62 19 -16 rcurveline
          69 4 67 13 65 20 3 22 rcurveline
          hintmask 10111101
          -51 68 -48 70 -45 70 rrcurveto
          -103 173 rmoveto
          -48 -16 -28 -38 -17 vhcurveto
          -73 4 4 167 36 3 rlineto
          61 -3 26 -24 -54 vvcurveto
          hintmask 10111110
          -15 -453 rmoveto
          -44 -11 -40 -17 -39 -22 rrcurveto
          -14 vlineto
          19 -19 9 -20 -25 vvcurveto
          -36 -16 -29 -32 -28 vhcurveto
          2 -12 52 -46 rlineto
          89 62 41 59 67 vvcurveto
          36 -13 28 -28 27 vhcurveto
          endchar
        </CharString>
        <CharString name="S">
          -26 -12 148 369 154 hstem
          37 197 72 199 vstem
          305 659 rmoveto
          -159 -109 -95 -127 hvcurveto
          -196 269 8 -80 vvcurveto
          -16 -12 -17 -41 -43 -78 26 50 -65 vhcurveto
          -20 -12 -29 -174 rlineto
          -25 74 72 -13 68 hhcurveto
          168 105 97 121 hvcurveto
          192 -271 -1 75 vvcurveto
          19 18 14 32 33 59 -21 -35 57 vhcurveto
          28 12 32 163 rlineto
          26 -69 -66 9 -53 hhcurveto
          endchar
        </CharString>
        <CharString name="Sacute">
          -26 -12 148 369 154 hstem
          37 197 72 199 vstem
          369 929 rmoveto
          -17 1 -63 -54 -63 -51 -75 -56 rlinecurve
          44 -72 17 -1 72 33 70 35 81 41 rlinecurve
          3 17 rlineto
          -133 -163 rmoveto
          -159 -109 -95 -127 hvcurveto
          -196 269 8 -80 vvcurveto
          -16 -12 -17 -41 -43 -78 26 50 -65 vhcurveto
          -20 -12 -29 -174 rlineto
          -25 74 72 -13 68 hhcurveto
          168 105 97 121 hvcurveto
          192 -271 -1 75 vvcurveto
          19 18 14 32 33 59 -21 -35 57 vhcurveto
          28 12 32 163 rlineto
          26 -69 -66 9 -53 hhcurveto
          endchar
        </CharString>
        <CharString name="Scaron">
          -26 -12 148 369 154 hstem
          37 197 72 199 vstem
          408 923 rmoveto
          -18 hlineto
          -44 -28 -42 -28 -29 -22 -29 22 -42 28 -44 28 rrcurveto
          -18 hlineto
          -47 -72 57 -49 59 -54 47 -47 rlinecurve
          34 hlineto
          56 55 58 54 49 41 rrcurveto
          -150 -192 rmoveto
          -159 -109 -95 -127 hvcurveto
          -196 269 8 -80 vvcurveto
          -16 -12 -17 -41 -43 -78 26 50 -65 vhcurveto
          -20 -12 -29 -174 rlineto
          -25 74 72 -13 68 hhcurveto
          168 105 97 121 hvcurveto
          192 -271 -1 75 vvcurveto
          19 18 14 32 33 59 -21 -35 57 vhcurveto
          28 12 32 163 rlineto
          26 -69 -66 9 -53 hhcurveto
          endchar
        </CharString>
        <CharString name="Scedilla">
          -26 -208 74 -29 -21 193 -21 26 -21 512 154 hstemhm
          37 197 24 107 -59 199 hintmask 01011101
          505 206 rmoveto
          192 -271 -1 75 vvcurveto
          19 18 14 32 33 59 -21 -35 57 vhcurveto
          28 12 32 163 rlineto
          26 -69 -66 9 -53 hhcurveto
          -159 -109 -95 -127 hvcurveto
          -196 269 8 -80 vvcurveto
          -16 -12 -17 -41 -43 -78 26 50 -65 vhcurveto
          -20 -12 rlineto
          hintmask 10101110
          -29 -174 66 -22 64 -13 61 -3 rlinecurve
          -13 -66 50 -27 rlineto
          8 -4 4 -4 -7 vvcurveto
          -9 -5 -5 -11 -14 -25 10 18 -21 vhcurveto
          -8 -3 rlineto
          hintmask 01011101
          -11 -75 rlineto
          hintmask 10011110
          -15 27 30 -9 35 hhcurveto
          69 41 36 48 24 -10 21 -34 18 hvcurveto
          -34 19 6 35 rlineto
          hintmask 01011101
          132 20 80 88 105 vvcurveto
          endchar
        </CharString>
        <CharString name="Scircumflex">
          -26 -12 148 369 154 hstem
          37 197 72 199 vstem
          142 705 rmoveto
          18 hlineto
          44 28 42 28 29 22 29 -22 42 -28 44 -28 rrcurveto
          18 hlineto
          47 72 -57 49 -59 54 -47 47 rlinecurve
          -34 hlineto
          -56 -55 -58 -54 -49 -41 rrcurveto
          210 -118 rmoveto
          -159 -109 -95 -127 hvcurveto
          -196 269 8 -80 vvcurveto
          -16 -12 -17 -41 -43 -78 26 50 -65 vhcurveto
          -20 -12 -29 -174 rlineto
          -25 74 72 -13 68 hhcurveto
          168 105 97 121 hvcurveto
          192 -271 -1 75 vvcurveto
          19 18 14 32 33 59 -21 -35 57 vhcurveto
          28 12 32 163 rlineto
          26 -69 -66 9 -53 hhcurveto
          endchar
        </CharString>
        <CharString name="Scommaaccent">
          -26 -68 -21 77 148 369 154 hstemhm
          37 197 -22 136 -42 199 hintmask 11110100
          305 659 rmoveto
          -159 -109 -95 -127 hvcurveto
          -196 269 8 -80 vvcurveto
          -16 -12 -17 -41 -43 -78 26 50 -65 vhcurveto
          -20 -12 -29 -174 rlineto
          -25 74 72 -13 68 hhcurveto
          168 105 97 121 hvcurveto
          192 -271 -1 75 vvcurveto
          19 18 14 32 33 59 -21 -35 57 vhcurveto
          28 12 32 163 rlineto
          26 -69 -66 9 -53 hhcurveto
          hintmask 11101000
          2 -684 rmoveto
          -44 -11 -40 -17 -39 -22 rrcurveto
          -14 vlineto
          19 -19 9 -20 -25 vvcurveto
          -36 -16 -29 -32 -28 vhcurveto
          2 -12 52 -46 rlineto
          89 62 41 59 67 vvcurveto
          36 -13 28 -28 27 vhcurveto
          endchar
        </CharString>
        <CharString name="T">
          -35 21 -21 493 154 -14 14 hstemhm
          168.5 187 hintmask 00000000
          hintmask 10110000
          513 633 rmoveto
          hintmask 11010000
          -11 14 rlineto
          -483 hlineto
          -11 -146 12 -14 133 6 rlineto
          13 hlineto
          5 -303 -10 -190 rlineto
          200 hlineto
          -8 210 5 283 rlineto
          12 hlineto
          132 -6 rlineto
          endchar
        </CharString>
        <CharString name="Tbar">
          -35 21 -21 234 101 158 154 -14 14 hstemhm
          166 187 -185.5 189 hintmask 11100100
          358 493 rmoveto
          12 hlineto
          132 -6 rlineto
          hintmask 11010100
          11 146 rlineto
          hintmask 11100100
          -11 14 rlineto
          -483 hlineto
          -11 -146 12 -14 133 6 rlineto
          13 hlineto
          3 -158 rlineto
          hintmask 11101000
          -85 hlineto
          -7 -88 12 -13 rlineto
          81 hlineto
          1 -44 -10 -190 rlineto
          200 hlineto
          -8 210 rlineto
          24 vlineto
          hintmask 11100100
          97 hlineto
          7 88 -12 13 rlineto
          -90 hlineto
          endchar
        </CharString>
        <CharString name="Tcaron">
          -35 21 -21 493 154 -14 14 hstemhm
          168.5 187 hintmask 11010000
          278 701 rmoveto
          56 55 58 54 49 41 -47 72 rcurveline
          -18 hlineto
          -44 -28 -42 -28 -29 -22 -29 22 -42 28 -44 28 rrcurveto
          -18 hlineto
          -47 -72 57 -49 59 -54 47 -47 rlinecurve
          hintmask 10110000
          269 -68 rmoveto
          hintmask 11010000
          -11 14 rlineto
          -483 hlineto
          -11 -146 12 -14 133 6 rlineto
          13 hlineto
          5 -303 -10 -190 rlineto
          200 hlineto
          -8 210 5 283 rlineto
          12 hlineto
          132 -6 rlineto
          endchar
        </CharString>
        <CharString name="Tcedilla">
          -35 -208 74 -29 -21 205 -21 493 154 -14 14 hstemhm
          168.5 187 -91.5 107 hintmask 01110100
          358 493 rmoveto
          12 hlineto
          132 -6 rlineto
          hintmask 01101100
          11 146 rlineto
          hintmask 01110100
          -11 14 rlineto
          -483 hlineto
          -11 -146 12 -14 133 6 rlineto
          13 hlineto
          5 -303 -10 -190 rlineto
          hintmask 10110010
          56 hlineto
          -15 -78 50 -27 rlineto
          8 -4 4 -4 -7 vvcurveto
          -9 -5 -5 -11 -14 -25 10 18 -21 vhcurveto
          -8 -3 rlineto
          hintmask 01110100
          -11 -75 rlineto
          hintmask 10110010
          -15 27 30 -9 35 hhcurveto
          69 41 36 48 24 -10 21 -34 18 hvcurveto
          hintmask 01110100
          -34 19 8 42 rlineto
          60 hlineto
          -8 210 rlineto
          endchar
        </CharString>
        <CharString name="Tcommaaccent">
          -35 -68 -21 110 -21 493 154 -14 14 hstemhm
          168.5 187 -137.5 136 hintmask 00000000
          hintmask 11011000
          513 633 rmoveto
          hintmask 11101000
          -11 14 rlineto
          -483 hlineto
          -11 -146 12 -14 133 6 rlineto
          13 hlineto
          5 -303 -10 -190 rlineto
          200 hlineto
          -8 210 5 283 rlineto
          12 hlineto
          132 -6 rlineto
          hintmask 11100100
          -189 -512 rmoveto
          -44 -11 -40 -17 -39 -22 rrcurveto
          -14 vlineto
          19 -19 9 -20 -25 vvcurveto
          -36 -16 -29 -32 -28 vhcurveto
          2 -12 52 -46 rlineto
          89 62 41 59 67 vvcurveto
          36 -13 28 -28 27 vhcurveto
          endchar
        </CharString>
        <CharString name="Thorn">
          48 21 -21 100 142 176 140 -1 90 hstemhm
          66 192 131 213 hintmask 00000000
          hintmask 11101100
          264 558 rmoveto
          hintmask 11011100
          2 89 rlineto
          -206 hlineto
          2 -90 rlineto
          -2 hlineto
          2 -3 8 -364 -10 -190 rlineto
          203 hlineto
          -4 99 49 1 rlineto
          189 105 92 158 hvcurveto
          hintmask 11101100
          140 -82 68 -147 vhcurveto
          -117 -314 rmoveto
          4 171 41 3 rlineto
          62 -3 26 -21 -60 vvcurveto
          -53 -20 -23 -33 -18 vhcurveto
          endchar
        </CharString>
        <CharString name="U">
          99 -12 158 501 -20 hstem
          49 193.5 165 196 vstem
          600 319 rmoveto
          7 328 rlineto
          -204 hlineto
          9 -404 rlineto
          -68 1 -26 -29 -63 hhcurveto
          -62 -25 29 68 1 hvcurveto
          9 404 rlineto
          -201 hlineto
          6 -328 -3 -103 rlineto
          -147 -4 96 -81 175 hhcurveto
          181 101 81 147 1 hvcurveto
          endchar
        </CharString>
        <CharString name="Uacute">
          99 -12 158 501 -20 hstem
          49 193.5 165 196 vstem
          440 914 rmoveto
          -17 4 -71 -42 -71 -39 -83 -42 rlinecurve
          30 -79 17 -4 77 20 75 22 86 27 rlinecurve
          6 16 rlineto
          111 -478 rmoveto
          7 328 rlineto
          -204 hlineto
          9 -404 rlineto
          -68 1 -26 -29 -63 hhcurveto
          -62 -25 29 68 1 hvcurveto
          9 404 rlineto
          -201 hlineto
          6 -328 -3 -103 rlineto
          -147 -4 96 -81 175 hhcurveto
          181 101 81 147 1 hvcurveto
          endchar
        </CharString>
        <CharString name="Ubreve">
          99 -12 158 501 -20 83 135 hstem
          49 193.5 165 196 vstem
          466 908 rmoveto
          -27 hlineto
          -40 -19 -42 -23 -49 hhcurveto
          -49 -42 23 40 -21 hvcurveto
          -27 hlineto
          -40 -62 rlineto
          -64 19 51 -72 103 hhcurveto
          104 57 68 68 22 hvcurveto
          94 -527 rmoveto
          7 328 rlineto
          -204 hlineto
          9 -404 rlineto
          -68 1 -26 -29 -63 hhcurveto
          -62 -25 29 68 1 hvcurveto
          9 404 rlineto
          -201 hlineto
          6 -328 -3 -103 rlineto
          -147 -4 96 -81 175 hhcurveto
          181 101 81 147 1 hvcurveto
          endchar
        </CharString>
        <CharString name="Ucaron">
          99 -12 158 501 -20 hstem
          49 193.5 165 196 vstem
          460 923 rmoveto
          -18 hlineto
          -44 -28 -42 -28 -29 -22 -29 22 -42 28 -44 28 rrcurveto
          -18 hlineto
          -47 -72 57 -49 59 -54 47 -47 rlinecurve
          34 hlineto
          56 55 58 54 49 41 rrcurveto
          93 -532 rmoveto
          7 328 rlineto
          -204 hlineto
          9 -404 rlineto
          -68 1 -26 -29 -63 hhcurveto
          -62 -25 29 68 1 hvcurveto
          9 404 rlineto
          -201 hlineto
          6 -328 -3 -103 rlineto
          -147 -4 96 -81 175 hhcurveto
          181 101 81 147 1 hvcurveto
          endchar
        </CharString>
        <CharString name="Ucircumflex">
          99 -12 158 501 -20 hstem
          49 193.5 165 196 vstem
          191 721 rmoveto
          18 hlineto
          39 20 40 20 39 20 118 -60 rcurveline
          18 hlineto
          34 76 -57 39 -51 39 -45 41 rlinecurve
          -34 hlineto
          -45 -41 -51 -39 -57 -39 rrcurveto
          443 -478 rmoveto
          7 328 rlineto
          -204 hlineto
          9 -404 rlineto
          -68 1 -26 -29 -63 hhcurveto
          -62 -25 29 68 1 hvcurveto
          9 404 rlineto
          -201 hlineto
          6 -328 -3 -103 rlineto
          -147 -4 96 -81 175 hhcurveto
          181 101 81 147 1 hvcurveto
          endchar
        </CharString>
        <CharString name="Udieresis">
          99 -12 158 501 -20 92 173 hstemhm
          49 193.5 -96.5 170 23 170 -101.5 196 hintmask 00000000
          hintmask 11101010
          235 892 rmoveto
          -55 -34 -34 -56 -53 29 -30 53 54 34 35 56 52 -30 30 -51 hvcurveto
          hintmask 11110100
          193 hmoveto
          -55 -34 -34 -56 -53 29 -30 53 54 34 35 56 52 -30 30 -51 hvcurveto
          hintmask 11110010
          172 -573 rmoveto
          7 328 rlineto
          -204 hlineto
          9 -404 rlineto
          -68 1 -26 -29 -63 hhcurveto
          -62 -25 29 68 1 hvcurveto
          9 404 rlineto
          -201 hlineto
          6 -328 -3 -103 rlineto
          -147 -4 96 -81 175 hhcurveto
          181 101 81 147 1 hvcurveto
          endchar
        </CharString>
        <CharString name="Udieresisacute">
          99 -12 158 501 -20 72 173 hstemhm
          49 193.5 -96.5 169 24 169 -100.5 196 hintmask 11110010
          437 1076 rmoveto
          -16 7 -77 -29 -77 -26 -89 -27 rlinecurve
          16 -83 16 -7 79 6 78 9 89 11 rlinecurve
          9 15 rlineto
          hintmask 11101010
          -230 -80 rmoveto
          -55 -34 -35 -55 -53 29 -30 53 54 33 35 56 52 -29 30 -51 hvcurveto
          hintmask 11110100
          193 hmoveto
          -55 -34 -35 -55 -53 29 -30 53 54 33 35 56 52 -29 30 -51 hvcurveto
          hintmask 11110010
          172 -553 rmoveto
          7 328 rlineto
          -204 hlineto
          9 -404 rlineto
          -68 1 -26 -29 -63 hhcurveto
          -62 -25 29 68 1 hvcurveto
          9 404 rlineto
          -201 hlineto
          6 -328 -3 -103 rlineto
          -147 -4 96 -81 175 hhcurveto
          181 101 81 147 1 hvcurveto
          endchar
        </CharString>
        <CharString name="Udieresiscaron">
          99 -12 158 501 -20 72 173 hstemhm
          49 193.5 -96.5 169 24 169 -100.5 196 hintmask 11110010
          462 1070 rmoveto
          -18 hlineto
          -39 -20 -40 -20 -39 -20 -118 60 rcurveline
          -18 hlineto
          -34 -76 57 -39 51 -39 45 -41 rlinecurve
          34 hlineto
          45 41 51 39 57 39 rrcurveto
          hintmask 11101010
          -261 -122 rmoveto
          -55 -34 -35 -55 -53 29 -30 53 54 33 35 56 52 -29 30 -51 hvcurveto
          hintmask 11110100
          193 hmoveto
          -55 -34 -35 -55 -53 29 -30 53 54 33 35 56 52 -29 30 -51 hvcurveto
          hintmask 11110010
          172 -553 rmoveto
          7 328 rlineto
          -204 hlineto
          9 -404 rlineto
          -68 1 -26 -29 -63 hhcurveto
          -62 -25 29 68 1 hvcurveto
          9 404 rlineto
          -201 hlineto
          6 -328 -3 -103 rlineto
          -147 -4 96 -81 175 hhcurveto
          181 101 81 147 1 hvcurveto
          endchar
        </CharString>
        <CharString name="Udieresisgrave">
          99 -12 158 501 -20 72 173 hstemhm
          49 193.5 -96.5 169 24 169 -100.5 196 hintmask 11110010
          206 1076 rmoveto
          -28 -124 9 -15 89 -11 78 -9 79 -6 rlinecurve
          16 7 16 83 -89 27 -77 26 -77 29 rlinecurve
          hintmask 11101010
          13 -211 rmoveto
          -55 -34 -35 -55 -53 29 -30 53 54 33 35 56 52 -29 30 -51 hvcurveto
          hintmask 11110100
          193 hmoveto
          -55 -34 -35 -55 -53 29 -30 53 54 33 35 56 52 -29 30 -51 hvcurveto
          hintmask 11110010
          172 -553 rmoveto
          7 328 rlineto
          -204 hlineto
          9 -404 rlineto
          -68 1 -26 -29 -63 hhcurveto
          -62 -25 29 68 1 hvcurveto
          9 404 rlineto
          -201 hlineto
          6 -328 -3 -103 rlineto
          -147 -4 96 -81 175 hhcurveto
          181 101 81 147 1 hvcurveto
          endchar
        </CharString>
        <CharString name="Udieresismacron">
          99 -12 158 501 -20 72 173 47 120 hstemhm
          49 193.5 -96.5 169 24 169 -100.5 196 hintmask 11111001
          491 1026 rmoveto
          -13 13 rlineto
          -303 hlineto
          -10 -107 13 -13 rlineto
          303 hlineto
          hintmask 11110101
          -246 -47 rmoveto
          -55 -34 -35 -55 -53 29 -30 53 54 33 35 56 52 -29 30 -51 hvcurveto
          hintmask 11111010
          193 hmoveto
          -55 -34 -35 -55 -53 29 -30 53 54 33 35 56 52 -29 30 -51 hvcurveto
          hintmask 11111001
          172 -553 rmoveto
          7 328 rlineto
          -204 hlineto
          9 -404 rlineto
          -68 1 -26 -29 -63 hhcurveto
          -62 -25 29 68 1 hvcurveto
          9 404 rlineto
          -201 hlineto
          6 -328 -3 -103 rlineto
          -147 -4 96 -81 175 hhcurveto
          181 101 81 147 1 hvcurveto
          endchar
        </CharString>
        <CharString name="Udotbelow">
          99 -231 199 20 158 501 -20 hstemhm
          49 193.5 -16.5 195 -13.5 196 hintmask 01110100
          600 319 rmoveto
          7 328 rlineto
          -204 hlineto
          9 -404 rlineto
          -68 1 -26 -29 -63 hhcurveto
          -62 -25 29 68 1 hvcurveto
          9 404 rlineto
          -201 hlineto
          6 -328 -3 -103 rlineto
          -147 -4 96 -81 175 hhcurveto
          181 101 81 147 1 hvcurveto
          hintmask 11101000
          -271 -248 rmoveto
          -63 -39 -40 -64 -61 33 -34 61 62 39 40 64 60 -34 35 -59 hvcurveto
          endchar
        </CharString>
        <CharString name="Ugrave">
          99 -12 158 501 -20 hstem
          49 193.5 165 196 vstem
          234 914 rmoveto
          -49 -117 6 -16 86 -27 75 -22 77 -20 rlinecurve
          17 4 30 79 -83 42 -71 39 -71 42 rlinecurve
          349 -599 rmoveto
          7 328 rlineto
          -204 hlineto
          9 -404 rlineto
          -68 1 -26 -29 -63 hhcurveto
          -62 -25 29 68 1 hvcurveto
          9 404 rlineto
          -201 hlineto
          6 -328 -3 -103 rlineto
          -147 -4 96 -81 175 hhcurveto
          181 101 81 147 1 hvcurveto
          endchar
        </CharString>
        <CharString name="Uhookabove">
          99 -12 158 501 -20 239 82 hstemhm
          49 193.5 72.5 98 -5.5 196 hintmask 00000000
          hintmask 11111000
          313 948 rmoveto
          -46 -47 -24 -37 -34 hvcurveto
          29 -47 rlineto
          16 21 28 10 21 hhcurveto
          17 13 -7 -17 -21 -20 -31 -34 -24 hvcurveto
          54 -80 64 39 -27 43 rlineto
          47 42 14 21 29 vvcurveto
          53 -44 35 -56 vhcurveto
          hintmask 11110100
          287 -629 rmoveto
          7 328 rlineto
          -204 hlineto
          9 -404 rlineto
          -68 1 -26 -29 -63 hhcurveto
          -62 -25 29 68 1 hvcurveto
          9 404 rlineto
          -201 hlineto
          6 -328 -3 -103 rlineto
          -147 -4 96 -81 175 hhcurveto
          181 101 81 147 1 hvcurveto
          endchar
        </CharString>
        <CharString name="Uhorn">
          109 -12 158 501 -20 hstemhm
          49 193.5 165 195.5 -48 151 hintmask 00000000
          hintmask 11101000
          706 713 rmoveto
          54 -35 38 -48 -33 -33 -17 -20 -28 vhcurveto
          -3 -14 rlineto
          18 -15 11 -20 -24 vvcurveto
          -34 -16 -14 -41 vhcurveto
          hintmask 11110000
          -95 hlineto
          9 -404 rlineto
          -68 1 -26 -29 -63 hhcurveto
          -62 -25 29 68 1 hvcurveto
          9 404 rlineto
          -201 hlineto
          6 -328 -3 -103 rlineto
          -147 -4 96 -81 175 hhcurveto
          181 101 81 147 1 hvcurveto
          1 103 6 259 rlineto
          hintmask 11101000
          62 29 38 50 56 vvcurveto
          endchar
        </CharString>
        <CharString name="Uhornacute">
          109 -12 158 501 -20 hstemhm
          49 193.5 165 195.5 -48 151 hintmask 11110000
          228 716 rmoveto
          17 -4 77 20 75 22 86 27 rlinecurve
          6 16 -49 117 -17 4 -71 -42 -71 -39 -83 -42 rlinecurve
          hintmask 11101000
          508 -82 rmoveto
          54 -35 38 -48 -33 -33 -17 -20 -28 vhcurveto
          -3 -14 rlineto
          18 -15 11 -20 -24 vvcurveto
          -34 -16 -14 -41 vhcurveto
          hintmask 11110000
          -95 hlineto
          9 -404 rlineto
          -68 1 -26 -29 -63 hhcurveto
          -62 -25 29 68 1 hvcurveto
          9 404 rlineto
          -201 hlineto
          6 -328 -3 -103 rlineto
          -147 -4 96 -81 175 hhcurveto
          181 101 81 147 1 hvcurveto
          1 103 6 259 rlineto
          hintmask 11101000
          62 29 38 50 56 vvcurveto
          endchar
        </CharString>
        <CharString name="Uhorndotbelow">
          109 -231 199 20 158 501 -20 hstemhm
          49 193.5 -14.5 195 -15.5 195.5 -48 151 hintmask 00000000
          hintmask 01110010
          706 713 rmoveto
          54 -35 38 -48 -33 -33 -17 -20 -28 vhcurveto
          -3 -14 rlineto
          18 -15 11 -20 -24 vvcurveto
          -34 -16 -14 -41 vhcurveto
          hintmask 01110100
          -95 hlineto
          9 -404 rlineto
          -68 1 -26 -29 -63 hhcurveto
          -62 -25 29 68 1 hvcurveto
          9 404 rlineto
          -201 hlineto
          6 -328 -3 -103 rlineto
          -147 -4 96 -81 175 hhcurveto
          181 101 81 147 1 hvcurveto
          1 103 6 259 rlineto
          hintmask 01110010
          62 29 38 50 56 vvcurveto
          hintmask 11101000
          -376 -745 rmoveto
          -63 -39 -40 -64 -61 33 -34 61 62 39 40 64 60 -34 35 -59 hvcurveto
          endchar
        </CharString>
        <CharString name="Uhorngrave">
          109 -12 158 501 -20 hstemhm
          49 193.5 165 195.5 -48 151 hintmask 11110000
          446 716 rmoveto
          30 79 -83 42 -71 39 -71 42 rlinecurve
          -17 -4 -49 -117 6 -16 86 -27 75 -22 77 -20 rlinecurve
          hintmask 11101000
          277 1 rmoveto
          54 -35 38 -48 -33 -33 -17 -20 -28 vhcurveto
          -3 -14 rlineto
          18 -15 11 -20 -24 vvcurveto
          -34 -16 -14 -41 vhcurveto
          hintmask 11110000
          -95 hlineto
          9 -404 rlineto
          -68 1 -26 -29 -63 hhcurveto
          -62 -25 29 68 1 hvcurveto
          9 404 rlineto
          -201 hlineto
          6 -328 -3 -103 rlineto
          -147 -4 96 -81 175 hhcurveto
          181 101 81 147 1 hvcurveto
          1 103 6 259 rlineto
          hintmask 11101000
          62 29 38 50 56 vvcurveto
          endchar
        </CharString>
        <CharString name="Uhornhookabove">
          109 -12 158 501 -20 239 82 hstemhm
          49 193.5 72.5 98 -5.5 195.5 -48 151 hintmask 00000000
          hintmask 11111010
          285 866 rmoveto
          17 13 -7 -17 -21 -20 -31 -34 -24 hvcurveto
          54 -80 64 39 -27 43 rlineto
          47 42 14 21 29 vvcurveto
          53 -44 35 -56 -46 -47 -24 -37 -34 vhcurveto
          29 -47 rlineto
          16 21 28 10 21 hhcurveto
          421 -153 rmoveto
          54 -35 38 -48 -33 -33 -17 -20 -28 vhcurveto
          -3 -14 rlineto
          18 -15 11 -20 -24 vvcurveto
          -34 -16 -14 -41 vhcurveto
          hintmask 11110100
          -95 hlineto
          9 -404 rlineto
          -68 1 -26 -29 -63 hhcurveto
          -62 -25 29 68 1 hvcurveto
          9 404 rlineto
          -201 hlineto
          6 -328 -3 -103 rlineto
          -147 -4 96 -81 175 hhcurveto
          181 101 81 147 1 hvcurveto
          1 103 6 259 rlineto
          hintmask 11111010
          62 29 38 50 56 vvcurveto
          endchar
        </CharString>
        <CharString name="Uhorntilde">
          109 -12 158 501 -20 hstemhm
          49 193.5 165 195.5 -48 151 hintmask 11110000
          187 702 rmoveto
          16 hlineto
          29 23 20 29 26 hhcurveto
          26 75 -27 -7 52 hvcurveto
          16 6 81 113 rlineto
          16 vlineto
          -57 55 rlineto
          -16 hlineto
          -29 -23 -20 -29 -26 hhcurveto
          -26 -75 27 7 -52 hvcurveto
          -16 -6 -81 -113 rlineto
          -16 vlineto
          hintmask 11101000
          576 -44 rmoveto
          54 -35 38 -48 -33 -33 -17 -20 -28 vhcurveto
          -3 -14 rlineto
          18 -15 11 -20 -24 vvcurveto
          -34 -16 -14 -41 vhcurveto
          hintmask 11110000
          -95 hlineto
          9 -404 rlineto
          -68 1 -26 -29 -63 hhcurveto
          -62 -25 29 68 1 hvcurveto
          9 404 rlineto
          -201 hlineto
          6 -328 -3 -103 rlineto
          -147 -4 96 -81 175 hhcurveto
          181 101 81 147 1 hvcurveto
          1 103 6 259 rlineto
          hintmask 11101000
          62 29 38 50 56 vvcurveto
          endchar
        </CharString>
        <CharString name="Uhungarumlaut">
          99 -12 158 501 -20 hstem
          49 193.5 165 196 vstem
          220 711 rmoveto
          16 5 45 39 44 41 42 42 rlinecurve
          -3 14 -90 58 -14 -4 -31 -51 -34 -49 -34 -49 rlinecurve
          228 -46 rmoveto
          15 5 45 39 44 41 43 42 rlinecurve
          -3 14 -91 58 -13 -4 -32 -51 -34 -49 -33 -49 rlinecurve
          270 -438 rmoveto
          7 328 rlineto
          -204 hlineto
          9 -404 rlineto
          -68 1 -26 -29 -63 hhcurveto
          -62 -25 29 68 1 hvcurveto
          9 404 rlineto
          -201 hlineto
          6 -328 -3 -103 rlineto
          -147 -4 96 -81 175 hhcurveto
          181 101 81 147 1 hvcurveto
          endchar
        </CharString>
        <CharString name="Umacron">
          99 -12 158 501 -20 119 120 hstem
          49 193.5 165 196 vstem
          476 853 rmoveto
          -12 13 rlineto
          -276 hlineto
          -9 -107 12 -13 rlineto
          276 hlineto
          133 -427 rmoveto
          7 328 rlineto
          -204 hlineto
          9 -404 rlineto
          -68 1 -26 -29 -63 hhcurveto
          -62 -25 29 68 1 hvcurveto
          9 404 rlineto
          -201 hlineto
          6 -328 -3 -103 rlineto
          -147 -4 96 -81 175 hhcurveto
          181 101 81 147 1 hvcurveto
          endchar
        </CharString>
        <CharString name="Uogonek">
          99 -197 98 -77 -21 185 158 501 -20 hstemhm
          49 193.5 126.5 96 -57.5 196 hintmask 01111010
          607 647 rmoveto
          -204 hlineto
          9 -404 rlineto
          -68 1 -26 -29 -63 hhcurveto
          -62 -25 29 68 1 hvcurveto
          9 404 rlineto
          -201 hlineto
          6 -328 -3 -103 rlineto
          -147 -4 96 -81 175 hhcurveto
          hintmask 01111100
          32 30 3 5 27 hvcurveto
          -3 -5 rlineto
          -22 -31 -11 -31 -29 vvcurveto
          -54 39 -43 65 37 32 14 32 42 vhcurveto
          hintmask 10111100
          -12 72 rlineto
          -10 hlineto
          -13 -21 -22 -7 -18 hhcurveto
          -25 -11 14 19 14 6 15 10 15 hvcurveto
          hintmask 01111010
          44 69 rlineto
          48 39 26 57 73 vvcurveto
          1 103 rlineto
          endchar
        </CharString>
        <CharString name="Uring">
          99 -12 158 501 -20 86 76 64 78 hstemhm
          49 193.5 -25.5 75 70 75 -29.5 196 hintmask 00000000
          hintmask 11110110
          331 931 rmoveto
          -75 -39 -38 -73 -71 36 -36 70 75 39 41 73 69 -35 35 -71 hvcurveto
          -5 -78 rmoveto
          26 10 -9 -24 -23 -9 -8 -25 -26 -10 9 25 22 9 8 25 hvcurveto
          hintmask 11111001
          274 -534 rmoveto
          7 328 rlineto
          -204 hlineto
          9 -404 rlineto
          -68 1 -26 -29 -63 hhcurveto
          -62 -25 29 68 1 hvcurveto
          9 404 rlineto
          -201 hlineto
          6 -328 -3 -103 rlineto
          -147 -4 96 -81 175 hhcurveto
          181 101 81 147 1 hvcurveto
          endchar
        </CharString>
        <CharString name="Utilde">
          99 -12 158 501 -20 hstem
          49 193.5 165 196 vstem
          522 861 rmoveto
          -57 55 rlineto
          -16 hlineto
          -29 -23 -20 -29 -26 hhcurveto
          -26 -75 27 7 -52 hvcurveto
          -16 -6 -81 -113 rlineto
          -16 vlineto
          57 -55 rlineto
          16 hlineto
          29 23 20 29 26 hhcurveto
          26 75 -27 -7 52 hvcurveto
          16 6 81 113 rlineto
          78 -526 rmoveto
          7 328 rlineto
          -204 hlineto
          9 -404 rlineto
          -68 1 -26 -29 -63 hhcurveto
          -62 -25 29 68 1 hvcurveto
          9 404 rlineto
          -201 hlineto
          6 -328 -3 -103 rlineto
          -147 -4 96 -81 175 hhcurveto
          181 101 81 147 1 hvcurveto
          endchar
        </CharString>
        <CharString name="V">
          61 0 179 468 -20 hstem
          4 615 vstem
          423 hmoveto
          196 647 rlineto
          -196 hlineto
          -19 -119 -92 -349 rlineto
          -12 hlineto
          -75 361 -18 107 rlineto
          -203 hlineto
          177 -647 rlineto
          endchar
        </CharString>
        <CharString name="V.ss01">
          -14 0 65 383 65 hstem
          -100 740 vstem
          509 448 rmoveto
          131 65 -740 -65 138 hlineto
          107 -383 rlineto
          -245 -65 740 65 -250 hlineto
          -45 383 rmoveto
          -8 -49 -61 -232 rlineto
          -11 hlineto
          -48 243 -7 38 rlineto
          endchar
        </CharString>
        <CharString name="W">
          360 0 201 446 -20 hstem
          17 897 vstem
          723 hmoveto
          191 647 rlineto
          -184 hlineto
          -18 -112 -79 -334 rlineto
          -12 hlineto
          -68 326 -14 120 rlineto
          -202 hlineto
          34 -151 -75 -295 rlineto
          -12 hlineto
          -63 346 -10 100 rlineto
          -194 hlineto
          152 -647 rlineto
          213 hlineto
          56 234 rlineto
          12 hlineto
          61 -234 rlineto
          endchar
        </CharString>
        <CharString name="Wacute">
          360 0 201 446 -20 hstem
          17 897 vstem
          564 914 rmoveto
          -17 4 -71 -42 -71 -39 -83 -42 rlinecurve
          30 -79 17 -4 77 20 75 22 86 27 rlinecurve
          6 16 rlineto
          110 -797 rmoveto
          191 647 rlineto
          -184 hlineto
          -18 -112 -79 -334 rlineto
          -12 hlineto
          -68 326 -14 120 rlineto
          -202 hlineto
          34 -151 -75 -295 rlineto
          -12 hlineto
          -63 346 -10 100 rlineto
          -194 hlineto
          152 -647 rlineto
          213 hlineto
          56 234 rlineto
          12 hlineto
          61 -234 rlineto
          endchar
        </CharString>
        <CharString name="Wcircumflex">
          360 0 201 446 -20 hstem
          17 897 vstem
          315 721 rmoveto
          18 hlineto
          39 20 40 20 39 20 118 -60 rcurveline
          18 hlineto
          34 76 -57 39 -51 39 -45 41 rlinecurve
          -34 hlineto
          -45 -41 -51 -39 -57 -39 rrcurveto
          442 -797 rmoveto
          191 647 rlineto
          -184 hlineto
          -18 -112 -79 -334 rlineto
          -12 hlineto
          -68 326 -14 120 rlineto
          -202 hlineto
          34 -151 -75 -295 rlineto
          -12 hlineto
          -63 346 -10 100 rlineto
          -194 hlineto
          152 -647 rlineto
          213 hlineto
          56 234 rlineto
          12 hlineto
          61 -234 rlineto
          endchar
        </CharString>
        <CharString name="Wdieresis">
          360 0 201 446 -20 92 173 hstemhm
          270 170 23 170 hintmask 11110000
          359 892 rmoveto
          -55 -34 -34 -56 -53 29 -30 53 54 34 35 56 52 -30 30 -51 hvcurveto
          hintmask 11111000
          193 hmoveto
          -55 -34 -34 -56 -53 29 -30 53 54 34 35 56 52 -30 30 -51 hvcurveto
          171 -892 rmoveto
          191 647 rlineto
          -184 hlineto
          -18 -112 -79 -334 rlineto
          -12 hlineto
          -68 326 -14 120 rlineto
          -202 hlineto
          34 -151 -75 -295 rlineto
          -12 hlineto
          -63 346 -10 100 rlineto
          -194 hlineto
          152 -647 rlineto
          213 hlineto
          56 234 rlineto
          12 hlineto
          61 -234 rlineto
          endchar
        </CharString>
        <CharString name="Wgrave">
          360 0 201 446 -20 hstem
          17 897 vstem
          358 914 rmoveto
          -49 -117 6 -16 86 -27 75 -22 77 -20 rlinecurve
          17 4 30 79 -83 42 -71 39 -71 42 rlinecurve
          348 -918 rmoveto
          191 647 rlineto
          -184 hlineto
          -18 -112 -79 -334 rlineto
          -12 hlineto
          -68 326 -14 120 rlineto
          -202 hlineto
          34 -151 -75 -295 rlineto
          -12 hlineto
          -63 346 -10 100 rlineto
          -194 hlineto
          152 -647 rlineto
          213 hlineto
          56 234 rlineto
          12 hlineto
          61 -234 rlineto
          endchar
        </CharString>
        <CharString name="X">
          81 21 -21 647 -20 hstem
          -4 646 vstem
          447 342 rmoveto
          185 305 rlineto
          -209 hlineto
          -30 -70 -65 -113 -57 102 -35 81 rlineto
          -240 hlineto
          198 -336 -192 -311 rlineto
          203 hlineto
          32 69 74 115 58 -105 34 -79 rlineto
          239 hlineto
          endchar
        </CharString>
        <CharString name="X.ss01">
          1 0 65 383 65 hstem
          -100 755 vstem
          387 272 rmoveto
          113 176 rlineto
          155 65 -755 -65 156 hlineto
          125 -201 -121 -182 rlineto
          -160 -65 755 65 -144 hlineto
          -266 383 rmoveto
          93 hlineto
          -9 -20 -39 -59 -32 50 rlineto
          64 -354 rmoveto
          -102 hlineto
          11 24 45 58 32 -50 rlineto
          endchar
        </CharString>
        <CharString name="Y">
          40 21 -21 647 -20 hstem
          195 191 vstem
          382 170 rmoveto
          2 38 230 439 rlineto
          -204 hlineto
          -23 -61 -84 -188 rlineto
          -12 hlineto
          -73 195 -16 54 rlineto
          -210 hlineto
          207 -446 1 -31 -10 -170 rlineto
          200 hlineto
          endchar
        </CharString>
        <CharString name="Yacute">
          40 21 -21 647 -20 hstem
          195 191 vstem
          198 716 rmoveto
          17 -4 77 20 75 22 86 27 rlinecurve
          6 16 -49 117 -17 4 -71 -42 -71 -39 -83 -42 rlinecurve
          214 -625 rmoveto
          2 38 230 439 rlineto
          -204 hlineto
          -23 -61 -84 -188 rlineto
          -12 hlineto
          -73 195 -16 54 rlineto
          -210 hlineto
          207 -446 1 -31 -10 -170 rlineto
          200 hlineto
          endchar
        </CharString>
        <CharString name="Ycircumflex">
          40 21 -21 647 -20 hstem
          195 191 vstem
          161 721 rmoveto
          18 hlineto
          39 20 40 20 39 20 118 -60 rcurveline
          18 hlineto
          34 76 -57 39 -51 39 -45 41 rlinecurve
          -34 hlineto
          -45 -41 -51 -39 -57 -39 rrcurveto
          255 -627 rmoveto
          2 38 230 439 rlineto
          -204 hlineto
          -23 -61 -84 -188 rlineto
          -12 hlineto
          -73 195 -16 54 rlineto
          -210 hlineto
          207 -446 1 -31 -10 -170 rlineto
          200 hlineto
          endchar
        </CharString>
        <CharString name="Ydieresis">
          40 21 -21 647 -20 92 173 hstemhm
          116 170 -91 191 -77 170 hintmask 00000000
          hintmask 11110000
          198 719 rmoveto
          54 34 35 56 52 -30 30 -51 -55 -34 -34 -56 -53 29 -30 53 hvcurveto
          hintmask 11100100
          193 hmoveto
          54 34 35 56 52 -30 30 -51 -55 -34 -34 -56 -53 29 -30 53 hvcurveto
          hintmask 11101000
          -9 -549 rmoveto
          2 38 230 439 rlineto
          -204 hlineto
          -23 -61 -84 -188 rlineto
          -12 hlineto
          -73 195 -16 54 rlineto
          -210 hlineto
          207 -446 1 -31 -10 -170 rlineto
          200 hlineto
          endchar
        </CharString>
        <CharString name="Ydotbelow">
          40 -231 199 53 -21 647 -20 hstemhm
          192 195 -192 191 hintmask 11101000
          382 170 rmoveto
          2 38 230 439 rlineto
          -204 hlineto
          -23 -61 -84 -188 rlineto
          -12 hlineto
          -73 195 -16 54 rlineto
          -210 hlineto
          207 -446 1 -31 -10 -170 rlineto
          200 hlineto
          hintmask 11110000
          -96 -32 rmoveto
          -63 -39 -40 -64 -61 33 -34 61 62 39 40 64 60 -34 35 -59 hvcurveto
          endchar
        </CharString>
        <CharString name="Ygrave">
          40 21 -21 647 -20 hstem
          195 191 vstem
          416 716 rmoveto
          30 79 -83 42 -71 39 -71 42 rlinecurve
          -17 -4 -49 -117 6 -16 86 -27 75 -22 77 -20 rlinecurve
          -17 -542 rmoveto
          2 38 230 439 rlineto
          -204 hlineto
          -23 -61 -84 -188 rlineto
          -12 hlineto
          -73 195 -16 54 rlineto
          -210 hlineto
          207 -446 1 -31 -10 -170 rlineto
          200 hlineto
          endchar
        </CharString>
        <CharString name="Yhookabove">
          40 21 -21 647 -20 239 82 hstemhm
          195 191 -101 98 hintmask 00000000
          hintmask 11101000
          255 866 rmoveto
          17 13 -7 -17 -21 -20 -31 -34 -24 hvcurveto
          54 -80 64 39 -27 43 rlineto
          47 42 14 21 29 vvcurveto
          53 -44 35 -56 -46 -47 -24 -37 -34 vhcurveto
          29 -47 rlineto
          16 21 28 10 21 hhcurveto
          hintmask 11110000
          127 -696 rmoveto
          2 38 230 439 rlineto
          -204 hlineto
          -23 -61 -84 -188 rlineto
          -12 hlineto
          -73 195 -16 54 rlineto
          -210 hlineto
          207 -446 1 -31 -10 -170 rlineto
          200 hlineto
          endchar
        </CharString>
        <CharString name="Ytilde">
          40 21 -21 647 -20 hstem
          195 191 vstem
          157 702 rmoveto
          16 hlineto
          29 23 20 29 26 hhcurveto
          26 75 -27 -7 52 hvcurveto
          16 6 81 113 rlineto
          16 vlineto
          -57 55 rlineto
          -16 hlineto
          -29 -23 -20 -29 -26 hhcurveto
          -26 -75 27 7 -52 hvcurveto
          -16 -6 -81 -113 rlineto
          -16 vlineto
          282 -587 rmoveto
          2 38 230 439 rlineto
          -204 hlineto
          -23 -61 -84 -188 rlineto
          -12 hlineto
          -73 195 -16 54 rlineto
          -210 hlineto
          207 -446 1 -31 -10 -170 rlineto
          200 hlineto
          endchar
        </CharString>
        <CharString name="Z">
          16 0 148 -132 -21 504 148 3 -20 hstemhm
          24 529 hintmask 10101000
          538 504 rmoveto
          144 vlineto
          -76 -1 rlineto
          -274 hlineto
          hintmask 10011000
          -150 3 rlineto
          hintmask 01101000
          -14 -153 7 -8 120 10 rlineto
          157 hlineto
          -280 -362 rlineto
          -143 vlineto
          hintmask 10101000
          101 6 rlineto
          230 hlineto
          hintmask 01101000
          178 -5 rlineto
          hintmask 10101000
          16 153 -6 9 -123 -9 rlineto
          -161 hlineto
          endchar
        </CharString>
        <CharString name="Zacute">
          16 0 148 -132 -21 504 148 3 -20 hstemhm
          24 529 hintmask 10101000
          398 914 rmoveto
          -17 4 -71 -42 -71 -39 -83 -42 rlinecurve
          30 -79 17 -4 77 20 75 22 86 27 rlinecurve
          6 16 rlineto
          91 -293 rmoveto
          144 vlineto
          -76 -1 rlineto
          -274 hlineto
          hintmask 10011000
          -150 3 rlineto
          hintmask 01101000
          -14 -153 7 -8 120 10 rlineto
          157 hlineto
          -280 -362 rlineto
          -143 vlineto
          hintmask 10101000
          101 6 rlineto
          230 hlineto
          hintmask 01101000
          178 -5 rlineto
          hintmask 10101000
          16 153 -6 9 -123 -9 rlineto
          -161 hlineto
          endchar
        </CharString>
        <CharString name="Zcaron">
          16 0 148 -132 -21 504 148 3 -20 hstemhm
          24 529 hintmask 10101000
          421 907 rmoveto
          -18 hlineto
          -39 -20 -40 -20 -39 -20 -118 60 rcurveline
          -18 hlineto
          -34 -76 57 -39 51 -39 45 -41 rlinecurve
          34 hlineto
          45 41 51 39 57 39 rrcurveto
          83 -327 rmoveto
          144 vlineto
          -76 -1 rlineto
          -274 hlineto
          hintmask 10011000
          -150 3 rlineto
          hintmask 01101000
          -14 -153 7 -8 120 10 rlineto
          157 hlineto
          -280 -362 rlineto
          -143 vlineto
          hintmask 10101000
          101 6 rlineto
          230 hlineto
          hintmask 01101000
          178 -5 rlineto
          hintmask 10101000
          16 153 -6 9 -123 -9 rlineto
          -161 hlineto
          endchar
        </CharString>
        <CharString name="Zdotaccent">
          16 0 148 -132 -21 504 148 3 -20 74 199 hstemhm
          187 195 hintmask 10101100
          289 903 rmoveto
          -63 -39 -40 -64 -61 33 -34 61 62 39 40 64 60 -34 35 -59 hvcurveto
          249 -399 rmoveto
          144 vlineto
          -76 -1 rlineto
          -274 hlineto
          hintmask 10011100
          -150 3 rlineto
          hintmask 01101100
          -14 -153 7 -8 120 10 rlineto
          157 hlineto
          -280 -362 rlineto
          -143 vlineto
          hintmask 10101100
          101 6 rlineto
          230 hlineto
          hintmask 01101100
          178 -5 rlineto
          hintmask 10101100
          16 153 -6 9 -123 -9 rlineto
          -161 hlineto
          endchar
        </CharString>
        <CharString name="a">
          -5 0 205.5 -133.5 133.5 143.5 164 hstemhm
          7 527 hintmask 10110000
          346 hmoveto
          188 hlineto
          -144 513 rlineto
          -224 hlineto
          -159 -513 rlineto
          181 hlineto
          hintmask 01110000
          11 70 60 3 76 -2 rlineto
          hintmask 10110000
          -65 134 rmoveto
          -39 1 38 143 rlineto
          11 hlineto
          29 -143 rlineto
          endchar
        </CharString>
        <CharString name="a.sups">
          -190 315 94 52 63 36 95 hstem
          15 124 56 128 vstem
          187 655 rmoveto
          -50 -55 -12 -21 -44 hvcurveto
          15 -89 8 -5 rlineto
          23 45 31 9 27 hhcurveto
          23 9 -8 -23 hvcurveto
          -1 -5 -99 -12 rlineto
          -54 -8 -27 -31 -50 vvcurveto
          -67 47 -41 71 vhcurveto
          27 10 24 17 19 22 rrcurveto
          5 hlineto
          -35 12 16 -13 40 hhcurveto
          22 17 5 15 20 hvcurveto
          13 71 -9 8 rlineto
          -2 -4 -4 0 -4 hhcurveto
          -7 -2 5 11 hvcurveto
          17 5 87 22 vvcurveto
          64 -48 36 -88 vhcurveto
          8 -192 rmoveto
          -45 vlineto
          -6 -10 -11 -3 -10 hhcurveto
          -16 -9 9 18 15 7 5 12 3 hvcurveto
          endchar
        </CharString>
        <CharString name="aacute">
          -5 0 205.5 -133.5 133.5 143.5 164 hstemhm
          7 527 hintmask 10110000
          202 563 rmoveto
          17 -1 72 33 70 35 81 41 rlinecurve
          3 17 -69 107 -17 1 -63 -54 -63 -51 -75 -56 rlinecurve
          188 -635 rmoveto
          188 hlineto
          -144 513 rlineto
          -224 hlineto
          -159 -513 rlineto
          181 hlineto
          hintmask 01110000
          11 70 60 3 76 -2 rlineto
          hintmask 10110000
          -65 134 rmoveto
          -39 1 38 143 rlineto
          11 hlineto
          29 -143 rlineto
          endchar
        </CharString>
        <CharString name="abreve">
          -5 0 205.5 -133.5 133.5 143.5 164 63 135 hstemhm
          7 527 hintmask 10111000
          278 576 rmoveto
          104 57 68 68 22 hvcurveto
          -40 62 rlineto
          -27 hlineto
          -40 -19 -42 -23 -49 hhcurveto
          -49 -42 23 40 -21 hvcurveto
          -27 hlineto
          -40 -62 rlineto
          -64 19 51 -72 103 hhcurveto
          68 -576 rmoveto
          188 hlineto
          -144 513 rlineto
          -224 hlineto
          -159 -513 rlineto
          181 hlineto
          hintmask 01111000
          11 70 60 3 76 -2 rlineto
          hintmask 10111000
          -65 134 rmoveto
          -39 1 38 143 rlineto
          11 hlineto
          29 -143 rlineto
          endchar
        </CharString>
        <CharString name="abreveacute">
          -5 0 205.5 -133.5 133.5 143.5 164 49 134 hstemhm
          7 527 hintmask 10111000
          280 727 rmoveto
          15 5 44 38 43 40 42 41 rlinecurve
          -3 14 -89 57 -13 -4 -31 -50 -33 -48 -33 -48 rlinecurve
          57 -210 rmoveto
          87 64 44 80 30 hvcurveto
          -40 60 rlineto
          -27 hlineto
          -32 -21 -39 -18 -47 hhcurveto
          -52 -41 18 32 -22 hvcurveto
          -27 hlineto
          -40 -60 rlineto
          -80 28 62 -44 85 hhcurveto
          67 -562 rmoveto
          188 hlineto
          -144 513 rlineto
          -224 hlineto
          -159 -513 rlineto
          181 hlineto
          hintmask 01111000
          11 70 60 3 76 -2 rlineto
          hintmask 10111000
          -65 134 rmoveto
          -39 1 38 143 rlineto
          11 hlineto
          29 -143 rlineto
          endchar
        </CharString>
        <CharString name="abrevedotbelow">
          -5 -231 199 32 205.5 -133.5 133.5 143.5 164 63 135 hstemhm
          171 195 hintmask 11011100
          278 576 rmoveto
          104 57 68 68 22 hvcurveto
          -40 62 rlineto
          -27 hlineto
          -40 -19 -42 -23 -49 hhcurveto
          -49 -42 23 40 -21 hvcurveto
          -27 hlineto
          -40 -62 rlineto
          -64 19 51 -72 103 hhcurveto
          -90 -576 rmoveto
          hintmask 10111100
          11 70 60 3 76 -2 rlineto
          hintmask 11011100
          11 -71 rlineto
          188 hlineto
          -144 513 rlineto
          -224 hlineto
          -159 -513 rlineto
          262 349 rmoveto
          11 hlineto
          29 -143 -39 -1 -39 1 rlineto
          42 -238 rmoveto
          -63 -39 -40 -64 -61 33 -34 61 62 39 40 64 60 -34 35 -59 hvcurveto
          endchar
        </CharString>
        <CharString name="abrevegrave">
          -5 0 205.5 -133.5 133.5 143.5 164 49 134 hstemhm
          7 527 hintmask 10111000
          288 727 rmoveto
          58 45 -33 48 -33 48 -31 50 rlinecurve
          -13 4 -89 -57 -3 -14 42 -41 43 -40 44 -38 rlinecurve
          6 -170 rmoveto
          87 64 44 80 30 hvcurveto
          -40 60 rlineto
          -27 hlineto
          -32 -21 -39 -18 -47 hhcurveto
          -52 -41 18 32 -22 hvcurveto
          -27 hlineto
          -40 -60 rlineto
          -80 28 62 -44 85 hhcurveto
          67 -562 rmoveto
          188 hlineto
          -144 513 rlineto
          -224 hlineto
          -159 -513 rlineto
          181 hlineto
          hintmask 01111000
          11 70 60 3 76 -2 rlineto
          hintmask 10111000
          -65 134 rmoveto
          -39 1 38 143 rlineto
          11 hlineto
          29 -143 rlineto
          endchar
        </CharString>
        <CharString name="abrevehookabove">
          -5 0 205.5 -133.5 133.5 143.5 164 49 134 205 82 hstemhm
          7 527 -260 98 hintmask 00000000
          hintmask 10111010
          244 901 rmoveto
          17 13 -7 -17 -21 -20 -31 -34 -24 hvcurveto
          54 -80 64 39 -27 43 rlineto
          47 42 14 21 29 vvcurveto
          53 -44 35 -56 -46 -47 -24 -37 -34 vhcurveto
          29 -47 rlineto
          16 21 28 10 21 hhcurveto
          35 -339 rmoveto
          87 64 44 80 30 hvcurveto
          -40 60 rlineto
          -27 hlineto
          -32 -21 -39 -18 -47 hhcurveto
          -52 -41 18 32 -22 hvcurveto
          -27 hlineto
          -40 -60 rlineto
          -80 28 62 -44 85 hhcurveto
          67 -562 rmoveto
          188 hlineto
          -144 513 rlineto
          -224 hlineto
          -159 -513 rlineto
          181 hlineto
          hintmask 01111100
          11 70 60 3 76 -2 rlineto
          hintmask 10111100
          -65 134 rmoveto
          -39 1 38 143 rlineto
          11 hlineto
          29 -143 rlineto
          endchar
        </CharString>
        <CharString name="abrevetilde">
          -5 0 205.5 -133.5 133.5 143.5 164 49 125 hstemhm
          7 527 hintmask 10111000
          159 755 rmoveto
          15 hlineto
          26 21 18 27 23 hhcurveto
          24 68 -25 -6 47 hvcurveto
          15 5 74 103 rlineto
          15 vlineto
          -52 50 rlineto
          -15 hlineto
          -27 -21 -18 -26 -23 hhcurveto
          -24 -68 24 7 -48 hvcurveto
          -14 -6 -74 -102 rlineto
          -15 vlineto
          183 -118 rmoveto
          -48 -38 16 30 -21 hvcurveto
          -25 hlineto
          -37 -56 rlineto
          -74 26 58 -41 79 hhcurveto
          81 59 41 74 28 hvcurveto
          -37 56 rlineto
          -25 hlineto
          -30 -20 -36 -16 -44 hhcurveto
          56 -687 rmoveto
          188 hlineto
          -144 513 rlineto
          -224 hlineto
          -159 -513 rlineto
          181 hlineto
          hintmask 01111000
          11 70 60 3 76 -2 rlineto
          hintmask 10111000
          -65 134 rmoveto
          -39 1 38 143 rlineto
          11 hlineto
          29 -143 rlineto
          endchar
        </CharString>
        <CharString name="acaron">
          -5 0 205.5 -133.5 133.5 143.5 164 198 -20 hstemhm
          7 527 hintmask 10111000
          299 567 rmoveto
          56 55 58 54 49 41 -47 72 rcurveline
          -18 hlineto
          -44 -28 -42 -28 -29 -22 -29 22 -42 28 -44 28 rrcurveto
          -18 hlineto
          -47 -72 57 -49 59 -54 47 -47 rlinecurve
          81 -567 rmoveto
          188 hlineto
          -144 513 rlineto
          -224 hlineto
          -159 -513 rlineto
          181 hlineto
          hintmask 01111000
          11 70 60 3 76 -2 rlineto
          hintmask 10111000
          -65 134 rmoveto
          -39 1 38 143 rlineto
          11 hlineto
          29 -143 rlineto
          endchar
        </CharString>
        <CharString name="acircumflex">
          -5 0 205.5 -133.5 133.5 143.5 164 hstemhm
          7 527 hintmask 10110000
          149 571 rmoveto
          18 hlineto
          44 28 42 28 29 22 29 -22 42 -28 44 -28 rrcurveto
          18 hlineto
          47 72 -57 49 -59 54 -47 47 rlinecurve
          -34 hlineto
          -56 -55 -58 -54 -49 -41 rrcurveto
          244 -643 rmoveto
          188 hlineto
          -144 513 rlineto
          -224 hlineto
          -159 -513 rlineto
          181 hlineto
          hintmask 01110000
          11 70 60 3 76 -2 rlineto
          hintmask 10110000
          -65 134 rmoveto
          -39 1 38 143 rlineto
          11 hlineto
          29 -143 rlineto
          endchar
        </CharString>
        <CharString name="acircumflexacute">
          -5 0 205.5 -133.5 133.5 143.5 164 hstemhm
          7 527 hintmask 10110000
          404 715 rmoveto
          11 hlineto
          110 149 -5 13 -98 41 -12 -7 -70 -149 rlineto
          -195 -195 rmoveto
          18 hlineto
          39 20 40 20 39 20 118 -60 rcurveline
          18 hlineto
          34 76 -57 39 -51 39 -45 41 rlinecurve
          -34 hlineto
          -45 -41 -51 -39 -57 -39 rrcurveto
          235 -643 rmoveto
          188 hlineto
          -144 513 rlineto
          -224 hlineto
          -159 -513 rlineto
          181 hlineto
          hintmask 01110000
          11 70 60 3 76 -2 rlineto
          hintmask 10110000
          -65 134 rmoveto
          -39 1 38 143 rlineto
          11 hlineto
          29 -143 rlineto
          endchar
        </CharString>
        <CharString name="acircumflexdotbelow">
          -5 -231 199 32 205.5 -133.5 133.5 143.5 164 hstemhm
          171 195 hintmask 11011000
          149 571 rmoveto
          18 hlineto
          44 28 42 28 29 22 29 -22 42 -28 44 -28 rrcurveto
          18 hlineto
          47 72 -57 49 -59 54 -47 47 rlinecurve
          -34 hlineto
          -56 -55 -58 -54 -49 -41 rrcurveto
          86 -643 rmoveto
          hintmask 10111000
          11 70 60 3 76 -2 rlineto
          hintmask 11011000
          11 -71 rlineto
          188 hlineto
          -144 513 rlineto
          -224 hlineto
          -159 -513 rlineto
          262 349 rmoveto
          11 hlineto
          29 -143 -39 -1 -39 1 rlineto
          42 -238 rmoveto
          -63 -39 -40 -64 -61 33 -34 61 62 39 40 64 60 -34 35 -59 hvcurveto
          endchar
        </CharString>
        <CharString name="acircumflexgrave">
          -5 0 205.5 -133.5 133.5 143.5 164 hstemhm
          7 527 hintmask 10110000
          397 715 rmoveto
          11 hlineto
          64 47 -70 149 -12 7 -98 -41 -5 -13 rlineto
          -142 -297 rmoveto
          18 hlineto
          39 20 40 20 39 20 118 -60 rcurveline
          18 hlineto
          34 76 -57 39 -51 39 -45 41 rlinecurve
          -34 hlineto
          -45 -41 -51 -39 -57 -39 rrcurveto
          235 -643 rmoveto
          188 hlineto
          -144 513 rlineto
          -224 hlineto
          -159 -513 rlineto
          181 hlineto
          hintmask 01110000
          11 70 60 3 76 -2 rlineto
          hintmask 10110000
          -65 134 rmoveto
          -39 1 38 143 rlineto
          11 hlineto
          29 -143 rlineto
          endchar
        </CharString>
        <CharString name="acircumflexhookabove">
          -5 0 205.5 -133.5 133.5 143.5 164 376 78 hstemhm
          7 527 -139 94 hintmask 00000000
          hintmask 10110100
          367 889 rmoveto
          16 12 -7 -16 -20 -19 -30 -32 -22 hvcurveto
          51 -77 61 38 -26 41 rlineto
          45 40 14 20 27 vvcurveto
          51 -42 33 -54 -43 -45 -23 -35 -33 vhcurveto
          28 -45 rlineto
          15 20 27 10 20 hhcurveto
          -222 -322 rmoveto
          18 hlineto
          39 20 40 20 39 20 118 -60 rcurveline
          18 hlineto
          34 76 -57 39 -51 39 -45 41 rlinecurve
          -34 hlineto
          -45 -41 -51 -39 -57 -39 rrcurveto
          235 -643 rmoveto
          188 hlineto
          -144 513 rlineto
          -224 hlineto
          -159 -513 rlineto
          181 hlineto
          hintmask 01111000
          11 70 60 3 76 -2 rlineto
          hintmask 10111000
          -65 134 rmoveto
          -39 1 38 143 rlineto
          11 hlineto
          29 -143 rlineto
          endchar
        </CharString>
        <CharString name="acircumflextilde">
          -5 0 205.5 -133.5 133.5 143.5 164 hstemhm
          7 527 hintmask 10110000
          159 755 rmoveto
          15 hlineto
          26 21 18 27 23 hhcurveto
          24 68 -25 -6 47 hvcurveto
          15 5 74 103 rlineto
          15 vlineto
          -52 50 rlineto
          -15 hlineto
          -27 -21 -18 -26 -23 hhcurveto
          -24 -68 24 7 -48 hvcurveto
          -14 -6 -74 -102 rlineto
          -15 vlineto
          157 -43 rmoveto
          -45 -41 -51 -39 -57 -39 34 -76 rcurveline
          18 hlineto
          39 20 40 20 39 20 118 -60 rcurveline
          18 hlineto
          34 76 -57 39 -51 39 -45 41 rlinecurve
          48 -762 rmoveto
          188 hlineto
          -144 513 rlineto
          -224 hlineto
          -159 -513 rlineto
          181 hlineto
          hintmask 01110000
          11 70 60 3 76 -2 rlineto
          hintmask 10110000
          -65 134 rmoveto
          -39 1 38 143 rlineto
          11 hlineto
          29 -143 rlineto
          endchar
        </CharString>
        <CharString name="acute">
          594 -20 73 -20 hstem
          51 287 vstem
          269 754 rmoveto
          -17 1 -63 -54 -63 -51 -75 -56 rlinecurve
          44 -72 17 -1 72 33 70 35 81 41 rlinecurve
          3 17 rlineto
          endchar
        </CharString>
        <CharString name="acute.cap">
          537 206 hstem
          46 291 vstem
          288 739 rmoveto
          -17 4 -71 -42 -71 -39 -83 -42 rlinecurve
          30 -79 17 -4 77 20 75 22 86 27 rlinecurve
          6 16 rlineto
          endchar
        </CharString>
        <CharString name="adieresis">
          -5 0 205.5 -133.5 133.5 143.5 164 72 173 hstemhm
          101 170 23 170 hintmask 10111000
          183 585 rmoveto
          54 34 35 56 52 -30 30 -51 -55 -34 -34 -56 -53 29 -30 53 hvcurveto
          hintmask 10111100
          193 hmoveto
          54 34 35 56 52 -30 30 -51 -55 -34 -34 -56 -53 29 -30 53 hvcurveto
          -30 -585 rmoveto
          188 hlineto
          -144 513 rlineto
          -224 hlineto
          -159 -513 rlineto
          181 hlineto
          hintmask 01111000
          11 70 60 3 76 -2 rlineto
          hintmask 10111000
          -65 134 rmoveto
          -39 1 38 143 rlineto
          11 hlineto
          29 -143 rlineto
          endchar
        </CharString>
        <CharString name="adotbelow">
          -5 -231 199 32 205.5 -133.5 133.5 143.5 164 hstemhm
          171 195 hintmask 11011000
          188 hmoveto
          hintmask 10111000
          11 70 60 3 76 -2 rlineto
          hintmask 11011000
          11 -71 rlineto
          188 hlineto
          -144 513 rlineto
          -224 hlineto
          -159 -513 rlineto
          262 349 rmoveto
          11 hlineto
          29 -143 -39 -1 -39 1 rlineto
          42 -238 rmoveto
          -63 -39 -40 -64 -61 33 -34 61 62 39 40 64 60 -34 35 -59 hvcurveto
          endchar
        </CharString>
        <CharString name="ae">
          170 0 129 254 129 -13 13 hstemhm
          -11 734 -406 159.5 -136.5 152 hintmask 11010000
          723 122 rmoveto
          -10 12 rlineto
          hintmask 11000100
          -141 -5 rlineto
          -78 hlineto
          -4 48 162 44 -15 115 -11 10 rlineto
          hintmask 11001000
          -146 -44 -7 81 rlineto
          64 hlineto
          129 -6 rlineto
          hintmask 10110000
          11 122 rlineto
          hintmask 11000100
          -10 13 rlineto
          -440 hlineto
          -238 -512 rlineto
          165 hlineto
          24 86 156 46 4 -44 4 -88 rlineto
          370 hlineto
          hintmask 11001000
          -390 256 rmoveto
          -79 -24 58 130 rlineto
          11 hlineto
          endchar
        </CharString>
        <CharString name="aeacute">
          170 0 129 254 129 -13 13 hstemhm
          -11 734 -406 159.5 -136.5 152 hintmask 11010000
          345 561 rmoveto
          17 -1 72 33 70 35 81 41 rlinecurve
          3 17 -69 107 -17 1 -63 -54 -63 -51 -75 -56 rlinecurve
          422 -511 rmoveto
          -10 12 rlineto
          hintmask 11000100
          -141 -5 rlineto
          -78 hlineto
          -4 48 162 44 -15 115 -11 10 rlineto
          hintmask 11001000
          -146 -44 -7 81 rlineto
          64 hlineto
          129 -6 rlineto
          hintmask 10110000
          11 122 rlineto
          hintmask 11000100
          -10 13 rlineto
          -440 hlineto
          -238 -512 rlineto
          165 hlineto
          24 86 156 46 4 -44 4 -88 rlineto
          370 hlineto
          hintmask 11001000
          -390 256 rmoveto
          -79 -24 58 130 rlineto
          11 hlineto
          endchar
        </CharString>
        <CharString name="agrave">
          -5 0 205.5 -133.5 133.5 143.5 164 hstemhm
          7 527 hintmask 10110000
          382 563 rmoveto
          44 72 -75 56 -63 51 -63 54 rlinecurve
          -17 -1 -69 -107 3 -17 81 -41 70 -35 72 -33 rlinecurve
          -19 -562 rmoveto
          188 hlineto
          -144 513 rlineto
          -224 hlineto
          -159 -513 rlineto
          181 hlineto
          hintmask 01110000
          11 70 60 3 76 -2 rlineto
          hintmask 10110000
          -65 134 rmoveto
          -39 1 38 143 rlineto
          11 hlineto
          29 -143 rlineto
          endchar
        </CharString>
        <CharString name="ahookabove">
          -5 0 205.5 -133.5 133.5 143.5 164 78 -20 161 82 hstemhm
          7 527 -264 98 hintmask 00000000
          hintmask 10111010
          240 732 rmoveto
          17 13 -7 -17 -21 -20 -31 -34 -24 hvcurveto
          54 -80 64 39 -27 43 rlineto
          47 42 14 21 29 vvcurveto
          53 -44 35 -56 -46 -47 -24 -37 -34 vhcurveto
          29 -47 rlineto
          16 21 28 10 21 hhcurveto
          106 -732 rmoveto
          188 hlineto
          -144 513 rlineto
          -224 hlineto
          -159 -513 rlineto
          181 hlineto
          hintmask 01111100
          11 70 60 3 76 -2 rlineto
          hintmask 10111100
          -65 134 rmoveto
          -39 1 38 143 rlineto
          11 hlineto
          29 -143 rlineto
          endchar
        </CharString>
        <CharString name="amacron">
          -5 0 205.5 -133.5 133.5 143.5 164 99 120 hstemhm
          7 527 hintmask 10111000
          146 612 rmoveto
          276 hlineto
          9 107 -12 13 rlineto
          -276 hlineto
          -9 -107 rlineto
          212 -625 rmoveto
          188 hlineto
          -144 513 rlineto
          -224 hlineto
          -159 -513 rlineto
          181 hlineto
          hintmask 01111000
          11 70 60 3 76 -2 rlineto
          hintmask 10111000
          -65 134 rmoveto
          -39 1 38 143 rlineto
          11 hlineto
          29 -143 rlineto
          endchar
        </CharString>
        <CharString name="ampersand">
          126 -13 134 24 134 124 120 189 -20 hstemhm
          16 161 hintmask 00000000
          hintmask 11111000
          688 279 rmoveto
          -231 hlineto
          -13 -10 rlineto
          hintmask 10111000
          -101 -13 -44 -47 -86 hhcurveto
          -45 -33 13 27 -20 hvcurveto
          231 113 252 212 38 106 -13 47 -25 39 -37 34 rrcurveto
          -15 hlineto
          -45 -101 -84 -97 -104 -83 rrcurveto
          54 -4 -43 38 -94 hhcurveto
          -154 -90 -105 -164 -171 98 -96 175 hvcurveto
          hintmask 11111000
          125 84 49 109 43 hvcurveto
          146 hlineto
          12 120 rlineto
          -445 138 rmoveto
          22 9 -9 -17 -17 -8 -13 -15 -10 hvcurveto
          -28 -16 -28 -15 -29 -13 rrcurveto
          70 4 26 40 47 hhcurveto
          endchar
        </CharString>
        <CharString name="aogonek">
          -5 -197 98 -77 -21 197 205.5 -133.5 133.5 143.5 164 hstemhm
          7 551 -215 96 hintmask 00000000
          hintmask 10101100
          546 -79 rmoveto
          -10 hlineto
          hintmask 10101010
          -13 -21 -22 -7 -18 hhcurveto
          -25 -11 14 18 15 8 21 25 31 hvcurveto
          62 hlineto
          -144 513 rlineto
          -224 hlineto
          -159 -513 rlineto
          181 hlineto
          hintmask 01011010
          11 70 60 3 76 -2 rlineto
          hintmask 01101010
          11 -71 rlineto
          41 hlineto
          -32 -37 -12 -28 -32 vvcurveto
          -58 39 -42 65 37 32 14 32 42 vhcurveto
          -288 356 rmoveto
          -39 1 38 143 rlineto
          11 hlineto
          29 -143 rlineto
          endchar
        </CharString>
        <CharString name="approxequal">
          -74 44 418 hstem
          16 468 vstem
          161 318 rmoveto
          33 123 -47 -9 60 hvcurveto
          16 6 91 115 rlineto
          16 vlineto
          -50 63 rlineto
          -16 hlineto
          -31 -28 -23 -30 -26 hhcurveto
          -34 -123 46 11 -60 hvcurveto
          -16 -7 -92 -115 rlineto
          -16 vlineto
          51 -63 rlineto
          16 hlineto
          30 27 24 31 27 hhcurveto
          -213 vmoveto
          33 123 -47 -9 60 hvcurveto
          16 6 91 115 rlineto
          16 vlineto
          -50 63 rlineto
          -16 hlineto
          -31 -28 -23 -30 -26 hhcurveto
          -34 -123 46 11 -60 hvcurveto
          -16 -7 -92 -115 rlineto
          -16 vlineto
          51 -63 rlineto
          16 hlineto
          30 27 24 31 27 hhcurveto
          endchar
        </CharString>
        <CharString name="aring">
          -5 0 205.5 -133.5 133.5 143.5 164 66 76 64 78 hstemhm
          172 75 70 75 hintmask 10111110
          278 579 rmoveto
          75 39 41 73 69 -35 35 -71 -75 -39 -38 -73 -71 36 -36 70 hvcurveto
          3 140 rmoveto
          26 10 -9 -24 -23 -9 -8 -25 -26 -10 9 25 22 9 8 25 hvcurveto
          65 -719 rmoveto
          188 hlineto
          -144 513 rlineto
          -224 hlineto
          -159 -513 rlineto
          181 hlineto
          hintmask 01111110
          11 70 60 3 76 -2 rlineto
          hintmask 10111110
          -65 134 rmoveto
          -39 1 38 143 rlineto
          11 hlineto
          29 -143 rlineto
          endchar
        </CharString>
        <CharString name="aringacute">
          -5 0 205.5 -133.5 133.5 143.5 164 65 76 64 78 hstemhm
          173 75 70 75 hintmask 10111110
          181 814 rmoveto
          17 -6 79 9 77 11 89 15 rlinecurve
          8 15 -32 123 -16 6 -77 -32 -75 -29 -88 -30 rlinecurve
          10 -211 rmoveto
          -71 36 -36 70 75 39 41 73 69 -35 35 -71 -75 -39 -38 -73 vhcurveto
          145 hmoveto
          -23 -9 -8 -25 -26 -10 9 25 22 9 8 25 26 10 -9 -24 vhcurveto
          28 -685 rmoveto
          188 hlineto
          -144 513 rlineto
          -224 hlineto
          -159 -513 rlineto
          181 hlineto
          hintmask 01111110
          11 70 60 3 76 -2 rlineto
          hintmask 10111110
          -65 134 rmoveto
          -39 1 38 143 rlineto
          11 hlineto
          29 -143 rlineto
          endchar
        </CharString>
        <CharString name="arrowdown">
          -4 9 -21 490 -20 26 -20 hstemhm
          212 126 hintmask 10110000
          499 189 rmoveto
          -22 106 rlineto
          -24 hlineto
          -119 -111 rlineto
          hintmask 11010000
          8 294 rlineto
          hintmask 10110000
          -120 6 -14 -12 8 -288 -119 111 rlineto
          -24 hlineto
          -22 -106 210 -201 rlineto
          29 hlineto
          endchar
        </CharString>
        <CharString name="arrowdownleft">
          -4 47.5 107.5 hstem
          87 107 vstem
          443 152 rmoveto
          -163 6 214 202 -81 89 -18 2 -198 -210 -6 163 -17 17 -90 -59 6 -291 21 -21 289 -5 60 90 rlineto
          endchar
        </CharString>
        <CharString name="arrowdownright">
          -4 42 107 hstem
          356 107.5 vstem
          466 355 rmoveto
          -90 60 -17 -17 -6 -163 -202 214 -89 -81 -2 -18 210 -198 -163 -6 -17 -17 59 -90 291 6 21 21 rlineto
          endchar
        </CharString>
        <CharString name="arrowleft">
          -4 179 126 hstem
          25 496 vstem
          515 175 rmoveto
          6 120 -12 14 -288 -8 111 119 rlineto
          24 vlineto
          -106 22 -201 -210 rlineto
          -29 vlineto
          201 -209 106 22 rlineto
          24 vlineto
          -111 119 rlineto
          endchar
        </CharString>
        <CharString name="arrowright">
          -4 179 126 hstem
          29 496 vstem
          525 257 rmoveto
          -201 209 -106 -22 rlineto
          -24 vlineto
          111 -119 -294 8 -6 -120 12 -14 288 8 -111 -119 rlineto
          -24 vlineto
          106 -22 201 210 rlineto
          endchar
        </CharString>
        <CharString name="arrowup">
          -4 21 -21 hstem
          214 126 vstem
          501 295 rmoveto
          -210 201 rlineto
          -29 hlineto
          -209 -201 22 -106 rlineto
          24 hlineto
          119 111 -8 -294 120 -6 14 12 -8 288 119 -111 rlineto
          24 hlineto
          endchar
        </CharString>
        <CharString name="arrowupleft">
          -4 329 107 hstem
          85.5 107.5 vstem
          489 128 rmoveto
          -210 198 163 6 17 17 -59 90 -291 -6 -21 -21 -5 -289 90 -60 17 17 6 163 202 -214 89 81 rlineto
          endchar
        </CharString>
        <CharString name="arrowupright">
          -4 334 107.5 hstem
          356 107 vstem
          466 127 rmoveto
          -6 291 -21 21 -289 5 -60 -90 17 -17 163 -6 -214 -202 81 -89 18 -2 198 210 6 -163 17 -17 rlineto
          endchar
        </CharString>
        <CharString name="asciicircum">
          -94 370 132 hstem
          12 437 vstem
          449 161 rmoveto
          -134 341 rlineto
          -156 hlineto
          -17 -11 -130 -340 111 -40 13 7 92 252 rlineto
          9 hlineto
          91 -251 108 26 rlineto
          endchar
        </CharString>
        <CharString name="asciitilde">
          -74 151 205 hstem
          6 468 vstem
          151 212 rmoveto
          33 123 -47 -9 60 hvcurveto
          16 6 91 115 rlineto
          16 vlineto
          -50 63 rlineto
          -16 hlineto
          -31 -28 -23 -30 -26 hhcurveto
          -34 -123 46 11 -60 hvcurveto
          -16 -7 -92 -115 rlineto
          -16 vlineto
          51 -63 rlineto
          16 hlineto
          30 27 24 31 27 hhcurveto
          endchar
        </CharString>
        <CharString name="asterisk">
          -160 551 97 0 -20 hstemhm
          16 377 hintmask 01100000
          258 741 rmoveto
          -5 10 -34 -1 -35 -6 -28 -10 rlinecurve
          6 -118 9 -8 51 6 rlineto
          -72 -9 rmoveto
          -109 74 -12 -3 -9 -33 -5 -34 1 -30 rlinecurve
          114 -30 11 5 rlineto
          hintmask 10100000
          95 52 rmoveto
          -5 -11 23 -46 132 4 7 8 -12 33 -16 30 -17 24 rlinecurve
          -98 -115 rmoveto
          -12 1 -37 -35 45 -125 10 -4 27 22 24 23 18 25 rlinecurve
          -143 69 rmoveto
          -46 24 -104 -81 -1 -12 29 -18 31 -16 29 -8 rlinecurve
          64 100 rlineto
          endchar
        </CharString>
        <CharString name="at">
          312 -225 106 121 148 -134 -21 545 119 hstemhm
          19 127 67 156 362 125 hintmask 00000000
          hintmask 11011110
          856 327 rmoveto
          209 -146 123 -219 -286 -186 -209 -267 -265 184 -143 278 vhcurveto
          50 89 -7 17 rlineto
          -226 -152 117 206 188 126 140 195 8 hvcurveto
          161 7 103 -87 -139 vvcurveto
          -94 -47 -75 -75 -19 vhcurveto
          43 321 -11 8 -103 -21 -92 15 rlineto
          -6 hlineto
          -158 -53 -69 -135 -114 vvcurveto
          hintmask 10111110
          -77 26 -56 104 -26 vhcurveto
          22 hlineto
          hintmask 11011010
          28 34 22 37 20 39 rrcurveto
          15 hlineto
          -14 -103 rlineto
          hintmask 11011110
          268 152 115 210 hvcurveto
          -467 -177 rmoveto
          -13 -7 21 53 72 14 37 31 hvcurveto
          64 -16 -3 -21 rlineto
          -100 -41 -26 -46 -19 hhcurveto
          endchar
        </CharString>
        <CharString name="atilde">
          -5 0 205.5 -133.5 133.5 143.5 164 hstemhm
          7 527 hintmask 10110000
          142 568 rmoveto
          16 hlineto
          29 23 20 29 26 hhcurveto
          26 75 -27 -7 52 hvcurveto
          16 6 81 113 rlineto
          16 vlineto
          -57 55 rlineto
          -16 hlineto
          -29 -23 -20 -29 -26 hhcurveto
          -26 -75 27 7 -52 hvcurveto
          -16 -6 -81 -113 rlineto
          -16 vlineto
          261 -623 rmoveto
          188 hlineto
          -144 513 rlineto
          -224 hlineto
          -159 -513 rlineto
          181 hlineto
          hintmask 01110000
          11 70 60 3 76 -2 rlineto
          hintmask 10110000
          -65 134 rmoveto
          -39 1 38 143 rlineto
          11 hlineto
          29 -143 rlineto
          endchar
        </CharString>
        <CharString name="b">
          4 -6 123 -96 -21 191 117.5 80.5 124 hstemhm
          57.5 175.5 90 192 -177 191 hintmask 10111010
          433 263 rmoveto
          hintmask 01111100
          53 25 29 42 49 vvcurveto
          89 -78 45 -125 vhcurveto
          -259 hlineto
          9 -364 -9 -149 rlineto
          hintmask 10111010
          -3 63 85 -3 43 hhcurveto
          186 99 44 111 57 -27 36 -69 21 hvcurveto
          hintmask 10111100
          -110 88 rmoveto
          -24 -11 -11 -26 -9 vhcurveto
          -54 3 2 79 rlineto
          72 17 -6 -32 hvcurveto
          hintmask 10111010
          -43 -234 rmoveto
          -11 -19 1 2 -20 hvcurveto
          -2 48 1 22 74 2 rlineto
          25 -11 10 -9 -15 vvcurveto
          -27 -23 -13 -35 vhcurveto
          endchar
        </CharString>
        <CharString name="b.sups">
          -170 314 85 143 109 0 -20 hstemhm
          36.5 133.5 70 130 hintmask 10111000
          238 651 rmoveto
          -25 -12 -23 -17 -19 -22 rrcurveto
          -3 hlineto
          4 204 -138 -9 5 -342 -6 -126 12 -13 58 18 rlineto
          -12 33 33 -6 30 hhcurveto
          103 68 61 118 99 -48 59 -84 hvcurveto
          -49 -252 rmoveto
          -7 -8 1 3 -8 hvcurveto
          hintmask 11011000
          -1 67 1 65 rlineto
          5 10 9 2 9 hhcurveto
          33 13 -22 -46 hvcurveto
          hintmask 10111000
          -59 -20 -16 -31 vhcurveto
          endchar
        </CharString>
        <CharString name="backslash">
          -274 667 16 hstem
          -28 354 vstem
          118 683 rmoveto
          -131 hlineto
          -15 -16 208 -785 rlineto
          135 hlineto
          11 15 rlineto
          endchar
        </CharString>
        <CharString name="bar">
          -254 -256 1066 hstem
          75.5 146 vstem
          226 797 rmoveto
          -14 13 -135 -11 -1 -520 -1 -519 15 -16 132 11 -1 539 rlineto
          endchar
        </CharString>
        <CharString name="braceleft">
          -252 -104 116 531 116 hstemhm
          26 141 -108 152 -130 156 hintmask 11010000
          218 659 rmoveto
          -103 -56 -46 -78 hvcurveto
          hintmask 11001000
          -58 22 -47 -39 vvcurveto
          -31 -19 -24 -36 -15 vhcurveto
          -87 vlineto
          36 -15 19 -24 -31 vvcurveto
          hintmask 11010000
          -39 -22 -47 -58 vvcurveto
          -78 56 -46 103 28 26 4 8 26 vhcurveto
          7 13 -15 96 rlineto
          -3 -11 -11 -2 -11 hhcurveto
          -30 -16 18 30 hvcurveto
          hintmask 11001000
          35 26 37 41 vvcurveto
          hintmask 11100000
          40 -24 39 -46 22 vhcurveto
          7 vlineto
          hintmask 11001000
          46 22 24 38 43 vvcurveto
          hintmask 11010000
          37 -26 40 34 vvcurveto
          30 16 18 30 11 11 -2 -3 11 vhcurveto
          15 96 -7 13 rlineto
          8 -26 -26 4 -28 hhcurveto
          endchar
        </CharString>
        <CharString name="braceright">
          -252 -104 116 531 116 0 -20 hstemhm
          65 156 -130 152 -108 141 hintmask 10101000
          84 -104 rmoveto
          103 56 46 78 hvcurveto
          hintmask 10110000
          58 -22 47 39 vvcurveto
          31 19 24 36 15 vhcurveto
          87 vlineto
          -36 15 -19 24 31 vvcurveto
          hintmask 10101000
          39 22 47 58 vvcurveto
          78 -56 46 -103 -28 -26 -4 -8 -26 vhcurveto
          hintmask 11001000
          -7 -13 15 -96 rlineto
          3 11 11 2 11 hhcurveto
          30 16 -18 -30 hvcurveto
          hintmask 10110000
          -35 -26 -37 -41 vvcurveto
          hintmask 10100100
          -40 24 -39 46 -22 vhcurveto
          -7 vlineto
          hintmask 10110000
          -46 -22 -24 -38 -43 vvcurveto
          hintmask 10101000
          -37 26 -40 -34 vvcurveto
          -30 -16 -18 -30 -11 -11 2 3 -11 vhcurveto
          -15 -96 7 -13 rlineto
          -8 26 26 -4 28 hhcurveto
          endchar
        </CharString>
        <CharString name="bracketleft">
          -252 539 110 0 -20 hstemhm
          64.5 152.5 87 7 hintmask 01110000
          311 640 rmoveto
          -7 9 -245 -10 11 -376 -11 -376 245 -10 7 9 rlineto
          86 vlineto
          -94 15 rlineto
          hintmask 10110000
          552 vlineto
          94 15 rlineto
          endchar
        </CharString>
        <CharString name="bracketright">
          -252 539 110 0 -20 hstemhm
          -9 7 87 152.5 hintmask 01110000
          -9 -114 rmoveto
          7 -9 245 10 -11 376 11 376 -245 10 -7 -9 rlineto
          hintmask 10110000
          -86 vlineto
          94 -15 rlineto
          -552 vlineto
          -94 -15 rlineto
          endchar
        </CharString>
        <CharString name="breve">
          535 135 hstem
          16 356 vstem
          332 733 rmoveto
          -27 hlineto
          -40 -19 -42 -23 -49 hhcurveto
          -49 -42 23 40 -21 hvcurveto
          -27 hlineto
          -40 -62 rlineto
          -64 19 51 -72 103 hhcurveto
          104 57 68 68 22 hvcurveto
          endchar
        </CharString>
        <CharString name="breve.cap">
          541 134 hstem
          16 356 vstem
          332 725 rmoveto
          -27 hlineto
          -32 -21 -39 -18 -47 hhcurveto
          -52 -41 18 32 -22 hvcurveto
          -27 hlineto
          -40 -60 rlineto
          -80 28 62 -44 85 hhcurveto
          87 64 44 80 30 hvcurveto
          endchar
        </CharString>
        <CharString name="breveacute">
          521 134 50 -20 hstem
          16 356 vstem
          333 824 rmoveto
          -89 57 -13 -4 -31 -50 -33 -48 -33 -48 rlinecurve
          58 -45 15 5 44 38 43 40 42 41 rlinecurve
          -4 -105 rmoveto
          -27 hlineto
          -32 -21 -39 -18 -47 hhcurveto
          -52 -41 18 32 -22 hvcurveto
          -27 hlineto
          -40 -60 rlineto
          -80 28 62 -44 85 hhcurveto
          87 64 44 80 30 hvcurveto
          endchar
        </CharString>
        <CharString name="brevegrave">
          521 134 50 -20 hstem
          16 356 vstem
          148 881 rmoveto
          -89 -57 -3 -14 42 -41 43 -40 44 -38 rlinecurve
          15 -5 58 45 -33 48 -33 48 -31 50 rlinecurve
          171 -172 rmoveto
          -27 hlineto
          -32 -21 -39 -18 -47 hhcurveto
          -52 -41 18 32 -22 hvcurveto
          -27 hlineto
          -40 -60 rlineto
          -80 28 62 -44 85 hhcurveto
          87 64 44 80 30 hvcurveto
          endchar
        </CharString>
        <CharString name="brevehookabove">
          521 134 50 -20 175 82 hstemhm
          186 98 hintmask 00000000
          hintmask 11110000
          184 942 rmoveto
          -46 -47 -24 -37 -34 hvcurveto
          29 -47 rlineto
          16 21 28 10 21 hhcurveto
          17 13 -7 -17 -21 -20 -31 -34 -24 hvcurveto
          54 -80 64 39 -27 43 rlineto
          47 42 14 21 29 vvcurveto
          53 -44 35 -56 vhcurveto
          148 -237 rmoveto
          -27 hlineto
          -32 -21 -39 -18 -47 hhcurveto
          -52 -41 18 32 -22 hvcurveto
          -27 hlineto
          -40 -60 rlineto
          -80 28 62 -44 85 hhcurveto
          87 64 44 80 30 hvcurveto
          endchar
        </CharString>
        <CharString name="brevetilde">
          521 125 hstem
          19 357 vstem
          376 859 rmoveto
          -52 50 rlineto
          -15 hlineto
          -27 -21 -18 -26 -23 hhcurveto
          -24 -68 24 7 -48 hvcurveto
          -14 -6 -74 -102 rlineto
          -15 vlineto
          52 -50 rlineto
          15 hlineto
          26 21 18 27 23 hhcurveto
          24 68 -25 -6 47 hvcurveto
          15 5 74 103 rlineto
          -49 -152 rmoveto
          -25 hlineto
          -30 -20 -36 -16 -44 hhcurveto
          -48 -38 16 30 -21 hvcurveto
          -25 hlineto
          -37 -56 rlineto
          -74 26 58 -41 79 hhcurveto
          81 59 41 74 28 hvcurveto
          endchar
        </CharString>
        <CharString name="brokenbar">
          -254 -256 1066 hstemhm
          75.5 146 -145 147.5 hintmask 10100000
          226 797 rmoveto
          -14 13 -135 -11 -1 -423 13 -11 133 17 rlineto
          hintmask 11000000
          -1 -237 rmoveto
          -15 16 -130 -15 -1 -386 15 -16 132 11 rlineto
          endchar
        </CharString>
        <CharString name="bullet">
          -252 123 274 hstem
          16 269 vstem
          157 397 rmoveto
          -87 -54 -55 -88 -85 46 -46 84 85 54 55 88 83 -47 48 -81 hvcurveto
          endchar
        </CharString>
        <CharString name="bulletoperator">
          -252 123 274 hstem
          16 269 vstem
          157 397 rmoveto
          -87 -54 -55 -88 -85 46 -46 84 85 54 55 88 83 -47 48 -81 hvcurveto
          endchar
        </CharString>
        <CharString name="c">
          -107 -10 153 229 150 hstem
          18 196 vstem
          306 522 rmoveto
          -184 -104 -100 -171 -169 91 -92 188 35 38 1 7 39 hvcurveto
          15 146 -15 9 rlineto
          -6 -28 -42 -4 -27 hhcurveto
          -68 -30 38 92 75 25 24 60 29 42 -8 -13 28 hvcurveto
          12 8 31 147 rlineto
          10 -40 -45 6 -50 hhcurveto
          endchar
        </CharString>
        <CharString name="c.sups">
          -282 314 108 121 112 hstem
          14 132 vstem
          185 655 rmoveto
          -109 -62 -64 -112 -106 53 -59 93 30 29 1 7 28 hvcurveto
          14 101 -10 8 rlineto
          -6 -24 -17 -3 -16 hhcurveto
          -33 -15 21 51 35 12 14 27 16 14 -5 -9 22 hvcurveto
          9 5 23 105 rlineto
          10 -24 -29 6 -31 hhcurveto
          endchar
        </CharString>
        <CharString name="cacute">
          -107 -10 153 229 150 hstem
          18 196 vstem
          373 795 rmoveto
          -17 1 -63 -54 -63 -51 -75 -56 rlinecurve
          44 -72 17 -1 72 33 70 35 81 41 rlinecurve
          3 17 rlineto
          -136 -166 rmoveto
          -184 -104 -100 -171 -169 91 -92 188 35 38 1 7 39 hvcurveto
          15 146 -15 9 rlineto
          -6 -28 -42 -4 -27 hhcurveto
          -68 -30 38 92 75 25 24 60 29 42 -8 -13 28 hvcurveto
          12 8 31 147 rlineto
          10 -40 -45 6 -50 hhcurveto
          endchar
        </CharString>
        <CharString name="caron">
          526 222 hstem
          13 360 vstem
          326 748 rmoveto
          -18 hlineto
          -44 -28 -42 -28 -29 -22 -29 22 -42 28 -44 28 rrcurveto
          -18 hlineto
          -47 -72 57 -49 59 -54 47 -47 rlinecurve
          34 hlineto
          56 55 58 54 49 41 rrcurveto
          endchar
        </CharString>
        <CharString name="caron.alt">
          501 256 hstem
          120 149 vstem
          269 746 rmoveto
          -10 11 -139 -8 10 -238 13 -10 82 13 rlineto
          endchar
        </CharString>
        <CharString name="caron.cap">
          656 -20 hstem
          23 340 vstem
          329 732 rmoveto
          -18 hlineto
          -39 -20 -40 -20 -39 -20 -118 60 rcurveline
          -18 hlineto
          -34 -76 57 -39 51 -39 45 -41 rlinecurve
          34 hlineto
          45 41 51 39 57 39 rrcurveto
          endchar
        </CharString>
        <CharString name="ccaron">
          -107 -10 153 229 150 189 -20 hstem
          18 196 vstem
          412 789 rmoveto
          -18 hlineto
          -44 -28 -42 -28 -29 -22 -29 22 -42 28 -44 28 rrcurveto
          -18 hlineto
          -47 -72 57 -49 59 -54 47 -47 rlinecurve
          34 hlineto
          56 55 58 54 49 41 rrcurveto
          -153 -195 rmoveto
          -184 -104 -100 -171 -169 91 -92 188 35 38 1 7 39 hvcurveto
          15 146 -15 9 rlineto
          -6 -28 -42 -4 -27 hhcurveto
          -68 -30 38 92 75 25 24 60 29 42 -8 -13 28 hvcurveto
          12 8 31 147 rlineto
          10 -40 -45 6 -50 hhcurveto
          endchar
        </CharString>
        <CharString name="ccedilla">
          -107 -208 74 -29 -21 174 153 -132 -21 26 -21 377 150 hstemhm
          18 196 63 107 hintmask 00000000
          hintmask 01100110
          312 143 rmoveto
          -68 -30 38 92 75 25 24 60 29 42 -8 -13 28 hvcurveto
          12 8 31 147 rlineto
          10 -40 -45 6 -50 hhcurveto
          -184 -104 -100 -171 hvcurveto
          hintmask 10001111
          -147 69 -89 142 -20 vhcurveto
          -14 -73 50 -27 rlineto
          8 -4 4 -4 -7 vvcurveto
          -9 -5 -5 -11 -14 -25 10 18 -21 vhcurveto
          -8 -3 rlineto
          hintmask 01001110
          -11 -75 rlineto
          hintmask 10010111
          -15 27 30 -9 35 hhcurveto
          69 41 36 48 24 -10 21 -34 18 hvcurveto
          -34 19 6 32 rlineto
          31 32 2 6 34 hvcurveto
          hintmask 01100110
          15 146 -15 9 rlineto
          -6 -28 -42 -4 -27 hhcurveto
          endchar
        </CharString>
        <CharString name="ccircumflex">
          -107 -10 153 229 150 hstem
          18 196 vstem
          146 571 rmoveto
          18 hlineto
          44 28 42 28 29 22 29 -22 42 -28 44 -28 rrcurveto
          18 hlineto
          47 72 -57 49 -59 54 -47 47 rlinecurve
          -34 hlineto
          -56 -55 -58 -54 -49 -41 rrcurveto
          207 -121 rmoveto
          -184 -104 -100 -171 -169 91 -92 188 35 38 1 7 39 hvcurveto
          15 146 -15 9 rlineto
          -6 -28 -42 -4 -27 hhcurveto
          -68 -30 38 92 75 25 24 60 29 42 -8 -13 28 hvcurveto
          12 8 31 147 rlineto
          10 -40 -45 6 -50 hhcurveto
          endchar
        </CharString>
        <CharString name="cdotaccent">
          -107 -10 153 229 150 48 199 hstemhm
          18 196 -33 195 hintmask 00000000
          hintmask 11101000
          283 769 rmoveto
          -63 -39 -40 -64 -61 33 -34 61 62 39 40 64 60 -34 35 -59 hvcurveto
          23 -247 rmoveto
          hintmask 11110000
          -184 -104 -100 -171 -169 91 -92 188 35 38 1 7 39 hvcurveto
          15 146 -15 9 rlineto
          -6 -28 -42 -4 -27 hhcurveto
          -68 -30 38 92 75 25 24 60 29 42 -8 -13 28 hvcurveto
          12 8 31 147 rlineto
          hintmask 11101000
          10 -40 -45 6 -50 hhcurveto
          endchar
        </CharString>
        <CharString name="cedilla">
          -209 74 -29 -21 hstemhm
          98 202 -107 107 hintmask 00000000
          hintmask 10010000
          222 -43 rmoveto
          14 76 rlineto
          -83 hlineto
          -22 -112 50 -27 rlineto
          8 -4 4 -4 -7 vvcurveto
          -9 -5 -5 -11 -14 -25 10 18 -21 vhcurveto
          -8 -3 rlineto
          hintmask 01100000
          -11 -75 rlineto
          hintmask 10010000
          -15 27 30 -9 35 hhcurveto
          69 41 36 48 24 -10 21 -34 18 hvcurveto
          endchar
        </CharString>
        <CharString name="cent">
          -172 -129 15 632 -20 148 -20 20 16 hstemhm
          14 186 -57 149 -118.5 150 hintmask 00000000
          hintmask 11101000
          273 179 rmoveto
          -50 -23 33 76 53 19 24 42 hvcurveto
          hintmask 11010010
          22 22 -8 -13 32 hvcurveto
          14 7 31 148 -18 8 -21 6 -23 5 rlinecurve
          7 128 -19 16 rlineto
          -131 hlineto
          -7 -151 rlineto
          hintmask 11101000
          -100 -31 -56 -85 -128 vvcurveto
          -120 47 -79 86 -29 vhcurveto
          hintmask 11100100
          -8 -153 14 -15 rlineto
          135 hlineto
          8 159 19 2 18 4 18 4 rlinecurve
          20 143 -13 11 rlineto
          hintmask 11101000
          -10 -36 -25 -5 -24 hhcurveto
          endchar
        </CharString>
        <CharString name="circle1">
          -82 9 -21 hstem
          -2 476 vstem
          236 464 rmoveto
          -131 -107 -107 -131 -131 107 -107 131 131 107 107 131 131 -107 107 -131 hvcurveto
          endchar
        </CharString>
        <CharString name="circle2">
          93 649 -20 hstem
          -8 663 vstem
          323 649 rmoveto
          -183 -148 -149 -183 -183 148 -148 183 183 149 148 183 183 -149 149 -183 hvcurveto
          endchar
        </CharString>
        <CharString name="circumflex">
          530 222 hstem
          13 360 vstem
          60 530 rmoveto
          18 hlineto
          44 28 42 28 29 22 29 -22 42 -28 44 -28 rrcurveto
          18 hlineto
          47 72 -57 49 -59 54 -47 47 rlinecurve
          -34 hlineto
          -56 -55 -58 -54 -49 -41 rrcurveto
          endchar
        </CharString>
        <CharString name="circumflex.cap">
          546 195 hstem
          23 340 vstem
          57 546 rmoveto
          18 hlineto
          39 20 40 20 39 20 118 -60 rcurveline
          18 hlineto
          34 76 -57 39 -51 39 -45 41 rlinecurve
          -34 hlineto
          -45 -41 -51 -39 -57 -39 rrcurveto
          endchar
        </CharString>
        <CharString name="circumflexacute">
          526 351 hstem
          23 414 vstem
          432 836 rmoveto
          -98 41 -12 -7 -70 -149 64 -47 rlineto
          11 hlineto
          110 149 rlineto
          -380 -297 rmoveto
          18 hlineto
          39 20 40 20 39 20 118 -60 rcurveline
          18 hlineto
          34 76 -57 39 -51 39 -45 41 rlinecurve
          -34 hlineto
          -45 -41 -51 -39 -57 -39 rrcurveto
          endchar
        </CharString>
        <CharString name="circumflexgrave">
          526 351 hstem
          23 361 vstem
          314 870 rmoveto
          -12 7 -98 -41 -5 -13 110 -149 rlineto
          11 hlineto
          64 47 rlineto
          -327 -195 rmoveto
          18 hlineto
          39 20 40 20 39 20 118 -60 rcurveline
          18 hlineto
          34 76 -57 39 -51 39 -45 41 rlinecurve
          -34 hlineto
          -45 -41 -51 -39 -57 -39 rrcurveto
          endchar
        </CharString>
        <CharString name="circumflexhookabove">
          848 78 hstemhm
          307 94 hintmask 00000000
          hintmask 11000000
          305 926 rmoveto
          -43 -45 -23 -35 -33 hvcurveto
          28 -45 rlineto
          15 20 27 10 20 hhcurveto
          16 12 -7 -16 -20 -19 -30 -32 -22 hvcurveto
          51 -77 61 38 -26 41 rlineto
          45 40 14 20 27 vvcurveto
          51 -42 33 -54 vhcurveto
          -248 -400 rmoveto
          18 hlineto
          39 20 40 20 39 20 118 -60 rcurveline
          18 hlineto
          34 76 -57 39 -51 39 -45 41 rlinecurve
          -34 hlineto
          -45 -41 -51 -39 -57 -39 rrcurveto
          endchar
        </CharString>
        <CharString name="circumflextilde">
          526 383 hstem
          19 357 vstem
          376 859 rmoveto
          -52 50 rlineto
          -15 hlineto
          -27 -21 -18 -26 -23 hhcurveto
          -24 -68 24 7 -48 hvcurveto
          -14 -6 -74 -102 rlineto
          -15 vlineto
          52 -50 rlineto
          15 hlineto
          26 21 18 27 23 hhcurveto
          24 68 -25 -6 47 hvcurveto
          15 5 74 103 rlineto
          -319 -318 rmoveto
          18 hlineto
          39 20 40 20 39 20 118 -60 rcurveline
          18 hlineto
          34 76 -57 39 -51 39 -45 41 rlinecurve
          -34 hlineto
          -45 -41 -51 -39 -57 -39 rrcurveto
          endchar
        </CharString>
        <CharString name="colon">
          -326 -9 199 -178 -21 255 199 hstemhm
          11 195 hintmask 01110000
          113 445 rmoveto
          -63 -39 -40 -64 -61 33 -34 61 62 39 40 64 60 -34 35 -59 hvcurveto
          hintmask 10110000
          -255 vmoveto
          -63 -39 -40 -64 -61 33 -34 61 62 39 40 64 60 -34 35 -59 hvcurveto
          endchar
        </CharString>
        <CharString name="comma">
          -326 -142 325 hstemhm
          50 159 hintmask 00000000
          hintmask 11000000
          161 183 rmoveto
          -51 -13 -47 -20 -45 -25 -1 -16 rcurveline
          23 -23 10 -23 -29 vvcurveto
          -42 -18 -34 -38 -33 vhcurveto
          2 -14 61 -53 rlineto
          104 72 48 69 78 vvcurveto
          42 -15 33 -33 31 vhcurveto
          endchar
        </CharString>
        <CharString name="commaaccent">
          -554 -68 -21 hstemhm
          59 136 hintmask 00000000
          hintmask 11000000
          154 -25 rmoveto
          -44 -11 -40 -17 -39 -22 rrcurveto
          -14 vlineto
          19 -19 9 -20 -25 vvcurveto
          -36 -16 -29 -32 -28 vhcurveto
          2 -12 52 -46 rlineto
          89 62 41 59 67 vvcurveto
          36 -13 28 -28 27 vhcurveto
          endchar
        </CharString>
        <CharString name="copyright">
          135 -12 61 80 103 129 103 73 61 hstem
          40 62 87 134 264 62 vstem
          344 598 rmoveto
          -182 -122 -122 -183 -183 122 -122 182 183 122 122 183 183 -122 122 -183 hvcurveto
          -61 vmoveto
          145 98 -98 -146 -146 -98 -98 -145 -144 -98 98 146 146 98 98 144 hvcurveto
          30 -73 rmoveto
          -118 -67 -64 -108 -106 58 -57 121 21 23 -2 4 24 hvcurveto
          10 99 -10 6 rlineto
          -2 -17 -25 -2 -16 hhcurveto
          -40 -15 22 53 43 12 11 34 17 26 -4 -7 17 hvcurveto
          7 5 22 100 rlineto
          5 -26 -27 4 -31 hhcurveto
          endchar
        </CharString>
        <CharString name="currency">
          -120 166 101 144 101 hstem
          57 101 144 101 vstem
          458 490 rmoveto
          -89 84 -17 -3 -57 -72 rlineto
          8 -20 -22 5 -23 hhcurveto
          -26 -24 -6 -10 -22 hvcurveto
          -60 71 -16 1 -84 -89 3 -17 70 -55 rlineto
          -9 -21 -5 -23 -24 vvcurveto
          -26 6 -25 11 -22 vhcurveto
          -70 -59 -1 -16 89 -84 17 3 54 70 rlineto
          -9 21 23 -5 23 hhcurveto
          27 26 6 12 23 hvcurveto
          59 -71 rlineto
          16 hlineto
          84 89 -3 17 -72 55 rlineto
          8 20 5 22 23 vvcurveto
          26 -6 25 -11 23 vhcurveto
          72 61 rlineto
          -228 -63 rmoveto
          45 27 -27 -45 -45 -27 -27 -45 -45 -27 27 45 45 27 27 45 hvcurveto
          endchar
        </CharString>
        <CharString name="d">
          21 -8 137 -108 -21 372 144 hstemhm
          57.5 176.5 129 194 hintmask 10111000
          53 513 rmoveto
          9 -364 rlineto
          hintmask 01111000
          -9 -149 rlineto
          hintmask 10111000
          -4 69 83 -4 58 hhcurveto
          189 105 102 184 153 -89 85 -161 hvcurveto
          -9 -387 rmoveto
          -16 -26 4 4 -24 hvcurveto
          -1 31 6 201 rlineto
          2 22 16 1 16 hhcurveto
          55 17 -31 -109 -81 -26 -22 -39 hvcurveto
          endchar
        </CharString>
        <CharString name="d.sups">
          -168 315 103 143 92 hstem
          14 129 69 131 vstem
          348 804 rmoveto
          -137 -9 2 -143 rlineto
          -11 -8 1 -6 hhcurveto
          -106 -68 -58 -115 -100 53 -65 90 hvcurveto
          22 13 21 14 19 19 rrcurveto
          5 hlineto
          -36 15 20 -9 33 hhcurveto
          25 22 5 15 21 hvcurveto
          14 71 -9 8 rlineto
          -2 -5 -4 0 -3 hhcurveto
          -7 -3 5 10 hvcurveto
          -157 133 rmoveto
          9 9 -1 -3 10 hvcurveto
          3 -125 rlineto
          -9 -13 -11 -5 -11 hhcurveto
          -26 -13 22 57 52 12 12 31 hvcurveto
          endchar
        </CharString>
        <CharString name="dagger">
          -29 -73 -21 30 -21 379 128 171 -20 hstemhm
          193 130 -129.5 132.5 hintmask 01111000
          323 294 rmoveto
          156 hlineto
          9 115 -12 13 rlineto
          hintmask 01110100
          -151 hlineto
          2 160 -11 11 -122 -9 -1 -162 rlineto
          -147 hlineto
          -9 -115 12 -13 rlineto
          hintmask 10111000
          144 -15 hlineto
          -360 vlineto
          12 -13 rlineto
          hintmask 01111000
          119 9 -1 376 rlineto
          endchar
        </CharString>
        <CharString name="daggerdbl">
          -29 -73 -21 30 -21 136 128 132 128 154 -20 hstemhm
          193 130 -129 132 hintmask 01111010
          476 179 rmoveto
          hintmask 01111100
          -153 112 hlineto
          20 156 vlineto
          9 115 -12 13 rlineto
          hintmask 10111010
          -151 hlineto
          2 143 -11 11 -122 -9 rlineto
          -145 -148 vlineto
          -9 -115 12 -13 rlineto
          144 -32 hlineto
          -100 -147 vlineto
          -9 -115 12 -13 rlineto
          144 -132 hlineto
          12 -13 rlineto
          hintmask 01111010
          119 9 rlineto
          136 155 vlineto
          9 115 rlineto
          endchar
        </CharString>
        <CharString name="dcaron">
          21 -8 137 -108 -21 372 144 195 -20 hstemhm
          57.5 176.5 129 194 hintmask 10111100
          290 567 rmoveto
          56 55 58 54 49 41 -47 72 rcurveline
          -18 hlineto
          -44 -28 -42 -28 -29 -22 -29 22 -42 28 -44 28 rrcurveto
          -18 hlineto
          -47 -72 57 -49 59 -54 47 -47 rlinecurve
          -203 -54 rmoveto
          9 -364 rlineto
          hintmask 01111100
          -9 -149 rlineto
          hintmask 10111100
          -4 69 83 -4 58 hhcurveto
          189 105 102 184 153 -89 85 -161 hvcurveto
          -9 -387 rmoveto
          -16 -26 4 4 -24 hvcurveto
          -1 31 6 201 rlineto
          2 22 16 1 16 hhcurveto
          55 17 -31 -109 -81 -26 -22 -39 hvcurveto
          endchar
        </CharString>
        <CharString name="dcroat">
          21 -8 137 -108 -21 372 144 96 120 hstemhm
          57.5 176.5 129 194 hintmask 10111100
          137 612 rmoveto
          276 hlineto
          9 107 -12 13 rlineto
          -276 hlineto
          -9 -107 rlineto
          -72 -112 rmoveto
          9 -364 rlineto
          hintmask 01111100
          -9 -149 rlineto
          hintmask 10111100
          -4 69 83 -4 58 hhcurveto
          189 105 102 184 153 -89 85 -161 hvcurveto
          -9 -387 rmoveto
          -16 -26 4 4 -24 hvcurveto
          -1 31 6 201 rlineto
          2 22 16 1 16 hhcurveto
          55 17 -31 -109 -81 -26 -22 -39 hvcurveto
          endchar
        </CharString>
        <CharString name="degree">
          -262 389 79 112 79 hstem
          11 79 112 79 vstem
          146 659 rmoveto
          -75 -60 -60 -75 -75 60 -60 75 75 60 60 75 75 -60 60 -75 hvcurveto
          -79 vmoveto
          33 23 -23 -33 -34 -23 -22 -33 -34 -22 22 34 33 22 23 34 hvcurveto
          endchar
        </CharString>
        <CharString name="dieresis">
          544 173 hstemhm
          13 170 23 170 hintmask 11000000
          102 717 rmoveto
          -55 -34 -34 -56 -53 29 -30 53 54 34 35 56 52 -30 30 -51 hvcurveto
          hintmask 11100000
          193 hmoveto
          -55 -34 -34 -56 -53 29 -30 53 54 34 35 56 52 -30 30 -51 hvcurveto
          endchar
        </CharString>
</ttFont>
